{
.appVersion = "3227";
.formatVersion = 3;
classes = (
{
automatic = 1;
code = "A Aacute Abreve Abreveacute Abrevedotbelow Abrevegrave Abrevehookabove Abrevetilde Acircumflex Acircumflexacute Acircumflexdotbelow Acircumflexgrave Acircumflexhookabove Acircumflextilde Adblgrave Adieresis Adotbelow Agrave Ahookabove Ainvertedbreve Amacron Aogonek Aring Aringacute Atilde AE AEacute B C Cacute Ccaron Ccedilla Ccircumflex Cdotaccent D DZcaron Dcaron Dcroat Dzcaron Eth E Eacute Ebreve Ecaron Ecircumflex Ecircumflexacute Ecircumflexdotbelow Ecircumflexgrave Ecircumflexhookabove Ecircumflextilde Edblgrave Edieresis Edotaccent Edotbelow Egrave Ehookabove Einvertedbreve Emacron Eogonek Etilde Schwa F G Gbreve Gcaron Gcircumflex Gcommaaccent Gdotaccent H Hbar Hcircumflex I IJ Iacute Ibreve Icircumflex Idblgrave Idieresis Idotaccent Idotbelow Igrave Ihookabove Iinvertedbreve Imacron Iogonek Itilde J Jcircumflex K Kcommaaccent L LJ Lacute Lcaron Lcommaaccent Ldot Lj Lslash M N NJ Nacute Ncaron Ncommaaccent Nj Ntilde Eng O Oacute Obreve Ocircumflex Ocircumflexacute Ocircumflexdotbelow Ocircumflexgrave Ocircumflexhookabove Ocircumflextilde Odblgrave Odieresis Odieresismacron Odotaccentmacron Odotbelow Ograve Ohookabove Ohorn Ohornacute Ohorndotbelow Ohorngrave Ohornhookabove Ohorntilde Ohungarumlaut Oinvertedbreve Omacron Oogonek Oslash Oslashacute Otilde Otildemacron OE P Thorn Q R Racute Rcaron Rcommaaccent Rdblgrave Rinvertedbreve S Sacute Scaron Scedilla Scircumflex Scommaaccent Germandbls T Tbar Tcaron Tcedilla Tcommaaccent U Uacute Ubreve Ucircumflex Udblgrave Udieresis Udotbelow Ugrave Uhookabove Uhorn Uhornacute Uhorndotbelow Uhorngrave Uhornhookabove Uhorntilde Uhungarumlaut Uinvertedbreve Umacron Uogonek Uring Utilde V W Wacute Wcircumflex Wdieresis Wgrave X Y Yacute Ycircumflex Ydieresis Ydotbelow Ygrave Yhookabove Ymacron Ytilde Z Zacute Zcaron Zdotaccent";
name = Uppercase;
}
);
customParameters = (
{
name = unicodeRanges;
value = (
0,
1,
2
);
},
{
name = fsType;

glyphs = (
{
color = 4;
glyphname = A;
kernLeft = A;
kernRight = A;
lastChange = "2023-11-24 14:51:38 +0000";
layers = (
{
anchors = (
{
name = bottom;
pos = (296,-35);
},
{
name = ogonek;
pos = (473,10);
},
{
name = top.case;
pos = (295,740);
}
);
background = {
anchors = (
{
name = bottom;
pos = (296,-35);
},
{
name = ogonek;
pos = (473,10);
},
{
name = top.case;
pos = (295,740);
}
);
shapes = (
{
closed = 1;
nodes = (
(264,271,l),
(171,661,l),
(5,0,l),
(214,0,l)
);
},
{
closed = 1;
nodes = (
(331,202,l),
(301,202,l),
(274,47,l),
(367,47,l),
(378,0,l),
(585,0,l),
(418,728,l),
(207,728,l)
);
}
);
};
guides = (
{
angle = 90;
pos = (575,-37);
}
);
hints = (
{
horizontal = 1;
place = (0,21);
target = up;
type = BottomGhost;
},
{
horizontal = 1;
place = (97,155);
type = Stem;
},
{
horizontal = 1;
place = (728,-20);
target = down;
type = TopGhost;
}
);
layerId = "58D608FC-F2A7-4C81-9CF8-8074D1767F25";
shapes = (
{
closed = 1;
nodes = (
(264,271,l),
(171,661,l),
(5,0,l),
(214,0,l)
);
},
{
closed = 1;
nodes = (
(331,202,l),
(301,202,l),
(274,47,l),
(367,47,l),
(378,0,l),
(585,0,l),
(418,728,l),
(207,728,l)
);
}
);
width = 590;
}
);
note = A;
unicode = 65;
},
{
color = 4;
glyphname = Aacute;
kernLeft = A;
kernRight = A;
lastChange = "2023-11-24 14:51:42 +0000";
layers = (
{
background = {
anchors = (
{
name = bottom;
pos = (296,-35);
},
{
name = ogonek;
pos = (473,10);
},
{
name = top.case;
pos = (295,740);
}
);
hints = (
{
horizontal = 1;
place = (0,21);
target = up;
type = BottomGhost;
},
{
horizontal = 1;
place = (97,155);
type = Stem;
},
{
horizontal = 1;
place = (728,-20);
target = down;
type = TopGhost;
},
{
horizontal = 1;
origin = (0,3);
place = (0,120);
type = Stem;
}
);
shapes = (
{
closed = 1;
nodes = (
(264,271,l),
(171,661,l),
(5,0,l),
(214,0,l)
);
},
{
closed = 1;
nodes = (
(331,202,l),
(301,202,l),
(274,47,l),
(367,47,l),
(378,0,l),
(585,0,l),
(418,728,l),
(207,728,l)
);
},
{
closed = 1;
nodes = (
(217,771,l),
(368,771,l),
(448,891,l),
(262,891,l)
);
}
);
};
hints = (
{
horizontal = 1;
place = (0,21);
target = up;
type = BottomGhost;
},
{
horizontal = 1;
place = (97,155);
type = Stem;
},
{
horizontal = 1;
place = (728,-20);
target = down;
type = TopGhost;
},
{
horizontal = 1;
place = (761,120);
type = Stem;
}
);
layerId = "58D608FC-F2A7-4C81-9CF8-8074D1767F25";
shapes = (
{
ref = A;
},
{
pos = (333,0);
ref = acutecomb.case;
}
);
width = 590;
}
);
note = Aacute;
unicode = 193;
},
{
color = 4;
glyphname = Abreve;
kernLeft = A;
kernRight = A;
lastChange = "2023-11-24 14:51:42 +0000";
layers = (
{
background = {
anchors = (
{
name = bottom;
pos = (296,-35);
},
{
name = ogonek;
pos = (473,10);
},
{
name = top.case;
pos = (295,906);
}
);
hints = (
{
horizontal = 1;
place = (0,21);
target = up;
type = BottomGhost;
},
{
horizontal = 1;
place = (97,155);
type = Stem;
},
{
horizontal = 1;
place = (728,-20);
target = down;
type = TopGhost;
},
{
horizontal = 1;
place = (746,104);
type = Stem;
},
{
horizontal = 1;
place = (746,142);
type = Stem;
}
);
shapes = (
{
closed = 1;
nodes = (
(264,271,l),
(171,661,l),
(5,0,l),
(214,0,l)
);
},
{
closed = 1;
nodes = (
(331,202,l),
(301,202,l),
(274,47,l),
(367,47,l),
(378,0,l),
(585,0,l),
(418,728,l),
(207,728,l)
);
},
{
closed = 1;
nodes = (
(397,771,o),
(438,814,o),
(448,911,c),
(362,911,l),
(351,883,o),
(331,870,o),
(295,870,cs),
(259,870,o),
(239,883,o),
(228,911,c),
(142,911,l),
(152,814,o),
(193,771,o),
(295,771,cs)
);
}
);
};
hints = (
{
horizontal = 1;
place = (0,21);
target = up;
type = BottomGhost;
},
{
horizontal = 1;
place = (97,155);
type = Stem;
},
{
horizontal = 1;
place = (728,-20);
target = down;
type = TopGhost;
},
{
horizontal = 1;
place = (746,104);
type = Stem;
},
{
horizontal = 1;
place = (746,142);
type = Stem;
}
);
layerId = "58D608FC-F2A7-4C81-9CF8-8074D1767F25";
shapes = (
{
ref = A;
},
{
pos = (295,0);
ref = brevecomb.case;
}
);
width = 590;
}
);
note = Abreve;
unicode = 258;
},
{
color = 4;
glyphname = Abreveacute;
lastChange = "2023-11-24 14:51:42 +0000";
layers = (
{
background = {
anchors = (
{
name = bottom;
pos = (296,-35);
},
{
name = ogonek;
pos = (473,10);
},
{
name = top.case;
pos = (295,906);
}
);
hints = (
{
horizontal = 1;
place = (0,21);
target = up;
type = BottomGhost;
},
{
horizontal = 1;
place = (97,155);
type = Stem;
},
{
horizontal = 1;
place = (728,-20);
target = down;
type = TopGhost;
},
{
horizontal = 1;
place = (746,104);
type = Stem;
},
{
horizontal = 1;
place = (746,142);
type = Stem;
},
{
horizontal = 1;
origin = (0,3);
place = (0,120);
type = Stem;
}
);
shapes = (
{
closed = 1;
nodes = (
(264,271,l),
(171,661,l),
(5,0,l),
(214,0,l)
);
},
{
closed = 1;
nodes = (
(331,202,l),
(301,202,l),
(274,47,l),
(367,47,l),
(378,0,l),
(585,0,l),
(418,728,l),
(207,728,l)
);
},
{
closed = 1;
nodes = (
(397,771,o),
(438,814,o),
(448,911,c),
(362,911,l),
(351,883,o),
(331,870,o),
(295,870,cs),
(259,870,o),
(239,883,o),
(228,911,c),
(142,911,l),
(152,814,o),
(193,771,o),
(295,771,cs)
);
},
{
closed = 1;
nodes = (
(217,937,l),
(368,937,l),
(448,1057,l),
(262,1057,l)
);
}
);
};
layerId = "58D608FC-F2A7-4C81-9CF8-8074D1767F25";
shapes = (
{
ref = A;
},
{
pos = (295,0);
ref = brevecomb.case;
},
{
pos = (333,166);
ref = acutecomb.case;
}
);
width = 590;
}
);
unicode = 7854;
},
{
color = 4;
glyphname = Abrevedotbelow;
lastChange = "2023-11-24 14:51:42 +0000";
layers = (
{
background = {
anchors = (
{
name = bottom;
pos = (296,-35);
},
{
name = ogonek;
pos = (473,10);
},
{
name = top.case;
pos = (295,906);
}
);
hints = (
{
horizontal = 1;
place = (0,21);
target = up;
type = BottomGhost;
},
{
horizontal = 1;
place = (97,155);
type = Stem;
},
{
horizontal = 1;
place = (728,-20);
target = down;
type = TopGhost;
},
{
horizontal = 1;
place = (-195,173);
type = Stem;
},
{
place = (201,190);
type = Stem;
},
{
horizontal = 1;
place = (746,104);
type = Stem;
},
{
horizontal = 1;
place = (746,142);
type = Stem;
}
);
shapes = (
{
closed = 1;
nodes = (
(264,271,l),
(171,661,l),
(5,0,l),
(214,0,l)
);
},
{
closed = 1;
nodes = (
(331,202,l),
(301,202,l),
(274,47,l),
(367,47,l),
(378,0,l),
(585,0,l),
(418,728,l),
(207,728,l)
);
},
{
closed = 1;
nodes = (
(201,-182,l),
(391,-182,l),
(391,-46,l),
(201,-46,l)
);
},
{
closed = 1;
nodes = (
(397,771,o),
(438,814,o),
(448,911,c),
(362,911,l),
(351,883,o),
(331,870,o),
(295,870,cs),
(259,870,o),
(239,883,o),
(228,911,c),
(142,911,l),
(152,814,o),
(193,771,o),
(295,771,cs)
);
}
);
};
layerId = "58D608FC-F2A7-4C81-9CF8-8074D1767F25";
shapes = (
{
ref = A;
},
{
pos = (296,0);
ref = dotbelowcomb;
},
{
pos = (295,0);
ref = brevecomb.case;
}
);
width = 590;
}
);
unicode = 7862;
},
{
color = 4;
glyphname = Abrevegrave;
lastChange = "2023-11-24 14:51:42 +0000";
layers = (
{
background = {
anchors = (
{
name = bottom;
pos = (296,-35);
},
{
name = ogonek;
pos = (473,10);
},
{
name = top.case;
pos = (295,906);
}
);
hints = (
{
horizontal = 1;
place = (0,21);
target = up;
type = BottomGhost;
},
{
horizontal = 1;
place = (97,155);
type = Stem;
},
{
horizontal = 1;
place = (728,-20);
target = down;
type = TopGhost;
},
{
horizontal = 1;
place = (746,104);
type = Stem;
},
{
horizontal = 1;
place = (746,142);
type = Stem;
},
{
horizontal = 1;
place = (927,120);
type = Stem;
}
);
shapes = (
{
closed = 1;
nodes = (
(264,271,l),
(171,661,l),
(5,0,l),
(214,0,l)
);
},
{
closed = 1;
nodes = (
(331,202,l),
(301,202,l),
(274,47,l),
(367,47,l),
(378,0,l),
(585,0,l),
(418,728,l),
(207,728,l)
);
},
{
closed = 1;
nodes = (
(397,771,o),
(438,814,o),
(448,911,c),
(362,911,l),
(351,883,o),
(331,870,o),
(295,870,cs),
(259,870,o),
(239,883,o),
(228,911,c),
(142,911,l),
(152,814,o),
(193,771,o),
(295,771,cs)
);
},
{
closed = 1;
nodes = (
(147,1057,l),
(227,937,l),
(378,937,l),
(333,1057,l)
);
}
);
};
layerId = "58D608FC-F2A7-4C81-9CF8-8074D1767F25";
shapes = (
{
ref = A;
},
{
pos = (295,0);
ref = brevecomb.case;
},
{
pos = (262,166);
ref = gravecomb.case;
}
);
width = 590;
}
);
unicode = 7856;
},
{
color = 4;
glyphname = Abrevehookabove;
lastChange = "2023-11-24 14:51:42 +0000";
layers = (
{
background = {
anchors = (
{
name = bottom;
pos = (296,-35);
},
{
name = ogonek;
pos = (473,10);
},
{
name = top.case;
pos = (295,906);
}
);
hints = (
{
horizontal = 1;
place = (0,21);
target = up;
type = BottomGhost;
},
{
horizontal = 1;
place = (97,155);
type = Stem;
},
{
horizontal = 1;
place = (728,-20);
target = down;
type = TopGhost;
},
{
horizontal = 1;
place = (746,104);
type = Stem;
},
{
horizontal = 1;
place = (746,142);
type = Stem;
}
);
shapes = (
{
closed = 1;
nodes = (
(264,271,l),
(171,661,l),
(5,0,l),
(214,0,l)
);
},
{
closed = 1;
nodes = (
(331,202,l),
(301,202,l),
(274,47,l),
(367,47,l),
(378,0,l),
(585,0,l),
(418,728,l),
(207,728,l)
);
},
{
closed = 1;
nodes = (
(397,771,o),
(438,814,o),
(448,911,c),
(362,911,l),
(351,883,o),
(331,870,o),
(295,870,cs),
(259,870,o),
(239,883,o),
(228,911,c),
(142,911,l),
(152,814,o),
(193,771,o),
(295,771,cs)
);
},
{
closed = 1;
nodes = (
(291,997,o),
(247,975,c),
(290,923,l),
(436,961,o),
(435,1140,o),
(279,1140,cs),
(253,1140,o),
(223,1135,o),
(200,1127,c),
(193,1041,l),
(203,1045,o),
(225,1049,o),
(245,1049,cs),
(299,1049,o)
);
}
);
};
layerId = "58D608FC-F2A7-4C81-9CF8-8074D1767F25";
shapes = (
{
ref = A;
},
{
pos = (295,0);
ref = brevecomb.case;
},
{
pos = (295,166);
ref = hookabovecomb.case;
}
);
width = 590;
}
);
unicode = 7858;
},
{
color = 4;
glyphname = Abrevetilde;
lastChange = "2023-11-24 14:51:42 +0000";
layers = (
{
background = {
anchors = (
{
name = bottom;
pos = (296,-35);
},
{
name = ogonek;
pos = (473,10);
},
{
name = top.case;
pos = (295,1061);
}
);
hints = (
{
horizontal = 1;
place = (0,21);
target = up;
type = BottomGhost;
},
{
horizontal = 1;
place = (97,155);
type = Stem;
},
{
horizontal = 1;
place = (728,-20);
target = down;
type = TopGhost;
},
{
horizontal = 1;
place = (746,104);
type = Stem;
},
{
horizontal = 1;
place = (746,142);
type = Stem;
},
{
horizontal = 1;
place = (940,41);
type = Stem;
},
{
horizontal = 1;
place = (981,94);
type = Stem;
}
);
shapes = (
{
closed = 1;
nodes = (
(264,271,l),
(171,661,l),
(5,0,l),
(214,0,l)
);
},
{
closed = 1;
nodes = (
(331,202,l),
(301,202,l),
(274,47,l),
(367,47,l),
(378,0,l),
(585,0,l),
(418,728,l),
(207,728,l)
);
},
{
closed = 1;
nodes = (
(397,771,o),
(438,814,o),
(448,911,c),
(362,911,l),
(351,883,o),
(331,870,o),
(295,870,cs),
(259,870,o),
(239,883,o),
(228,911,c),
(142,911,l),
(152,814,o),
(193,771,o),
(295,771,cs)
);
},
{
closed = 1;
nodes = (
(363,1075,l),
(363,1060,o),
(358,1048,o),
(340,1048,cs),
(320,1048,o),
(286,1083,o),
(245,1083,cs),
(181,1083,o),
(150,1039,o),
(150,981,cs),
(150,968,o),
(152,954,o),
(155,940,c),
(226,940,l),
(226,955,o),
(231,967,o),
(249,967,cs),
(269,967,o),
(303,932,o),
(344,932,cs),
(408,932,o),
(439,976,o),
(439,1034,cs),
(439,1047,o),
(437,1061,o),
(434,1075,c)
);
}
);
};
layerId = "58D608FC-F2A7-4C81-9CF8-8074D1767F25";
shapes = (
{
ref = A;
},
{
pos = (295,0);
ref = brevecomb.case;
},
{
pos = (295,166);
ref = tildecomb.case;
}
);
width = 590;
}
);
unicode = 7860;
},
{
color = 4;
glyphname = Acircumflex;
kernLeft = A;
kernRight = A;
lastChange = "2023-11-24 14:51:42 +0000";
layers = (
{
background = {
anchors = (
{
name = bottom;
pos = (296,-35);
},
{
name = ogonek;
pos = (473,10);
},
{
name = top.case;
pos = (295,889);
}
);
hints = (
{
horizontal = 1;
place = (0,21);
target = up;
type = BottomGhost;
},
{
horizontal = 1;
place = (97,155);
type = Stem;
},
{
horizontal = 1;
place = (728,-20);
target = down;
type = TopGhost;
},
{
horizontal = 1;
place = (761,120);
type = Stem;
}
);
shapes = (
{
closed = 1;
nodes = (
(264,271,l),
(171,661,l),
(5,0,l),
(214,0,l)
);
},
{
closed = 1;
nodes = (
(331,202,l),
(301,202,l),
(274,47,l),
(367,47,l),
(378,0,l),
(585,0,l),
(418,728,l),
(207,728,l)
);
},
{
closed = 1;
nodes = (
(126,771,l),
(250,771,l),
(274,794,l),
(212,866,l)
);
},
{
closed = 1;
nodes = (
(345,771,l),
(464,771,l),
(356,891,l),
(245,891,l)
);
}
);
};
hints = (
{
horizontal = 1;
place = (0,21);
target = up;
type = BottomGhost;
},
{
horizontal = 1;
place = (97,155);
type = Stem;
},
{
horizontal = 1;
place = (728,-20);
target = down;
type = TopGhost;
},
{
horizontal = 1;
place = (761,120);
type = Stem;
}
);
layerId = "58D608FC-F2A7-4C81-9CF8-8074D1767F25";
shapes = (
{
ref = A;
},
{
pos = (295,0);
ref = circumflexcomb.case;
}
);
width = 590;
}
);
note = Acircumflex;
unicode = 194;
},
{
color = 4;
glyphname = Acircumflexacute;
lastChange = "2023-11-24 14:51:42 +0000";
layers = (
{
background = {
anchors = (
{
name = bottom;
pos = (296,-35);
},
{
name = ogonek;
pos = (473,10);
},
{
name = top.case;
pos = (295,889);
}
);
hints = (
{
horizontal = 1;
place = (0,21);
target = up;
type = BottomGhost;
},
{
horizontal = 1;
place = (97,155);
type = Stem;
},
{
horizontal = 1;
place = (728,-20);
target = down;
type = TopGhost;
},
{
horizontal = 1;
place = (761,120);
type = Stem;
},
{
horizontal = 1;
origin = (0,3);
place = (0,120);
type = Stem;
}
);
shapes = (
{
closed = 1;
nodes = (
(264,271,l),
(171,661,l),
(5,0,l),
(214,0,l)
);
},
{
closed = 1;
nodes = (
(331,202,l),
(301,202,l),
(274,47,l),
(367,47,l),
(378,0,l),
(585,0,l),
(418,728,l),
(207,728,l)
);
},
{
closed = 1;
nodes = (
(126,771,l),
(250,771,l),
(274,794,l),
(212,866,l)
);
},
{
closed = 1;
nodes = (
(345,771,l),
(464,771,l),
(356,891,l),
(245,891,l)
);
},
{
closed = 1;
nodes = (
(217,920,l),
(368,920,l),
(448,1040,l),
(262,1040,l)
);
}
);
};
layerId = "58D608FC-F2A7-4C81-9CF8-8074D1767F25";
shapes = (
{
ref = A;
},
{
pos = (295,0);
ref = circumflexcomb.case;
},
{
pos = (333,149);
ref = acutecomb.case;
}
);
width = 590;
}
);
unicode = 7844;
},
{
color = 4;
glyphname = Acircumflexdotbelow;
lastChange = "2023-11-24 14:51:42 +0000";
layers = (
{
background = {
anchors = (
{
name = bottom;
pos = (296,-35);
},
{
name = ogonek;
pos = (473,10);
},
{
name = top.case;
pos = (295,889);
}
);
hints = (
{
horizontal = 1;
place = (0,21);
target = up;
type = BottomGhost;
},
{
horizontal = 1;
place = (97,155);
type = Stem;
},
{
horizontal = 1;
place = (728,-20);
target = down;
type = TopGhost;
},
{
horizontal = 1;
place = (-195,173);
type = Stem;
},
{
place = (201,190);
type = Stem;
},
{
horizontal = 1;
place = (761,120);
type = Stem;
}
);
shapes = (
{
closed = 1;
nodes = (
(264,271,l),
(171,661,l),
(5,0,l),
(214,0,l)
);
},
{
closed = 1;
nodes = (
(331,202,l),
(301,202,l),
(274,47,l),
(367,47,l),
(378,0,l),
(585,0,l),
(418,728,l),
(207,728,l)
);
},
{
closed = 1;
nodes = (
(201,-182,l),
(391,-182,l),
(391,-46,l),
(201,-46,l)
);
},
{
closed = 1;
nodes = (
(126,771,l),
(250,771,l),
(274,794,l),
(212,866,l)
);
},
{
closed = 1;
nodes = (
(345,771,l),
(464,771,l),
(356,891,l),
(245,891,l)
);
}
);
};
layerId = "58D608FC-F2A7-4C81-9CF8-8074D1767F25";
shapes = (
{
ref = A;
},
{
pos = (296,0);
ref = dotbelowcomb;
},
{
pos = (295,0);
ref = circumflexcomb.case;
}
);
width = 590;
}
);
unicode = 7852;
},
{
color = 4;
glyphname = Acircumflexgrave;
lastChange = "2023-11-24 14:51:42 +0000";
layers = (
{
background = {
anchors = (
{
name = bottom;
pos = (296,-35);
},
{
name = ogonek;
pos = (473,10);
},
{
name = top.case;
pos = (295,889);
}
);
hints = (
{
horizontal = 1;
place = (0,21);
target = up;
type = BottomGhost;
},
{
horizontal = 1;
place = (97,155);
type = Stem;
},
{
horizontal = 1;
place = (728,-20);
target = down;
type = TopGhost;
},
{
horizontal = 1;
place = (761,120);
type = Stem;
},
{
horizontal = 1;
place = (910,120);
type = Stem;
}
);
shapes = (
{
closed = 1;
nodes = (
(264,271,l),
(171,661,l),
(5,0,l),
(214,0,l)
);
},
{
closed = 1;
nodes = (
(331,202,l),
(301,202,l),
(274,47,l),
(367,47,l),
(378,0,l),
(585,0,l),
(418,728,l),
(207,728,l)
);
},
{
closed = 1;
nodes = (
(126,771,l),
(250,771,l),
(274,794,l),
(212,866,l)
);
},
{
closed = 1;
nodes = (
(345,771,l),
(464,771,l),
(356,891,l),
(245,891,l)
);
},
{
closed = 1;
nodes = (
(147,1040,l),
(227,920,l),
(378,920,l),
(333,1040,l)
);
}
);
};
layerId = "58D608FC-F2A7-4C81-9CF8-8074D1767F25";
shapes = (
{
ref = A;
},
{
pos = (295,0);
ref = circumflexcomb.case;
},
{
pos = (262,149);
ref = gravecomb.case;
}
);
width = 590;
}
);
unicode = 7846;
},
{
color = 4;
glyphname = Acircumflexhookabove;
lastChange = "2023-11-24 14:51:42 +0000";
layers = (
{
background = {
anchors = (
{
name = bottom;
pos = (296,-35);
},
{
name = ogonek;
pos = (473,10);
},
{
name = top.case;
pos = (295,889);
}
);
hints = (
{
horizontal = 1;
place = (0,21);
target = up;
type = BottomGhost;
},
{
horizontal = 1;
place = (97,155);
type = Stem;
},
{
horizontal = 1;
place = (728,-20);
target = down;
type = TopGhost;
},
{
horizontal = 1;
place = (761,120);
type = Stem;
}
);
shapes = (
{
closed = 1;
nodes = (
(264,271,l),
(171,661,l),
(5,0,l),
(214,0,l)
);
},
{
closed = 1;
nodes = (
(331,202,l),
(301,202,l),
(274,47,l),
(367,47,l),
(378,0,l),
(585,0,l),
(418,728,l),
(207,728,l)
);
},
{
closed = 1;
nodes = (
(126,771,l),
(250,771,l),
(274,794,l),
(212,866,l)
);
},
{
closed = 1;
nodes = (
(345,771,l),
(464,771,l),
(356,891,l),
(245,891,l)
);
},
{
closed = 1;
nodes = (
(448,901,o),
(404,879,c),
(447,827,l),
(593,865,o),
(592,1044,o),
(436,1044,cs),
(410,1044,o),
(380,1039,o),
(357,1031,c),
(350,945,l),
(360,949,o),
(382,953,o),
(402,953,cs),
(456,953,o)
);
}
);
};
layerId = "58D608FC-F2A7-4C81-9CF8-8074D1767F25";
shapes = (
{
ref = A;
},
{
pos = (295,0);
ref = circumflexcomb.case;
},
{
alignment = -1;
pos = (452,70);
ref = hookabovecomb.case;
}
);
width = 590;
}
);
unicode = 7848;
},
{
color = 4;
glyphname = Acircumflextilde;
lastChange = "2023-11-24 14:51:42 +0000";
layers = (
{
background = {
anchors = (
{
name = bottom;
pos = (296,-35);
},
{
name = ogonek;
pos = (473,10);
},
{
name = top.case;
pos = (295,1044);
}
);
hints = (
{
horizontal = 1;
place = (0,21);
target = up;
type = BottomGhost;
},
{
horizontal = 1;
place = (97,155);
type = Stem;
},
{
horizontal = 1;
place = (728,-20);
target = down;
type = TopGhost;
},
{
horizontal = 1;
place = (761,120);
type = Stem;
},
{
horizontal = 1;
place = (923,41);
type = Stem;
},
{
horizontal = 1;
place = (964,94);
type = Stem;
}
);
shapes = (
{
closed = 1;
nodes = (
(264,271,l),
(171,661,l),
(5,0,l),
(214,0,l)
);
},
{
closed = 1;
nodes = (
(331,202,l),
(301,202,l),
(274,47,l),
(367,47,l),
(378,0,l),
(585,0,l),
(418,728,l),
(207,728,l)
);
},
{
closed = 1;
nodes = (
(126,771,l),
(250,771,l),
(274,794,l),
(212,866,l)
);
},
{
closed = 1;
nodes = (
(345,771,l),
(464,771,l),
(356,891,l),
(245,891,l)
);
},
{
closed = 1;
nodes = (
(363,1058,l),
(363,1043,o),
(358,1031,o),
(340,1031,cs),
(320,1031,o),
(286,1066,o),
(245,1066,cs),
(181,1066,o),
(150,1022,o),
(150,964,cs),
(150,951,o),
(152,937,o),
(155,923,c),
(226,923,l),
(226,938,o),
(231,950,o),
(249,950,cs),
(269,950,o),
(303,915,o),
(344,915,cs),
(408,915,o),
(439,959,o),
(439,1017,cs),
(439,1030,o),
(437,1044,o),
(434,1058,c)
);
}
);
};
layerId = "58D608FC-F2A7-4C81-9CF8-8074D1767F25";
shapes = (
{
ref = A;
},
{
pos = (295,0);
ref = circumflexcomb.case;
},
{
pos = (295,149);
ref = tildecomb.case;
}
);
width = 590;
}
);
unicode = 7850;
},
{
color = 4;
glyphname = Adblgrave;
lastChange = "2023-11-24 14:51:42 +0000";
layers = (
{
background = {
anchors = (
{
name = bottom;
pos = (296,-35);
},
{
name = ogonek;
pos = (473,10);
},
{
name = top.case;
pos = (295,740);
}
);
hints = (
{
horizontal = 1;
place = (0,21);
target = up;
type = BottomGhost;
},
{
horizontal = 1;
place = (97,155);
type = Stem;
},
{
horizontal = 1;
place = (728,-20);
target = down;
type = TopGhost;
}
);
shapes = (
{
closed = 1;
nodes = (
(264,271,l),
(171,661,l),
(5,0,l),
(214,0,l)
);
},
{
closed = 1;
nodes = (
(331,202,l),
(301,202,l),
(274,47,l),
(367,47,l),
(378,0,l),
(585,0,l),
(418,728,l),
(207,728,l)
);
},
{
closed = 1;
nodes = (
(259,891,l),
(323,771,l),
(474,771,l),
(429,891,l)
);
},
{
closed = 1;
nodes = (
(35,891,l),
(119,771,l),
(270,771,l),
(205,891,l)
);
}
);
};
layerId = "58D608FC-F2A7-4C81-9CF8-8074D1767F25";
shapes = (
{
ref = A;
},
{
pos = (257,0);
ref = dblgravecomb.case;
}
);
width = 590;
}
);
unicode = 512;
},
{
color = 4;
glyphname = Adieresis;
kernLeft = A;
kernRight = A;
lastChange = "2023-11-24 14:51:42 +0000";
layers = (
{
background = {
anchors = (
{
name = bottom;
pos = (296,-35);
},
{
name = ogonek;
pos = (473,10);
},
{
name = top.case;
pos = (295,895);
}
);
hints = (
{
horizontal = 1;
place = (0,21);
target = up;
type = BottomGhost;
},
{
horizontal = 1;
place = (97,155);
type = Stem;
},
{
horizontal = 1;
place = (728,-20);
target = down;
type = TopGhost;
},
{
horizontal = 1;
place = (753,165);
type = Stem;
},
{
place = (313,160);
type = Stem;
},
{
place = (512,180);
type = Stem;
},
{
place = (298,180);
type = Stem;
},
{
place = (517,160);
type = Stem;
},
{
horizontal = 1;
place = (768,165);
type = Stem;
},
{
place = (113,160);
type = Stem;
},
{
place = (317,160);
type = Stem;
}
);
shapes = (
{
closed = 1;
nodes = (
(264,271,l),
(171,661,l),
(5,0,l),
(214,0,l)
);
},
{
closed = 1;
nodes = (
(331,202,l),
(301,202,l),
(274,47,l),
(367,47,l),
(378,0,l),
(585,0,l),
(418,728,l),
(207,728,l)
);
},
{
closed = 1;
nodes = (
(113,777,l),
(273,777,l),
(273,913,l),
(113,913,l)
);
},
{
closed = 1;
nodes = (
(317,777,l),
(477,777,l),
(477,913,l),
(317,913,l)
);
}
);
};
hints = (
{
horizontal = 1;
place = (0,21);
target = up;
type = BottomGhost;
},
{
horizontal = 1;
place = (97,155);
type = Stem;
},
{
horizontal = 1;
place = (728,-20);
target = down;
type = TopGhost;
},
{
horizontal = 1;
place = (758,165);
type = Stem;
},
{
place = (98,160);
type = Stem;
},
{
place = (302,160);
type = Stem;
}
);
layerId = "58D608FC-F2A7-4C81-9CF8-8074D1767F25";
shapes = (
{
ref = A;
},
{
pos = (295,0);
ref = dieresiscomb.case;
}
);
width = 590;
}
);
note = Adieresis;
unicode = 196;
},
{
color = 4;
glyphname = Adotbelow;
lastChange = "2023-11-24 14:51:42 +0000";
layers = (
{
background = {
anchors = (
{
name = bottom;
pos = (296,-35);
},
{
name = ogonek;
pos = (473,10);
},
{
name = top.case;
pos = (295,740);
}
);
hints = (
{
horizontal = 1;
place = (0,21);
target = up;
type = BottomGhost;
},
{
horizontal = 1;
place = (97,155);
type = Stem;
},
{
horizontal = 1;
place = (728,-20);
target = down;
type = TopGhost;
},
{
horizontal = 1;
place = (-195,173);
type = Stem;
},
{
place = (201,190);
type = Stem;
}
);
shapes = (
{
closed = 1;
nodes = (
(264,271,l),
(171,661,l),
(5,0,l),
(214,0,l)
);
},
{
closed = 1;
nodes = (
(331,202,l),
(301,202,l),
(274,47,l),
(367,47,l),
(378,0,l),
(585,0,l),
(418,728,l),
(207,728,l)
);
},
{
closed = 1;
nodes = (
(201,-182,l),
(391,-182,l),
(391,-46,l),
(201,-46,l)
);
}
);
};
layerId = "58D608FC-F2A7-4C81-9CF8-8074D1767F25";
shapes = (
{
ref = A;
},
{
pos = (296,0);
ref = dotbelowcomb;
}
);
width = 590;
}
);
unicode = 7840;
},
{
color = 4;
glyphname = Agrave;
kernLeft = A;
kernRight = A;
lastChange = "2023-11-24 14:51:42 +0000";
layers = (
{
background = {
anchors = (
{
name = bottom;
pos = (296,-35);
},
{
name = ogonek;
pos = (473,10);
},
{
name = top.case;
pos = (295,740);
}
);
hints = (
{
horizontal = 1;
place = (0,21);
target = up;
type = BottomGhost;
},
{
horizontal = 1;
place = (97,155);
type = Stem;
},
{
horizontal = 1;
place = (728,-20);
target = down;
type = TopGhost;
},
{
horizontal = 1;
place = (761,120);
type = Stem;
}
);
shapes = (
{
closed = 1;
nodes = (
(264,271,l),
(171,661,l),
(5,0,l),
(214,0,l)
);
},
{
closed = 1;
nodes = (
(331,202,l),
(301,202,l),
(274,47,l),
(367,47,l),
(378,0,l),
(585,0,l),
(418,728,l),
(207,728,l)
);
},
{
closed = 1;
nodes = (
(147,891,l),
(227,771,l),
(378,771,l),
(333,891,l)
);
}
);
};
hints = (
{
horizontal = 1;
place = (0,21);
target = up;
type = BottomGhost;
},
{
horizontal = 1;
place = (97,155);
type = Stem;
},
{
horizontal = 1;
place = (728,-20);
target = down;
type = TopGhost;
},
{
horizontal = 1;
place = (761,120);
type = Stem;
}
);
layerId = "58D608FC-F2A7-4C81-9CF8-8074D1767F25";
shapes = (
{
ref = A;
},
{
pos = (262,0);
ref = gravecomb.case;
}
);
width = 590;
}
);
note = Agrave;
unicode = 192;
},
{
color = 4;
glyphname = Ahookabove;
lastChange = "2023-11-24 14:51:42 +0000";
layers = (
{
background = {
anchors = (
{
name = bottom;
pos = (296,-35);
},
{
name = ogonek;
pos = (473,10);
},
{
name = top.case;
pos = (295,740);
}
);
hints = (
{
horizontal = 1;
place = (0,21);
target = up;
type = BottomGhost;
},
{
horizontal = 1;
place = (97,155);
type = Stem;
},
{
horizontal = 1;
place = (728,-20);
target = down;
type = TopGhost;
}
);
shapes = (
{
closed = 1;
nodes = (
(264,271,l),
(171,661,l),
(5,0,l),
(214,0,l)
);
},
{
closed = 1;
nodes = (
(331,202,l),
(301,202,l),
(274,47,l),
(367,47,l),
(378,0,l),
(585,0,l),
(418,728,l),
(207,728,l)
);
},
{
closed = 1;
nodes = (
(291,831,o),
(247,809,c),
(290,757,l),
(436,795,o),
(435,974,o),
(279,974,cs),
(253,974,o),
(223,969,o),
(200,961,c),
(193,875,l),
(203,879,o),
(225,883,o),
(245,883,cs),
(299,883,o)
);
}
);
};
layerId = "58D608FC-F2A7-4C81-9CF8-8074D1767F25";
shapes = (
{
ref = A;
},
{
pos = (295,0);
ref = hookabovecomb.case;
}
);
width = 590;
}
);
unicode = 7842;
},
{
color = 4;
glyphname = Ainvertedbreve;
lastChange = "2023-11-24 14:51:42 +0000";
layers = (
{
background = {
anchors = (
{
name = bottom;
pos = (296,-35);
},
{
name = ogonek;
pos = (473,10);
},
{
name = top.case;
pos = (295,740);
}
);
hints = (
{
horizontal = 1;
place = (0,21);
target = up;
type = BottomGhost;
},
{
horizontal = 1;
place = (97,155);
type = Stem;
},
{
horizontal = 1;
place = (728,-20);
target = down;
type = TopGhost;
},
{
horizontal = 1;
place = (746,104);
type = Stem;
},
{
horizontal = 1;
place = (746,142);
type = Stem;
},
{
horizontal = 1;
origin = (0,3);
place = (0,-104);
type = Stem;
},
{
horizontal = 1;
origin = (0,3);
place = (0,-142);
type = Stem;
}
);
shapes = (
{
closed = 1;
nodes = (
(264,271,l),
(171,661,l),
(5,0,l),
(214,0,l)
);
},
{
closed = 1;
nodes = (
(331,202,l),
(301,202,l),
(274,47,l),
(367,47,l),
(378,0,l),
(585,0,l),
(418,728,l),
(207,728,l)
);
},
{
closed = 1;
nodes = (
(193,912,o),
(152,869,o),
(142,772,c),
(228,772,l),
(239,800,o),
(259,813,o),
(295,813,cs),
(331,813,o),
(351,800,o),
(362,772,c),
(448,772,l),
(438,869,o),
(397,912,o),
(295,912,cs)
);
}
);
};
layerId = "58D608FC-F2A7-4C81-9CF8-8074D1767F25";
shapes = (
{
ref = A;
},
{
pos = (295,0);
ref = breveinvertedcomb.case;
}
);
width = 590;
}
);
unicode = 514;
},
{
color = 4;
glyphname = Amacron;
kernLeft = A;
kernRight = A;
lastChange = "2023-11-24 14:51:42 +0000";
layers = (
{
background = {
anchors = (
{
name = bottom;
pos = (296,-35);
},
{
name = ogonek;
pos = (473,10);
},
{
name = top.case;
pos = (295,740);
}
);
hints = (
{
horizontal = 1;
place = (0,21);
target = up;
type = BottomGhost;
},
{
horizontal = 1;
place = (97,155);
type = Stem;
},
{
horizontal = 1;
place = (728,-20);
target = down;
type = TopGhost;
},
{
horizontal = 1;
place = (778,103);
type = Stem;
},
{
horizontal = 1;
place = (786.589,110.885);
type = Stem;
}
);
shapes = (
{
closed = 1;
nodes = (
(264,271,l),
(171,661,l),
(5,0,l),
(214,0,l)
);
},
{
closed = 1;
nodes = (
(331,202,l),
(301,202,l),
(274,47,l),
(367,47,l),
(378,0,l),
(585,0,l),
(418,728,l),
(207,728,l)
);
},
{
closed = 1;
nodes = (
(147,787,l),
(443,787,l),
(443,897,l),
(147,897,l)
);
}
);
};
hints = (
{
horizontal = 1;
place = (0,21);
target = up;
type = BottomGhost;
},
{
horizontal = 1;
place = (97,155);
type = Stem;
},
{
horizontal = 1;
place = (728,-20);
target = down;
type = TopGhost;
},
{
horizontal = 1;
place = (778,103);
type = Stem;
}
);
layerId = "58D608FC-F2A7-4C81-9CF8-8074D1767F25";
shapes = (
{
ref = A;
},
{
pos = (295,0);
ref = macroncomb.case;
}
);
width = 590;
}
);
note = Amacron;
unicode = 256;
},
{
color = 4;
glyphname = Aogonek;
kernLeft = A;
kernRight = A;
lastChange = "2023-11-24 14:51:42 +0000";
layers = (
{
background = {
anchors = (
{
name = bottom;
pos = (296,-35);
},
{
name = ogonek;
pos = (473,10);
},
{
name = top.case;
pos = (295,740);
}
);
hints = (
{
horizontal = 1;
place = (0,21);
target = up;
type = BottomGhost;
},
{
horizontal = 1;
place = (97,155);
type = Stem;
},
{
horizontal = 1;
place = (728,-20);
target = down;
type = TopGhost;
},
{
horizontal = 1;
place = (-160,68);
type = Stem;
},
{
horizontal = 1;
place = (55,-20);
target = down;
type = TopGhost;
},
{
place = (391,197);
type = Stem;
}
);
shapes = (
{
closed = 1;
nodes = (
(264,271,l),
(171,661,l),
(5,0,l),
(214,0,l)
);
},
{
closed = 1;
nodes = (
(331,202,l),
(301,202,l),
(274,47,l),
(367,47,l),
(378,0,l),
(585,0,l),
(418,728,l),
(207,728,l)
);
},
{
closed = 1;
nodes = (
(394,-109,o),
(430,-160,o),
(520,-160,cs),
(546,-160,o),
(576,-154,o),
(601,-146,c),
(575,-181,l),
(575,-46,l),
(590,-72,l),
(550,-83,o),
(528,-76,o),
(522,-51,c),
(406,-51,l)
);
}
);
};
hints = (
{
horizontal = 1;
place = (-160,68);
type = Stem;
},
{
horizontal = 1;
place = (0,21);
target = up;
type = BottomGhost;
},
{
horizontal = 1;
place = (55,-20);
target = down;
type = TopGhost;
},
{
horizontal = 1;
place = (97,155);
type = Stem;
},
{
horizontal = 1;
place = (728,-20);
target = down;
type = TopGhost;
},
{
place = (368,197);
type = Stem;
},
{
place = (368,111);
type = Stem;
}
);
layerId = "58D608FC-F2A7-4C81-9CF8-8074D1767F25";
shapes = (
{
ref = A;
},
{
pos = (489,0);
ref = ogonekcomb;
}
);
width = 590;
}
);
note = Aogonek;
unicode = 260;
},
{
color = 4;
glyphname = Aring;
kernLeft = A;
kernRight = A;
lastChange = "2023-11-24 14:51:42 +0000";
layers = (
{
background = {
anchors = (
{
name = bottom;
pos = (296,-35);
},
{
name = ogonek;
pos = (473,10);
},
{
name = top.case;
pos = (295,740);
}
);
hints = (
{
horizontal = 1;
place = (0,21);
target = up;
type = BottomGhost;
},
{
horizontal = 1;
place = (97,155);
type = Stem;
},
{
horizontal = 1;
place = (728,-20);
target = down;
type = TopGhost;
},
{
horizontal = 1;
place = (758,39);
type = Stem;
},
{
horizontal = 1;
place = (882,39);
type = Stem;
},
{
place = (373,100);
type = Stem;
},
{
place = (517,100);
type = Stem;
}
);
shapes = (
{
closed = 1;
nodes = (
(264,271,l),
(171,661,l),
(5,0,l),
(214,0,l)
);
},
{
closed = 1;
nodes = (
(331,202,l),
(301,202,l),
(274,47,l),
(367,47,l),
(378,0,l),
(585,0,l),
(418,728,l),
(207,728,l)
);
},
{
closed = 1;
nodes = (
(322,860,o),
(323,854,o),
(323,848,cs),
(323,842,o),
(322,838,o),
(321,834,c),
(321,769,l),
(387,773,o),
(417,798,o),
(417,847,cs),
(417,901,o),
(387,926,o),
(321,930,c),
(321,864,l)
);
},
{
closed = 1;
nodes = (
(203,926,o),
(173,901,o),
(173,847,cs),
(173,798,o),
(203,773,o),
(271,769,c),
(271,832,l),
(269,836,o),
(268,841,o),
(268,848,cs),
(268,856,o),
(269,862,o),
(271,866,c),
(271,930,l)
);
}
);
};
hints = (
{
horizontal = 1;
place = (0,21);
target = up;
type = BottomGhost;
},
{
horizontal = 1;
place = (97,155);
type = Stem;
},
{
horizontal = 1;
place = (728,-20);
target = down;
type = TopGhost;
},
{
horizontal = 1;
place = (758,39);
type = Stem;
},
{
horizontal = 1;
place = (882,39);
type = Stem;
},
{
place = (154,100);
type = Stem;
},
{
place = (298,100);
type = Stem;
}
);
layerId = "58D608FC-F2A7-4C81-9CF8-8074D1767F25";
shapes = (
{
ref = A;
},
{
pos = (295,0);
ref = ringcomb.case;
}
);
width = 590;
}
);
note = Aring;
unicode = 197;
},
{
color = 4;
glyphname = Aringacute;
kernLeft = A;
kernRight = A;
lastChange = "2023-11-24 14:51:42 +0000";
layers = (
{
background = {
anchors = (
{
name = bottom;
pos = (296,-35);
},
{
name = ogonek;
pos = (473,10);
},
{
name = top.case;
pos = (295,740);
}
);
hints = (
{
horizontal = 1;
place = (0,21);
target = up;
type = BottomGhost;
},
{
horizontal = 1;
place = (97,155);
type = Stem;
},
{
horizontal = 1;
place = (728,-20);
target = down;
type = TopGhost;
},
{
horizontal = 1;
place = (758,39);
type = Stem;
},
{
horizontal = 1;
place = (882,39);
type = Stem;
},
{
place = (373,100);
type = Stem;
},
{
place = (517,100);
type = Stem;
},
{
horizontal = 1;
origin = (0,3);
place = (0,120);
type = Stem;
}
);
shapes = (
{
closed = 1;
nodes = (
(264,271,l),
(171,661,l),
(5,0,l),
(214,0,l)
);
},
{
closed = 1;
nodes = (
(331,202,l),
(301,202,l),
(274,47,l),
(367,47,l),
(378,0,l),
(585,0,l),
(418,728,l),
(207,728,l)
);
},
{
closed = 1;
nodes = (
(322,860,o),
(323,854,o),
(323,848,cs),
(323,842,o),
(322,838,o),
(321,834,c),
(321,769,l),
(387,773,o),
(417,798,o),
(417,847,cs),
(417,901,o),
(387,926,o),
(321,930,c),
(321,864,l)
);
},
{
closed = 1;
nodes = (
(203,926,o),
(173,901,o),
(173,847,cs),
(173,798,o),
(203,773,o),
(271,769,c),
(271,832,l),
(269,836,o),
(268,841,o),
(268,848,cs),
(268,856,o),
(269,862,o),
(271,866,c),
(271,930,l)
);
},
{
closed = 1;
nodes = (
(217,864,l),
(368,864,l),
(448,984,l),
(262,984,l)
);
}
);
};
hints = (
{
horizontal = 1;
place = (0,21);
target = up;
type = BottomGhost;
},
{
horizontal = 1;
place = (97,155);
type = Stem;
},
{
horizontal = 1;
place = (728,-20);
target = down;
type = TopGhost;
},
{
horizontal = 1;
place = (758,39);
type = Stem;
},
{
horizontal = 1;
place = (882,39);
type = Stem;
},
{
place = (154,100);
type = Stem;
},
{
place = (298,100);
type = Stem;
},
{
horizontal = 1;
place = (875,120);
type = Stem;
}
);
layerId = "58D608FC-F2A7-4C81-9CF8-8074D1767F25";
shapes = (
{
ref = A;
},
{
pos = (295,0);
ref = ringcomb.case;
},
{
alignment = -1;
pos = (333,93);
ref = acutecomb.case;
}
);
width = 590;
}
);
note = Aringacute;
unicode = 506;
},
{
color = 4;
glyphname = Atilde;
kernLeft = A;
kernRight = A;
lastChange = "2023-11-24 14:51:42 +0000";
layers = (
{
background = {
anchors = (
{
name = bottom;
pos = (296,-35);
},
{
name = ogonek;
pos = (473,10);
},
{
name = top.case;
pos = (295,895);
}
);
hints = (
{
horizontal = 1;
place = (0,21);
target = up;
type = BottomGhost;
},
{
horizontal = 1;
place = (97,155);
type = Stem;
},
{
horizontal = 1;
place = (728,-20);
target = down;
type = TopGhost;
},
{
horizontal = 1;
place = (774,41);
type = Stem;
},
{
horizontal = 1;
place = (815,94);
type = Stem;
}
);
shapes = (
{
closed = 1;
nodes = (
(264,271,l),
(171,661,l),
(5,0,l),
(214,0,l)
);
},
{
closed = 1;
nodes = (
(331,202,l),
(301,202,l),
(274,47,l),
(367,47,l),
(378,0,l),
(585,0,l),
(418,728,l),
(207,728,l)
);
},
{
closed = 1;
nodes = (
(363,909,l),
(363,894,o),
(358,882,o),
(340,882,cs),
(320,882,o),
(286,917,o),
(245,917,cs),
(181,917,o),
(150,873,o),
(150,815,cs),
(150,802,o),
(152,788,o),
(155,774,c),
(226,774,l),
(226,789,o),
(231,801,o),
(249,801,cs),
(269,801,o),
(303,766,o),
(344,766,cs),
(408,766,o),
(439,810,o),
(439,868,cs),
(439,881,o),
(437,895,o),
(434,909,c)
);
}
);
};
hints = (
{
horizontal = 1;
place = (0,21);
target = up;
type = BottomGhost;
},
{
horizontal = 1;
place = (97,155);
type = Stem;
},
{
horizontal = 1;
place = (728,-20);
target = down;
type = TopGhost;
},
{
horizontal = 1;
place = (738,116);
type = Stem;
},
{
horizontal = 1;
place = (773,81);
type = Stem;
},
{
horizontal = 1;
place = (773,116);
type = Stem;
}
);
layerId = "58D608FC-F2A7-4C81-9CF8-8074D1767F25";
shapes = (
{
ref = A;
},
{
pos = (295,0);
ref = tildecomb.case;
}
);
width = 590;
}
);
note = Atilde;
unicode = 195;
},
{
color = 4;
glyphname = AE;
kernLeft = A;
kernRight = E;
lastChange = "2023-11-24 15:09:41 +0000";
layers = (
{
anchors = (
{
name = top.case;
pos = (438,740);
}
);
background = {
anchors = (
{
name = top.case;
pos = (438,740);
}
);
shapes = (
{
closed = 1;
nodes = (
(327,0,l),
(708,0,l),
(738,160,l),
(522,160,l),
(522,290,l),
(659,290,l),
(689,450,l),
(522,450,l),
(522,510,l),
(327,510,l)
);
},
{
closed = 1;
nodes = (
(246,252,l),
(300,560,l),
(302,560,l),
(701,560,l),
(731,720,l),
(122,720,l),
(150,615,l),
(6,0,l),
(197,0,l),
(216,97,l),
(277,97,l),
(277,252,l)
);
}
);
};
hints = (
{
horizontal = 1;
place = (97,155);
type = Stem;
},
{
horizontal = 1;
place = (290,160);
type = Stem;
},
{
horizontal = 1;
place = (560,160);
type = Stem;
},
{
place = (327,195);
type = Stem;
},
{
horizontal = 1;
place = (0,160);
type = Stem;
}
);
layerId = "58D608FC-F2A7-4C81-9CF8-8074D1767F25";
shapes = (
{
closed = 1;
nodes = (
(327,0,l),
(708,0,l),
(738,160,l),
(522,160,l),
(522,290,l),
(659,290,l),
(689,450,l),
(522,450,l),
(522,510,l),
(327,510,l)
);
},
{
closed = 1;
nodes = (
(246,252,l),
(300,560,l),
(701,560,l),
(731,720,l),
(122,720,l),
(150,615,l),
(6,0,l),
(197,0,l),
(216,97,l),
(277,97,l),
(277,252,l)
);
}
);
width = 753;
}
);
metricRight = E;
note = AE;
unicode = 198;
},
{
color = 4;
glyphname = AEacute;
kernLeft = A;
kernRight = E;
lastChange = "2023-11-24 14:51:42 +0000";
layers = (
{
background = {
anchors = (
{
name = top.case;
pos = (438,740);
}
);
hints = (
{
horizontal = 1;
place = (97,155);
type = Stem;
},
{
horizontal = 1;
place = (290,160);
type = Stem;
},
{
horizontal = 1;
place = (560,160);
type = Stem;
},
{
place = (327,195);
type = Stem;
},
{
horizontal = 1;
place = (0,160);
type = Stem;
},
{
horizontal = 1;
origin = (0,9);
place = (510,120);
type = Stem;
}
);
shapes = (
{
closed = 1;
nodes = (
(327,0,l),
(708,0,l),
(738,160,l),
(522,160,l),
(522,290,l),
(659,290,l),
(689,450,l),
(522,450,l),
(522,510,l),
(327,510,l)
);
},
{
closed = 1;
nodes = (
(246,252,l),
(300,560,l),
(302,560,l),
(701,560,l),
(731,720,l),
(122,720,l),
(150,615,l),
(6,0,l),
(197,0,l),
(216,97,l),
(277,97,l),
(277,252,l)
);
},
{
closed = 1;
nodes = (
(360,771,l),
(511,771,l),
(591,891,l),
(405,891,l)
);
}
);
};
hints = (
{
horizontal = 1;
place = (97,155);
type = Stem;
},
{
horizontal = 1;
place = (290,160);
type = Stem;
},
{
horizontal = 1;
place = (560,160);
type = Stem;
},
{
horizontal = 1;
place = (761,120);
type = Stem;
},
{
place = (327,195);
type = Stem;
},
{
horizontal = 1;
place = (0,160);
type = Stem;
}
);
layerId = "58D608FC-F2A7-4C81-9CF8-8074D1767F25";
shapes = (
{
ref = AE;
},
{
pos = (476,0);
ref = acutecomb.case;
}
);
width = 753;
}
);
note = AEacute;
unicode = 508;
},
{
color = 4;
glyphname = B;
kernLeft = B;
lastChange = "2023-11-24 14:51:38 +0000";
layers = (
{
background = {
shapes = (
{
closed = 1;
nodes = (
(377,330,o),
(531,379,o),
(531,530,cs),
(531,650,o),
(461,720,o),
(300,720,cs),
(0,720,l),
(55,583,l),
(259,583,ls),
(319,583,o),
(345,563,o),
(345,503,cs),
(345,444,o),
(319,424,o),
(259,424,cs),
(250,424,l),
(250,533,l),
(55,533,l),
(55,0,l),
(285,0,ls),
(470,0,o),
(560,69,o),
(560,193,cs),
(560,268,o),
(538,318,o),
(482,351,c),
(447,316,o),
(395,296,o),
(334,283,c),
(351,265,o),
(357,246,o),
(357,216,cs),
(357,153,o),
(326,132,o),
(260,132,cs),
(250,132,l),
(250,330,l)
);
}
);
};
hints = (
{
horizontal = 1;
place = (132,0);
type = Stem;
},
{
horizontal = 1;
place = (301,123);
type = Stem;
},
{
horizontal = 1;
place = (583,137);
type = Stem;
},
{
place = (75,195);
type = Stem;
},
{
place = (381,74);
type = Stem;
},
{
place = (260,273);
type = Stem;
}
);
layerId = "58D608FC-F2A7-4C81-9CF8-8074D1767F25";
shapes = (
{
closed = 1;
nodes = (
(377,330,o),
(531,379,o),
(531,530,cs),
(531,650,o),
(461,720,o),
(300,720,cs),
(0,720,l),
(55,583,l),
(259,583,ls),
(319,583,o),
(345,563,o),
(345,503,cs),
(345,444,o),
(319,424,o),
(259,424,cs),
(250,424,l),
(250,533,l),
(55,533,l),
(55,0,l),
(285,0,ls),
(470,0,o),
(560,69,o),
(560,193,cs),
(560,268,o),
(538,318,o),
(482,351,c),
(447,316,o),
(395,296,o),
(334,283,c),
(351,265,o),
(357,246,o),
(357,216,cs),
(357,153,o),
(326,132,o),
(260,132,cs),
(250,132,l),
(250,330,l)
);
}
);
width = 584;
}
);
note = B;
unicode = 66;
},
{
color = 4;
glyphname = C;
kernLeft = C;
kernRight = C;
lastChange = "2023-11-24 14:51:38 +0000";
layers = (
{
anchors = (
{
name = bottom;
pos = (316,-35);
},
{
name = cedilla;
pos = (292,10);
},
{
name = top.case;
pos = (318,740);
}
);
background = {
anchors = (
{
name = bottom;
pos = (316,-35);
},
{
name = cedilla;
pos = (292,10);
},
{
name = top.case;
pos = (318,740);
}
);
shapes = (
{
closed = 1;
nodes = (
(26,105,o),
(117,-10,o),
(337,-10,cs),
(380,-10,o),
(441,-5,o),
(480,4,c),
(480,162,l),
(447,156,o),
(419,152,o),
(387,152,cs),
(285,152,o),
(236,195,o),
(230,331,c),
(20,331,l)
);
},
{
closed = 1;
nodes = (
(233,550,o),
(267,569,o),
(335,569,c),
(351,448,l),
(472,448,l),
(472,712,l),
(420,724,o),
(361,728,o),
(318,728,cs),
(126,728,o),
(26,644,o),
(20,381,c),
(230,381,l)
);
}
);
};
hints = (
{
horizontal = 1;
place = (-10,155);
type = Stem;
},
{
horizontal = 1;
place = (152,296);
type = Stem;
},
{
horizontal = 1;
place = (573,155);
type = Stem;
},
{
place = (-605,210);
type = Stem;
},
{
place = (-269,210);
type = Stem;
},
{
place = (323,62);
type = Stem;
},
{
place = (337,0);
type = Stem;
},
{
place = (356,210);
type = Stem;
}
);
layerId = "58D608FC-F2A7-4C81-9CF8-8074D1767F25";
shapes = (
{
closed = 1;
nodes = (
(26,105,o),
(117,-10,o),
(337,-10,cs),
(380,-10,o),
(441,-5,o),
(480,4,c),
(480,162,l),
(447,156,o),
(419,152,o),
(387,152,cs),
(285,152,o),
(236,195,o),
(230,331,c),
(20,331,l)
);
},
{
closed = 1;
nodes = (
(233,550,o),
(267,569,o),
(335,569,c),
(351,448,l),
(472,448,l),
(472,712,l),
(420,724,o),
(361,728,o),
(318,728,cs),
(126,728,o),
(26,644,o),
(20,381,c),
(230,381,l)
);
}
);
width = 505;
}
);
note = C;
unicode = 67;
},
{
color = 4;
glyphname = Cacute;
kernLeft = C;
kernRight = C;
lastChange = "2023-11-24 14:51:42 +0000";
layers = (
{
background = {
anchors = (
{
name = bottom;
pos = (316,-35);
},
{
name = cedilla;
pos = (292,10);
},
{
name = top.case;
pos = (318,740);
}
);
hints = (
{
horizontal = 1;
place = (-10,155);
type = Stem;
},
{
horizontal = 1;
place = (152,296);
type = Stem;
},
{
horizontal = 1;
place = (573,155);
type = Stem;
},
{
place = (-605,210);
type = Stem;
},
{
place = (-269,210);
type = Stem;
},
{
place = (323,62);
type = Stem;
},
{
place = (337,0);
type = Stem;
},
{
place = (356,210);
type = Stem;
},
{
horizontal = 1;
origin = (0,13);
place = (331,120);
type = Stem;
}
);
shapes = (
{
closed = 1;
nodes = (
(26,105,o),
(117,-10,o),
(337,-10,cs),
(380,-10,o),
(441,-5,o),
(480,4,c),
(480,162,l),
(447,156,o),
(419,152,o),
(387,152,cs),
(285,152,o),
(236,195,o),
(230,331,c),
(20,331,l)
);
},
{
closed = 1;
nodes = (
(233,550,o),
(267,569,o),
(335,569,c),
(351,448,l),
(472,448,l),
(472,712,l),
(420,724,o),
(361,728,o),
(318,728,cs),
(126,728,o),
(26,644,o),
(20,381,c),
(230,381,l)
);
},
{
closed = 1;
nodes = (
(240,771,l),
(391,771,l),
(471,891,l),
(285,891,l)
);
}
);
};
hints = (
{
horizontal = 1;
place = (-10,155);
type = Stem;
},
{
horizontal = 1;
place = (152,296);
type = Stem;
},
{
horizontal = 1;
place = (573,155);
type = Stem;
},
{
horizontal = 1;
place = (761,120);
type = Stem;
},
{
place = (-605,210);
type = Stem;
},
{
place = (-269,210);
type = Stem;
},
{
place = (323,62);
type = Stem;
},
{
place = (337,0);
type = Stem;
},
{
place = (356,210);
type = Stem;
}
);
layerId = "58D608FC-F2A7-4C81-9CF8-8074D1767F25";
shapes = (
{
ref = C;
},
{
pos = (356,0);
ref = acutecomb.case;
}
);
width = 505;
}
);
note = Cacute;
unicode = 262;
},
{
color = 4;
glyphname = Ccaron;
kernLeft = C;
kernRight = C;
lastChange = "2023-11-24 14:51:42 +0000";
layers = (
{
background = {
anchors = (
{
name = bottom;
pos = (316,-35);
},
{
name = cedilla;
pos = (292,10);
},
{
name = top.case;
pos = (318,740);
}
);
hints = (
{
horizontal = 1;
place = (-10,155);
type = Stem;
},
{
horizontal = 1;
place = (152,296);
type = Stem;
},
{
horizontal = 1;
place = (573,155);
type = Stem;
},
{
place = (-605,210);
type = Stem;
},
{
place = (-269,210);
type = Stem;
},
{
place = (323,62);
type = Stem;
},
{
place = (337,0);
type = Stem;
},
{
place = (356,210);
type = Stem;
},
{
horizontal = 1;
place = (746,120);
type = Stem;
},
{
horizontal = 1;
origin = (0,13);
place = (331,-120);
type = Stem;
}
);
shapes = (
{
closed = 1;
nodes = (
(26,105,o),
(117,-10,o),
(337,-10,cs),
(380,-10,o),
(441,-5,o),
(480,4,c),
(480,162,l),
(447,156,o),
(419,152,o),
(387,152,cs),
(285,152,o),
(236,195,o),
(230,331,c),
(20,331,l)
);
},
{
closed = 1;
nodes = (
(233,550,o),
(267,569,o),
(335,569,c),
(351,448,l),
(472,448,l),
(472,712,l),
(420,724,o),
(361,728,o),
(318,728,cs),
(126,728,o),
(26,644,o),
(20,381,c),
(230,381,l)
);
},
{
closed = 1;
nodes = (
(297,868,l),
(273,891,l),
(149,891,l),
(235,796,l)
);
},
{
closed = 1;
nodes = (
(379,771,l),
(487,891,l),
(368,891,l),
(268,771,l)
);
}
);
};
hints = (
{
horizontal = 1;
place = (-10,155);
type = Stem;
},
{
horizontal = 1;
place = (152,296);
type = Stem;
},
{
horizontal = 1;
place = (573,155);
type = Stem;
},
{
horizontal = 1;
place = (746,120);
type = Stem;
},
{
place = (-605,210);
type = Stem;
},
{
place = (-269,210);
type = Stem;
},
{
place = (323,62);
type = Stem;
},
{
place = (337,0);
type = Stem;
},
{
place = (356,210);
type = Stem;
}
);
layerId = "58D608FC-F2A7-4C81-9CF8-8074D1767F25";
shapes = (
{
ref = C;
},
{
pos = (318,0);
ref = caroncomb.case;
}
);
width = 505;
}
);
note = Ccaron;
unicode = 268;
},
{
color = 4;
glyphname = Ccedilla;
kernLeft = C;
kernRight = C;
lastChange = "2023-11-24 14:51:42 +0000";
layers = (
{
background = {
anchors = (
{
name = bottom;
pos = (316,-35);
},
{
name = cedilla;
pos = (292,10);
},
{
name = top.case;
pos = (318,740);
}
);
hints = (
{
horizontal = 1;
place = (-10,155);
type = Stem;
},
{
horizontal = 1;
place = (152,296);
type = Stem;
},
{
horizontal = 1;
place = (573,155);
type = Stem;
},
{
place = (-605,210);
type = Stem;
},
{
place = (-269,210);
type = Stem;
},
{
place = (323,62);
type = Stem;
},
{
place = (337,0);
type = Stem;
},
{
place = (356,210);
type = Stem;
},
{
horizontal = 1;
place = (-160,63);
type = Stem;
},
{
horizontal = 1;
place = (55,-20);
target = down;
type = TopGhost;
},
{
place = (249,111);
type = Stem;
}
);
shapes = (
{
closed = 1;
nodes = (
(26,105,o),
(117,-10,o),
(337,-10,cs),
(380,-10,o),
(441,-5,o),
(480,4,c),
(480,162,l),
(447,156,o),
(419,152,o),
(387,152,cs),
(285,152,o),
(236,195,o),
(230,331,c),
(20,331,l)
);
},
{
closed = 1;
nodes = (
(233,550,o),
(267,569,o),
(335,569,c),
(351,448,l),
(472,448,l),
(472,712,l),
(420,724,o),
(361,728,o),
(318,728,cs),
(126,728,o),
(26,644,o),
(20,381,c),
(230,381,l)
);
},
{
closed = 1;
nodes = (
(240,-69,o),
(227,-77,o),
(205,-77,cs),
(192,-77,o),
(176,-74,o),
(163,-72,c),
(163,-154,l),
(192,-159,o),
(218,-160,o),
(240,-160,cs),
(304,-160,o),
(359,-134,o),
(359,-58,cs),
(359,-55,o),
(359,-53,o),
(359,-50,c),
(246,-50,l)
);
}
);
};
hints = (
{
horizontal = 1;
place = (-160,63);
type = Stem;
},
{
horizontal = 1;
place = (-10,155);
type = Stem;
},
{
horizontal = 1;
place = (152,296);
type = Stem;
},
{
horizontal = 1;
place = (573,155);
type = Stem;
},
{
place = (-605,210);
type = Stem;
},
{
place = (-269,210);
type = Stem;
},
{
place = (290,111);
type = Stem;
}
);
layerId = "58D608FC-F2A7-4C81-9CF8-8074D1767F25";
shapes = (
{
ref = C;
},
{
pos = (262,0);
ref = cedillacomb;
}
);
width = 505;
}
);
note = Ccedilla;
unicode = 199;
},
{
color = 4;
glyphname = Ccircumflex;
kernLeft = C;
kernRight = C;
lastChange = "2023-11-24 14:51:42 +0000";
layers = (
{
background = {
anchors = (
{
name = bottom;
pos = (316,-35);
},
{
name = cedilla;
pos = (292,10);
},
{
name = top.case;
pos = (318,889);
}
);
hints = (
{
horizontal = 1;
place = (-10,155);
type = Stem;
},
{
horizontal = 1;
place = (152,296);
type = Stem;
},
{
horizontal = 1;
place = (573,155);
type = Stem;
},
{
place = (-605,210);
type = Stem;
},
{
place = (-269,210);
type = Stem;
},
{
place = (323,62);
type = Stem;
},
{
place = (337,0);
type = Stem;
},
{
place = (356,210);
type = Stem;
},
{
horizontal = 1;
place = (761,120);
type = Stem;
}
);
shapes = (
{
closed = 1;
nodes = (
(26,105,o),
(117,-10,o),
(337,-10,cs),
(380,-10,o),
(441,-5,o),
(480,4,c),
(480,162,l),
(447,156,o),
(419,152,o),
(387,152,cs),
(285,152,o),
(236,195,o),
(230,331,c),
(20,331,l)
);
},
{
closed = 1;
nodes = (
(233,550,o),
(267,569,o),
(335,569,c),
(351,448,l),
(472,448,l),
(472,712,l),
(420,724,o),
(361,728,o),
(318,728,cs),
(126,728,o),
(26,644,o),
(20,381,c),
(230,381,l)
);
},
{
closed = 1;
nodes = (
(149,771,l),
(273,771,l),
(297,794,l),
(235,866,l)
);
},
{
closed = 1;
nodes = (
(368,771,l),
(487,771,l),
(379,891,l),
(268,891,l)
);
}
);
};
hints = (
{
horizontal = 1;
place = (-10,155);
type = Stem;
},
{
horizontal = 1;
place = (152,296);
type = Stem;
},
{
horizontal = 1;
place = (573,155);
type = Stem;
},
{
horizontal = 1;
place = (761,120);
type = Stem;
},
{
place = (-605,210);
type = Stem;
},
{
place = (-269,210);
type = Stem;
},
{
place = (323,62);
type = Stem;
},
{
place = (337,0);
type = Stem;
},
{
place = (356,210);
type = Stem;
}
);
layerId = "58D608FC-F2A7-4C81-9CF8-8074D1767F25";
shapes = (
{
ref = C;
},
{
pos = (318,0);
ref = circumflexcomb.case;
}
);
width = 505;
}
);
note = Ccircumflex;
unicode = 264;
},
{
color = 4;
glyphname = Cdotaccent;
kernLeft = C;
kernRight = C;
lastChange = "2023-11-24 14:51:42 +0000";
layers = (
{
background = {
anchors = (
{
name = bottom;
pos = (316,-35);
},
{
name = cedilla;
pos = (292,10);
},
{
name = top.case;
pos = (318,895);
}
);
hints = (
{
horizontal = 1;
place = (-10,155);
type = Stem;
},
{
horizontal = 1;
place = (152,296);
type = Stem;
},
{
horizontal = 1;
place = (573,155);
type = Stem;
},
{
place = (-605,210);
type = Stem;
},
{
place = (-269,210);
type = Stem;
},
{
place = (323,62);
type = Stem;
},
{
place = (337,0);
type = Stem;
},
{
place = (356,210);
type = Stem;
},
{
horizontal = 1;
place = (753,165);
type = Stem;
},
{
place = (430,176);
type = Stem;
},
{
horizontal = 1;
place = (764,173);
type = Stem;
},
{
place = (223,190);
type = Stem;
}
);
shapes = (
{
closed = 1;
nodes = (
(26,105,o),
(117,-10,o),
(337,-10,cs),
(380,-10,o),
(441,-5,o),
(480,4,c),
(480,162,l),
(447,156,o),
(419,152,o),
(387,152,cs),
(285,152,o),
(236,195,o),
(230,331,c),
(20,331,l)
);
},
{
closed = 1;
nodes = (
(233,550,o),
(267,569,o),
(335,569,c),
(351,448,l),
(472,448,l),
(472,712,l),
(420,724,o),
(361,728,o),
(318,728,cs),
(126,728,o),
(26,644,o),
(20,381,c),
(230,381,l)
);
},
{
closed = 1;
nodes = (
(223,777,l),
(413,777,l),
(413,913,l),
(223,913,l)
);
}
);
};
hints = (
{
horizontal = 1;
place = (-10,155);
type = Stem;
},
{
horizontal = 1;
place = (152,296);
type = Stem;
},
{
horizontal = 1;
place = (573,155);
type = Stem;
},
{
horizontal = 1;
place = (753,165);
type = Stem;
},
{
place = (-605,210);
type = Stem;
},
{
place = (-269,210);
type = Stem;
},
{
place = (323,62);
type = Stem;
},
{
place = (337,0);
type = Stem;
},
{
place = (356,210);
type = Stem;
}
);
layerId = "58D608FC-F2A7-4C81-9CF8-8074D1767F25";
shapes = (
{
ref = C;
},
{
pos = (318,0);
ref = dotaccentcomb.case;
}
);
width = 505;
}
);
note = Cdotaccent;
unicode = 266;
},
{
color = 4;
glyphname = D;
kernLeft = B;
kernRight = D;
lastChange = "2023-11-24 14:51:38 +0000";
layers = (
{
anchors = (
{
name = top.case;
pos = (281,740);
}
);
background = {
anchors = (
{
name = top.case;
pos = (281,740);
}
);
shapes = (
{
closed = 1;
nodes = (
(281,560,l),
(350,560,o),
(370,524,o),
(370,374,cs),
(370,227,o),
(350,172,o),
(300,162,c),
(300,0,l),
(501,2,o),
(580,92,o),
(580,374,cs),
(580,637,o),
(499,720,o),
(293,720,cs),
(0,720,l),
(55,560,l)
);
},
{
closed = 1;
nodes = (
(250,0,l),
(250,510,l),
(55,510,l),
(55,0,l)
);
}
);
};
hints = (
{
horizontal = 1;
place = (0,160);
type = Stem;
},
{
horizontal = 1;
place = (560,160);
type = Stem;
},
{
place = (55,195);
type = Stem;
},
{
place = (370,210);
type = Stem;
}
);
layerId = "58D608FC-F2A7-4C81-9CF8-8074D1767F25";
shapes = (
{
closed = 1;
nodes = (
(281,560,l),
(350,560,o),
(370,524,o),
(370,374,cs),
(370,227,o),
(350,172,o),
(300,162,c),
(300,0,l),
(501,2,o),
(580,92,o),
(580,374,cs),
(580,637,o),
(499,720,o),
(293,720,cs),
(0,720,l),
(55,560,l)
);
},
{
closed = 1;
nodes = (
(250,0,l),
(250,510,l),
(55,510,l),
(55,0,l)
);
}
);
width = 600;
}
);
note = D;
unicode = 68;
},
{
color = 4;
glyphname = DZcaron;
lastChange = "2023-11-24 14:51:42 +0000";
layers = (
{
background = {
anchors = (
{
name = bottom;
pos = (864,-35);
},
{
name = top.case;
pos = (853,740);
}
);
hints = (
{
horizontal = 1;
place = (0,160);
type = Stem;
},
{
horizontal = 1;
place = (560,160);
type = Stem;
},
{
place = (55,195);
type = Stem;
},
{
place = (370,210);
type = Stem;
},
{
horizontal = 1;
place = (0,160);
type = Stem;
},
{
horizontal = 1;
place = (560,160);
type = Stem;
},
{
horizontal = 1;
place = (746,120);
type = Stem;
},
{
horizontal = 1;
place = (0,160);
type = Stem;
},
{
horizontal = 1;
place = (560,160);
type = Stem;
},
{
horizontal = 1;
place = (746,120);
type = Stem;
},
{
horizontal = 1;
origin = (0,15);
place = (560,-120);
type = Stem;
}
);
shapes = (
{
closed = 1;
nodes = (
(281,560,l),
(350,560,o),
(370,524,o),
(370,374,cs),
(370,227,o),
(350,172,o),
(300,162,c),
(300,0,l),
(501,2,o),
(580,92,o),
(580,374,cs),
(580,637,o),
(499,720,o),
(293,720,cs),
(0,720,l),
(55,560,l)
);
},
{
closed = 1;
nodes = (
(250,0,l),
(250,510,l),
(55,510,l),
(55,0,l)
);
},
{
closed = 1;
nodes = (
(1091,0,l),
(1091,160,l),
(912,160,l),
(827,0,l)
);
},
{
closed = 1;
nodes = (
(625,720,l),
(625,560,l),
(789,560,l),
(874,720,l)
);
},
{
closed = 1;
nodes = (
(1086,599,l),
(1086,720,l),
(929,720,l),
(615,121,l),
(615,0,l),
(771,0,l)
);
},
{
closed = 1;
nodes = (
(832,868,l),
(808,891,l),
(684,891,l),
(770,796,l)
);
},
{
closed = 1;
nodes = (
(914,771,l),
(1022,891,l),
(903,891,l),
(803,771,l)
);
}
);
};
layerId = "58D608FC-F2A7-4C81-9CF8-8074D1767F25";
shapes = (
{
ref = D;
},
{
pos = (600,0);
ref = Zcaron;
}
);
width = 1106;
}
);
unicode = 452;
},
{
color = 4;
glyphname = Dcaron;
kernLeft = B;
kernRight = D;
lastChange = "2023-11-24 14:51:42 +0000";
layers = (
{
background = {
anchors = (
{
name = top.case;
pos = (281,740);
}
);
hints = (
{
horizontal = 1;
place = (0,160);
type = Stem;
},
{
horizontal = 1;
place = (560,160);
type = Stem;
},
{
place = (55,195);
type = Stem;
},
{
place = (370,210);
type = Stem;
},
{
horizontal = 1;
place = (746,120);
type = Stem;
},
{
horizontal = 1;
origin = (0,15);
place = (560,-120);
type = Stem;
}
);
shapes = (
{
closed = 1;
nodes = (
(281,560,l),
(350,560,o),
(370,524,o),
(370,374,cs),
(370,227,o),
(350,172,o),
(300,162,c),
(300,0,l),
(501,2,o),
(580,92,o),
(580,374,cs),
(580,637,o),
(499,720,o),
(293,720,cs),
(0,720,l),
(55,560,l)
);
},
{
closed = 1;
nodes = (
(250,0,l),
(250,510,l),
(55,510,l),
(55,0,l)
);
},
{
closed = 1;
nodes = (
(260,868,l),
(236,891,l),
(112,891,l),
(198,796,l)
);
},
{
closed = 1;
nodes = (
(342,771,l),
(450,891,l),
(331,891,l),
(231,771,l)
);
}
);
};
hints = (
{
horizontal = 1;
place = (0,160);
type = Stem;
},
{
horizontal = 1;
place = (560,160);
type = Stem;
},
{
horizontal = 1;
place = (746,120);
type = Stem;
},
{
place = (55,195);
type = Stem;
},
{
place = (370,210);
type = Stem;
}
);
layerId = "58D608FC-F2A7-4C81-9CF8-8074D1767F25";
shapes = (
{
ref = D;
},
{
pos = (281,0);
ref = caroncomb.case;
}
);
width = 600;
}
);
note = Dcaron;
unicode = 270;
},
{
color = 4;
glyphname = Dcroat;
kernLeft = Dcroat;
kernRight = D;
lastChange = "2023-11-24 14:51:42 +0000";
layers = (
{
background = {
anchors = (
{
name = top.case;
pos = (281,740);
}
);
hints = (
{
horizontal = 1;
place = (0,160);
type = Stem;
},
{
horizontal = 1;
place = (323,83);
type = Stem;
},
{
horizontal = 1;
place = (560,160);
type = Stem;
},
{
place = (63,195);
type = Stem;
},
{
place = (378,210);
type = Stem;
},
{
horizontal = 1;
place = (0,160);
type = Stem;
},
{
horizontal = 1;
place = (560,160);
type = Stem;
},
{
place = (55,195);
type = Stem;
},
{
place = (370,210);
type = Stem;
}
);
shapes = (
{
closed = 1;
nodes = (
(319,323,l),
(319,406,l),
(13,406,l),
(13,323,l)
);
},
{
closed = 1;
nodes = (
(55,0,l),
(293,0,ls),
(499,0,o),
(580,89,o),
(580,374,cs),
(580,637,o),
(499,720,o),
(293,720,cs),
(0,720,l),
(55,583,l),
(55,456,l),
(250,456,l),
(250,560,l),
(281,560,ls),
(350,560,o),
(370,524,o),
(370,374,cs),
(370,210,o),
(345,160,o),
(281,160,cs),
(250,160,l),
(250,273,l),
(55,273,l)
);
}
);
};
hints = (
{
horizontal = 1;
place = (0,160);
type = Stem;
},
{
horizontal = 1;
place = (323,83);
type = Stem;
},
{
horizontal = 1;
place = (560,160);
type = Stem;
},
{
place = (63,195);
type = Stem;
},
{
place = (378,210);
type = Stem;
}
);
layerId = "58D608FC-F2A7-4C81-9CF8-8074D1767F25";
shapes = (
{
ref = Eth;
}
);
width = 600;
}
);
note = Dcroat;
unicode = 272;
},
{
color = 4;
glyphname = Dzcaron;
lastChange = "2023-11-24 14:51:42 +0000";
layers = (
{
background = {
anchors = (
{
name = bottom;
pos = (836,-35);
},
{
name = top;
pos = (841,605);
},
{
name = top.case;
pos = (281,740);
}
);
hints = (
{
horizontal = 1;
place = (0,160);
type = Stem;
},
{
horizontal = 1;
place = (560,160);
type = Stem;
},
{
place = (55,195);
type = Stem;
},
{
place = (370,210);
type = Stem;
},
{
horizontal = 1;
place = (0,140);
type = Stem;
},
{
horizontal = 1;
place = (435,140);
type = Stem;
},
{
horizontal = 1;
place = (620,149);
type = Stem;
},
{
horizontal = 1;
place = (0,140);
type = Stem;
},
{
horizontal = 1;
place = (435,140);
type = Stem;
},
{
horizontal = 1;
place = (620,149);
type = Stem;
},
{
horizontal = 1;
origin = (0,15);
place = (560,-149);
type = Stem;
}
);
shapes = (
{
closed = 1;
nodes = (
(281,560,l),
(350,560,o),
(370,524,o),
(370,374,cs),
(370,227,o),
(350,172,o),
(300,162,c),
(300,0,l),
(501,2,o),
(580,92,o),
(580,374,cs),
(580,637,o),
(499,720,o),
(293,720,cs),
(0,720,l),
(55,560,l)
);
},
{
closed = 1;
nodes = (
(250,0,l),
(250,510,l),
(55,510,l),
(55,0,l)
);
},
{
closed = 1;
nodes = (
(1027,0,l),
(1027,140,l),
(896,140,l),
(821,0,l)
);
},
{
closed = 1;
nodes = (
(637,575,l),
(637,435,l),
(752,435,l),
(828,575,l)
);
},
{
closed = 1;
nodes = (
(1018,469,l),
(1018,575,l),
(880,575,l),
(630,110,l),
(630,0,l),
(770,2,l)
);
},
{
closed = 1;
nodes = (
(822,745,l),
(802,769,l),
(671,769,l),
(761,646,l)
);
},
{
closed = 1;
nodes = (
(805,620,l),
(902,620,l),
(1011,769,l),
(898,769,l)
);
}
);
};
layerId = "58D608FC-F2A7-4C81-9CF8-8074D1767F25";
shapes = (
{
ref = D;
},
{
pos = (600,0);
ref = zcaron;
}
);
width = 1057;
}
);
unicode = 453;
},
{
color = 4;
glyphname = Eth;
kernLeft = Dcroat;
kernRight = D;
lastChange = "2023-11-24 14:51:38 +0000";
layers = (
{
anchors = (
{
name = top.case;
pos = (281,740);
}
);
background = {
anchors = (
{
name = top.case;
pos = (281,740);
}
);
shapes = (
{
closed = 1;
nodes = (
(319,323,l),
(319,406,l),
(13,406,l),
(13,323,l)
);
},
{
closed = 1;
nodes = (
(55,0,l),
(293,0,ls),
(499,0,o),
(580,89,o),
(580,374,cs),
(580,637,o),
(499,720,o),
(293,720,cs),
(0,720,l),
(55,583,l),
(55,456,l),
(250,456,l),
(250,560,l),
(281,560,ls),
(350,560,o),
(370,524,o),
(370,374,cs),
(370,210,o),
(345,160,o),
(281,160,cs),
(250,160,l),
(250,273,l),
(55,273,l)
);
}
);
};
hints = (
{
horizontal = 1;
place = (0,160);
type = Stem;
},
{
horizontal = 1;
place = (323,83);
type = Stem;
},
{
horizontal = 1;
place = (560,160);
type = Stem;
},
{
place = (63,195);
type = Stem;
},
{
place = (378,210);
type = Stem;
},
{
horizontal = 1;
place = (0,160);
type = Stem;
},
{
horizontal = 1;
place = (560,160);
type = Stem;
},
{
place = (55,195);
type = Stem;
},
{
place = (370,210);
type = Stem;
}
);
layerId = "58D608FC-F2A7-4C81-9CF8-8074D1767F25";
shapes = (
{
closed = 1;
nodes = (
(319,323,l),
(319,406,l),
(13,406,l),
(13,323,l)
);
},
{
closed = 1;
nodes = (
(55,0,l),
(293,0,ls),
(499,0,o),
(580,89,o),
(580,374,cs),
(580,637,o),
(499,720,o),
(293,720,cs),
(0,720,l),
(55,583,l),
(55,456,l),
(250,456,l),
(250,560,l),
(281,560,ls),
(350,560,o),
(370,524,o),
(370,374,cs),
(370,210,o),
(345,160,o),
(281,160,cs),
(250,160,l),
(250,273,l),
(55,273,l)
);
}
);
width = 600;
},
{
associatedMasterId = "58D608FC-F2A7-4C81-9CF8-8074D1767F25";
background = {
shapes = (
{
closed = 1;
nodes = (
(0,720,l),
(55,583,l),
(55,406,l),
(13,406,l),
(13,323,l),
(55,323,l),
(55,0,l),
(293,0,ls),
(499,0,o),
(580,89,o),
(580,374,cs),
(580,637,o),
(499,720,o),
(293,720,cs)
);
},
{
closed = 1;
nodes = (
(250,160,l),
(250,323,l),
(326,323,l),
(326,406,l),
(250,406,l),
(250,560,l),
(281,560,ls),
(350,560,o),
(370,524,o),
(370,374,cs),
(370,210,o),
(345,160,o),
(281,160,cs)
);
}
);
};
hints = (
{
horizontal = 1;
place = (0,160);
type = Stem;
},
{
horizontal = 1;
place = (323,83);
type = Stem;
},
{
horizontal = 1;
place = (560,160);
type = Stem;
},
{
place = (63,195);
type = Stem;
},
{
place = (378,210);
type = Stem;
}
);
layerId = "E3D865F6-C352-499C-9E7A-008FF679604A";
name = "Jul 21 20, 14:36";
shapes = (
{
closed = 1;
nodes = (
(319,323,l),
(319,406,l),
(13,406,l),
(13,323,l)
);
},
{
ref = D;
}
);
width = 600;
}
);
metricRight = D;
note = Eth;
unicode = 208;
},
{
color = 4;
glyphname = E;
kernLeft = B;
kernRight = E;
lastChange = "2023-11-24 14:51:38 +0000";
layers = (
{
anchors = (
{
name = bottom;
pos = (276,-35);
},
{
name = ogonek;
pos = (384,10);
},
{
name = top.case;
pos = (259,740);
}
);
background = {
anchors = (
{
name = bottom;
pos = (276,-35);
},
{
name = ogonek;
pos = (384,10);
},
{
name = top.case;
pos = (259,740);
}
);
shapes = (
{
closed = 1;
nodes = (
(55,0,l),
(456,0,l),
(486,160,l),
(250,160,l),
(250,290,l),
(407,290,l),
(437,450,l),
(250,450,l),
(250,510,l),
(55,510,l)
);
},
{
closed = 1;
nodes = (
(449,560,l),
(479,720,l),
(0,720,l),
(64,560,l)
);
}
);
};
guides = (
{
angle = 90;
pos = (486,-38);
}
);
hints = (
{
horizontal = 1;
place = (0,160);
type = Stem;
},
{
horizontal = 1;
place = (290,160);
type = Stem;
},
{
horizontal = 1;
place = (560,160);
type = Stem;
},
{
place = (55,195);
type = Stem;
}
);
layerId = "58D608FC-F2A7-4C81-9CF8-8074D1767F25";
shapes = (
{
closed = 1;
nodes = (
(55,0,l),
(456,0,l),
(486,160,l),
(250,160,l),
(250,290,l),
(407,290,l),
(437,450,l),
(250,450,l),
(250,510,l),
(55,510,l)
);
},
{
closed = 1;
nodes = (
(449,560,l),
(479,720,l),
(0,720,l),
(64,560,l)
);
}
);
width = 501;
}
);
note = E;
unicode = 69;
},
{
color = 4;
glyphname = Eacute;
kernLeft = B;
kernRight = E;
lastChange = "2023-11-24 14:51:42 +0000";
layers = (
{
background = {
anchors = (
{
name = bottom;
pos = (276,-35);
},
{
name = ogonek;
pos = (384,10);
},
{
name = top.case;
pos = (259,740);
}
);
hints = (
{
horizontal = 1;
place = (0,160);
type = Stem;
},
{
horizontal = 1;
place = (290,160);
type = Stem;
},
{
horizontal = 1;
place = (560,160);
type = Stem;
},
{
place = (55,195);
type = Stem;
},
{
horizontal = 1;
origin = (0,9);
place = (510,120);
type = Stem;
}
);
shapes = (
{
closed = 1;
nodes = (
(55,0,l),
(456,0,l),
(486,160,l),
(250,160,l),
(250,290,l),
(407,290,l),
(437,450,l),
(250,450,l),
(250,510,l),
(55,510,l)
);
},
{
closed = 1;
nodes = (
(449,560,l),
(479,720,l),
(0,720,l),
(64,560,l)
);
},
{
closed = 1;
nodes = (
(181,771,l),
(332,771,l),
(412,891,l),
(226,891,l)
);
}
);
};
hints = (
{
horizontal = 1;
place = (0,160);
type = Stem;
},
{
horizontal = 1;
place = (290,160);
type = Stem;
},
{
horizontal = 1;
place = (560,160);
type = Stem;
},
{
horizontal = 1;
place = (761,120);
type = Stem;
},
{
place = (55,195);
type = Stem;
}
);
layerId = "58D608FC-F2A7-4C81-9CF8-8074D1767F25";
shapes = (
{
ref = E;
},
{
pos = (297,0);
ref = acutecomb.case;
}
);
width = 501;
}
);
note = Eacute;
unicode = 201;
},
{
color = 4;
glyphname = Ebreve;
kernLeft = B;
kernRight = E;
lastChange = "2023-11-24 14:51:42 +0000";
layers = (
{
background = {
anchors = (
{
name = bottom;
pos = (276,-35);
},
{
name = ogonek;
pos = (384,10);
},
{
name = top.case;
pos = (259,906);
}
);
hints = (
{
horizontal = 1;
place = (0,160);
type = Stem;
},
{
horizontal = 1;
place = (290,160);
type = Stem;
},
{
horizontal = 1;
place = (560,160);
type = Stem;
},
{
place = (55,195);
type = Stem;
},
{
horizontal = 1;
place = (746,104);
type = Stem;
},
{
horizontal = 1;
place = (746,142);
type = Stem;
}
);
shapes = (
{
closed = 1;
nodes = (
(55,0,l),
(456,0,l),
(486,160,l),
(250,160,l),
(250,290,l),
(407,290,l),
(437,450,l),
(250,450,l),
(250,510,l),
(55,510,l)
);
},
{
closed = 1;
nodes = (
(449,560,l),
(479,720,l),
(0,720,l),
(64,560,l)
);
},
{
closed = 1;
nodes = (
(361,771,o),
(402,814,o),
(412,911,c),
(326,911,l),
(315,883,o),
(295,870,o),
(259,870,cs),
(223,870,o),
(203,883,o),
(192,911,c),
(106,911,l),
(116,814,o),
(157,771,o),
(259,771,cs)
);
}
);
};
hints = (
{
horizontal = 1;
place = (0,160);
type = Stem;
},
{
horizontal = 1;
place = (290,160);
type = Stem;
},
{
horizontal = 1;
place = (560,160);
type = Stem;
},
{
horizontal = 1;
place = (746,104);
type = Stem;
},
{
horizontal = 1;
place = (746,142);
type = Stem;
},
{
place = (55,195);
type = Stem;
}
);
layerId = "58D608FC-F2A7-4C81-9CF8-8074D1767F25";
shapes = (
{
ref = E;
},
{
pos = (259,0);
ref = brevecomb.case;
}
);
width = 501;
}
);
note = Ebreve;
unicode = 276;
},
{
color = 4;
glyphname = Ecaron;
kernLeft = B;
kernRight = E;
lastChange = "2023-11-24 14:51:42 +0000";
layers = (
{
background = {
anchors = (
{
name = bottom;
pos = (276,-35);
},
{
name = ogonek;
pos = (384,10);
},
{
name = top.case;
pos = (259,740);
}
);
hints = (
{
horizontal = 1;
place = (0,160);
type = Stem;
},
{
horizontal = 1;
place = (290,160);
type = Stem;
},
{
horizontal = 1;
place = (560,160);
type = Stem;
},
{
place = (55,195);
type = Stem;
},
{
horizontal = 1;
place = (746,120);
type = Stem;
},
{
horizontal = 1;
origin = (0,9);
place = (510,-120);
type = Stem;
}
);
shapes = (
{
closed = 1;
nodes = (
(55,0,l),
(456,0,l),
(486,160,l),
(250,160,l),
(250,290,l),
(407,290,l),
(437,450,l),
(250,450,l),
(250,510,l),
(55,510,l)
);
},
{
closed = 1;
nodes = (
(449,560,l),
(479,720,l),
(0,720,l),
(64,560,l)
);
},
{
closed = 1;
nodes = (
(238,868,l),
(214,891,l),
(90,891,l),
(176,796,l)
);
},
{
closed = 1;
nodes = (
(320,771,l),
(428,891,l),
(309,891,l),
(209,771,l)
);
}
);
};
hints = (
{
horizontal = 1;
place = (0,160);
type = Stem;
},
{
horizontal = 1;
place = (290,160);
type = Stem;
},
{
horizontal = 1;
place = (560,160);
type = Stem;
},
{
horizontal = 1;
place = (746,120);
type = Stem;
},
{
place = (55,195);
type = Stem;
}
);
layerId = "58D608FC-F2A7-4C81-9CF8-8074D1767F25";
shapes = (
{
ref = E;
},
{
pos = (259,0);
ref = caroncomb.case;
}
);
width = 501;
}
);
note = Ecaron;
unicode = 282;
},
{
color = 4;
glyphname = Ecircumflex;
kernLeft = B;
kernRight = E;
lastChange = "2023-11-24 14:51:42 +0000";
layers = (
{
background = {
anchors = (
{
name = bottom;
pos = (276,-35);
},
{
name = ogonek;
pos = (384,10);
},
{
name = top.case;
pos = (259,889);
}
);
hints = (
{
horizontal = 1;
place = (0,160);
type = Stem;
},
{
horizontal = 1;
place = (290,160);
type = Stem;
},
{
horizontal = 1;
place = (560,160);
type = Stem;
},
{
place = (55,195);
type = Stem;
},
{
horizontal = 1;
place = (761,120);
type = Stem;
}
);
shapes = (
{
closed = 1;
nodes = (
(55,0,l),
(456,0,l),
(486,160,l),
(250,160,l),
(250,290,l),
(407,290,l),
(437,450,l),
(250,450,l),
(250,510,l),
(55,510,l)
);
},
{
closed = 1;
nodes = (
(449,560,l),
(479,720,l),
(0,720,l),
(64,560,l)
);
},
{
closed = 1;
nodes = (
(90,771,l),
(214,771,l),
(238,794,l),
(176,866,l)
);
},
{
closed = 1;
nodes = (
(309,771,l),
(428,771,l),
(320,891,l),
(209,891,l)
);
}
);
};
hints = (
{
horizontal = 1;
place = (0,160);
type = Stem;
},
{
horizontal = 1;
place = (290,160);
type = Stem;
},
{
horizontal = 1;
place = (560,160);
type = Stem;
},
{
horizontal = 1;
place = (761,120);
type = Stem;
},
{
place = (55,195);
type = Stem;
}
);
layerId = "58D608FC-F2A7-4C81-9CF8-8074D1767F25";
shapes = (
{
ref = E;
},
{
pos = (259,0);
ref = circumflexcomb.case;
}
);
width = 501;
}
);
note = Ecircumflex;
unicode = 202;
},
{
color = 4;
glyphname = Ecircumflexacute;
lastChange = "2023-11-24 14:51:42 +0000";
layers = (
{
background = {
anchors = (
{
name = bottom;
pos = (276,-35);
},
{
name = ogonek;
pos = (384,10);
},
{
name = top.case;
pos = (259,889);
}
);
hints = (
{
horizontal = 1;
place = (0,160);
type = Stem;
},
{
horizontal = 1;
place = (290,160);
type = Stem;
},
{
horizontal = 1;
place = (560,160);
type = Stem;
},
{
place = (55,195);
type = Stem;
},
{
horizontal = 1;
place = (761,120);
type = Stem;
},
{
horizontal = 1;
origin = (0,9);
place = (510,120);
type = Stem;
}
);
shapes = (
{
closed = 1;
nodes = (
(55,0,l),
(456,0,l),
(486,160,l),
(250,160,l),
(250,290,l),
(407,290,l),
(437,450,l),
(250,450,l),
(250,510,l),
(55,510,l)
);
},
{
closed = 1;
nodes = (
(449,560,l),
(479,720,l),
(0,720,l),
(64,560,l)
);
},
{
closed = 1;
nodes = (
(90,771,l),
(214,771,l),
(238,794,l),
(176,866,l)
);
},
{
closed = 1;
nodes = (
(309,771,l),
(428,771,l),
(320,891,l),
(209,891,l)
);
},
{
closed = 1;
nodes = (
(181,920,l),
(332,920,l),
(412,1040,l),
(226,1040,l)
);
}
);
};
layerId = "58D608FC-F2A7-4C81-9CF8-8074D1767F25";
shapes = (
{
ref = E;
},
{
pos = (259,0);
ref = circumflexcomb.case;
},
{
pos = (297,149);
ref = acutecomb.case;
}
);
width = 501;
}
);
unicode = 7870;
},
{
color = 4;
glyphname = Ecircumflexdotbelow;
lastChange = "2023-11-24 14:51:42 +0000";
layers = (
{
background = {
anchors = (
{
name = bottom;
pos = (276,-35);
},
{
name = ogonek;
pos = (384,10);
},
{
name = top.case;
pos = (259,889);
}
);
hints = (
{
horizontal = 1;
place = (0,160);
type = Stem;
},
{
horizontal = 1;
place = (290,160);
type = Stem;
},
{
horizontal = 1;
place = (560,160);
type = Stem;
},
{
place = (55,195);
type = Stem;
},
{
horizontal = 1;
place = (-195,173);
type = Stem;
},
{
place = (181,190);
type = Stem;
},
{
horizontal = 1;
place = (761,120);
type = Stem;
}
);
shapes = (
{
closed = 1;
nodes = (
(55,0,l),
(456,0,l),
(486,160,l),
(250,160,l),
(250,290,l),
(407,290,l),
(437,450,l),
(250,450,l),
(250,510,l),
(55,510,l)
);
},
{
closed = 1;
nodes = (
(449,560,l),
(479,720,l),
(0,720,l),
(64,560,l)
);
},
{
closed = 1;
nodes = (
(181,-182,l),
(371,-182,l),
(371,-46,l),
(181,-46,l)
);
},
{
closed = 1;
nodes = (
(90,771,l),
(214,771,l),
(238,794,l),
(176,866,l)
);
},
{
closed = 1;
nodes = (
(309,771,l),
(428,771,l),
(320,891,l),
(209,891,l)
);
}
);
};
layerId = "58D608FC-F2A7-4C81-9CF8-8074D1767F25";
shapes = (
{
ref = E;
},
{
pos = (276,0);
ref = dotbelowcomb;
},
{
pos = (259,0);
ref = circumflexcomb.case;
}
);
width = 501;
}
);
unicode = 7878;
},
{
color = 4;
glyphname = Ecircumflexgrave;
lastChange = "2023-11-24 14:51:42 +0000";
layers = (
{
background = {
anchors = (
{
name = bottom;
pos = (276,-35);
},
{
name = ogonek;
pos = (384,10);
},
{
name = top.case;
pos = (259,889);
}
);
hints = (
{
horizontal = 1;
place = (0,160);
type = Stem;
},
{
horizontal = 1;
place = (290,160);
type = Stem;
},
{
horizontal = 1;
place = (560,160);
type = Stem;
},
{
place = (55,195);
type = Stem;
},
{
horizontal = 1;
place = (761,120);
type = Stem;
},
{
horizontal = 1;
place = (910,120);
type = Stem;
}
);
shapes = (
{
closed = 1;
nodes = (
(55,0,l),
(456,0,l),
(486,160,l),
(250,160,l),
(250,290,l),
(407,290,l),
(437,450,l),
(250,450,l),
(250,510,l),
(55,510,l)
);
},
{
closed = 1;
nodes = (
(449,560,l),
(479,720,l),
(0,720,l),
(64,560,l)
);
},
{
closed = 1;
nodes = (
(90,771,l),
(214,771,l),
(238,794,l),
(176,866,l)
);
},
{
closed = 1;
nodes = (
(309,771,l),
(428,771,l),
(320,891,l),
(209,891,l)
);
},
{
closed = 1;
nodes = (
(111,1040,l),
(191,920,l),
(342,920,l),
(297,1040,l)
);
}
);
};
layerId = "58D608FC-F2A7-4C81-9CF8-8074D1767F25";
shapes = (
{
ref = E;
},
{
pos = (259,0);
ref = circumflexcomb.case;
},
{
pos = (226,149);
ref = gravecomb.case;
}
);
width = 501;
}
);
unicode = 7872;
},
{
color = 4;
glyphname = Ecircumflexhookabove;
lastChange = "2023-11-24 14:51:42 +0000";
layers = (
{
background = {
anchors = (
{
name = bottom;
pos = (276,-35);
},
{
name = ogonek;
pos = (384,10);
},
{
name = top.case;
pos = (259,889);
}
);
hints = (
{
horizontal = 1;
place = (0,160);
type = Stem;
},
{
horizontal = 1;
place = (290,160);
type = Stem;
},
{
horizontal = 1;
place = (560,160);
type = Stem;
},
{
place = (55,195);
type = Stem;
},
{
horizontal = 1;
place = (761,120);
type = Stem;
}
);
shapes = (
{
closed = 1;
nodes = (
(55,0,l),
(456,0,l),
(486,160,l),
(250,160,l),
(250,290,l),
(407,290,l),
(437,450,l),
(250,450,l),
(250,510,l),
(55,510,l)
);
},
{
closed = 1;
nodes = (
(449,560,l),
(479,720,l),
(0,720,l),
(64,560,l)
);
},
{
closed = 1;
nodes = (
(90,771,l),
(214,771,l),
(238,794,l),
(176,866,l)
);
},
{
closed = 1;
nodes = (
(309,771,l),
(428,771,l),
(320,891,l),
(209,891,l)
);
},
{
closed = 1;
nodes = (
(422,901,o),
(378,879,c),
(421,827,l),
(567,865,o),
(566,1044,o),
(410,1044,cs),
(384,1044,o),
(354,1039,o),
(331,1031,c),
(324,945,l),
(334,949,o),
(356,953,o),
(376,953,cs),
(430,953,o)
);
}
);
};
layerId = "58D608FC-F2A7-4C81-9CF8-8074D1767F25";
shapes = (
{
ref = E;
},
{
pos = (259,0);
ref = circumflexcomb.case;
},
{
alignment = -1;
pos = (426,70);
ref = hookabovecomb.case;
}
);
width = 501;
}
);
unicode = 7874;
},
{
color = 4;
glyphname = Ecircumflextilde;
lastChange = "2023-11-24 14:51:42 +0000";
layers = (
{
background = {
anchors = (
{
name = bottom;
pos = (276,-35);
},
{
name = ogonek;
pos = (384,10);
},
{
name = top.case;
pos = (259,1044);
}
);
hints = (
{
horizontal = 1;
place = (0,160);
type = Stem;
},
{
horizontal = 1;
place = (290,160);
type = Stem;
},
{
horizontal = 1;
place = (560,160);
type = Stem;
},
{
place = (55,195);
type = Stem;
},
{
horizontal = 1;
place = (761,120);
type = Stem;
},
{
horizontal = 1;
place = (923,41);
type = Stem;
},
{
horizontal = 1;
place = (964,94);
type = Stem;
}
);
shapes = (
{
closed = 1;
nodes = (
(55,0,l),
(456,0,l),
(486,160,l),
(250,160,l),
(250,290,l),
(407,290,l),
(437,450,l),
(250,450,l),
(250,510,l),
(55,510,l)
);
},
{
closed = 1;
nodes = (
(449,560,l),
(479,720,l),
(0,720,l),
(64,560,l)
);
},
{
closed = 1;
nodes = (
(90,771,l),
(214,771,l),
(238,794,l),
(176,866,l)
);
},
{
closed = 1;
nodes = (
(309,771,l),
(428,771,l),
(320,891,l),
(209,891,l)
);
},
{
closed = 1;
nodes = (
(327,1058,l),
(327,1043,o),
(322,1031,o),
(304,1031,cs),
(284,1031,o),
(250,1066,o),
(209,1066,cs),
(145,1066,o),
(114,1022,o),
(114,964,cs),
(114,951,o),
(116,937,o),
(119,923,c),
(190,923,l),
(190,938,o),
(195,950,o),
(213,950,cs),
(233,950,o),
(267,915,o),
(308,915,cs),
(372,915,o),
(403,959,o),
(403,1017,cs),
(403,1030,o),
(401,1044,o),
(398,1058,c)
);
}
);
};
layerId = "58D608FC-F2A7-4C81-9CF8-8074D1767F25";
shapes = (
{
ref = E;
},
{
pos = (259,0);
ref = circumflexcomb.case;
},
{
pos = (259,149);
ref = tildecomb.case;
}
);
width = 501;
}
);
unicode = 7876;
},
{
color = 4;
glyphname = Edblgrave;
lastChange = "2023-11-24 14:51:42 +0000";
layers = (
{
background = {
anchors = (
{
name = bottom;
pos = (276,-35);
},
{
name = ogonek;
pos = (384,10);
},
{
name = top.case;
pos = (259,740);
}
);
hints = (
{
horizontal = 1;
place = (0,160);
type = Stem;
},
{
horizontal = 1;
place = (290,160);
type = Stem;
},
{
horizontal = 1;
place = (560,160);
type = Stem;
},
{
place = (55,195);
type = Stem;
}
);
shapes = (
{
closed = 1;
nodes = (
(55,0,l),
(456,0,l),
(486,160,l),
(250,160,l),
(250,290,l),
(407,290,l),
(437,450,l),
(250,450,l),
(250,510,l),
(55,510,l)
);
},
{
closed = 1;
nodes = (
(449,560,l),
(479,720,l),
(0,720,l),
(64,560,l)
);
},
{
closed = 1;
nodes = (
(223,891,l),
(287,771,l),
(438,771,l),
(393,891,l)
);
},
{
closed = 1;
nodes = (
(-1,891,l),
(83,771,l),
(234,771,l),
(169,891,l)
);
}
);
};
layerId = "58D608FC-F2A7-4C81-9CF8-8074D1767F25";
shapes = (
{
ref = E;
},
{
pos = (221,0);
ref = dblgravecomb.case;
}
);
width = 501;
}
);
unicode = 516;
},
{
color = 4;
glyphname = Edieresis;
kernLeft = B;
kernRight = E;
lastChange = "2023-11-24 14:51:42 +0000";
layers = (
{
background = {
anchors = (
{
name = bottom;
pos = (276,-35);
},
{
name = ogonek;
pos = (384,10);
},
{
name = top.case;
pos = (259,895);
}
);
hints = (
{
horizontal = 1;
place = (0,160);
type = Stem;
},
{
horizontal = 1;
place = (290,160);
type = Stem;
},
{
horizontal = 1;
place = (560,160);
type = Stem;
},
{
place = (55,195);
type = Stem;
},
{
horizontal = 1;
place = (753,165);
type = Stem;
},
{
place = (277,160);
type = Stem;
},
{
place = (476,180);
type = Stem;
},
{
place = (262,180);
type = Stem;
},
{
place = (481,160);
type = Stem;
},
{
horizontal = 1;
place = (768,165);
type = Stem;
},
{
place = (77,160);
type = Stem;
},
{
place = (281,160);
type = Stem;
}
);
shapes = (
{
closed = 1;
nodes = (
(55,0,l),
(456,0,l),
(486,160,l),
(250,160,l),
(250,290,l),
(407,290,l),
(437,450,l),
(250,450,l),
(250,510,l),
(55,510,l)
);
},
{
closed = 1;
nodes = (
(449,560,l),
(479,720,l),
(0,720,l),
(64,560,l)
);
},
{
closed = 1;
nodes = (
(77,777,l),
(237,777,l),
(237,913,l),
(77,913,l)
);
},
{
closed = 1;
nodes = (
(281,777,l),
(441,777,l),
(441,913,l),
(281,913,l)
);
}
);
};
hints = (
{
horizontal = 1;
place = (0,160);
type = Stem;
},
{
horizontal = 1;
place = (290,160);
type = Stem;
},
{
horizontal = 1;
place = (560,160);
type = Stem;
},
{
horizontal = 1;
place = (758,165);
type = Stem;
},
{
place = (55,195);
type = Stem;
},
{
place = (273,160);
type = Stem;
},
{
place = (69,160);
type = Stem;
}
);
layerId = "58D608FC-F2A7-4C81-9CF8-8074D1767F25";
shapes = (
{
ref = E;
},
{
pos = (259,0);
ref = dieresiscomb.case;
}
);
width = 501;
}
);
note = Edieresis;
unicode = 203;
},
{
color = 4;
glyphname = Edotaccent;
kernLeft = B;
kernRight = E;
lastChange = "2023-11-24 14:51:42 +0000";
layers = (
{
background = {
anchors = (
{
name = bottom;
pos = (276,-35);
},
{
name = ogonek;
pos = (384,10);
},
{
name = top.case;
pos = (259,895);
}
);
hints = (
{
horizontal = 1;
place = (0,160);
type = Stem;
},
{
horizontal = 1;
place = (290,160);
type = Stem;
},
{
horizontal = 1;
place = (560,160);
type = Stem;
},
{
place = (55,195);
type = Stem;
},
{
horizontal = 1;
place = (753,165);
type = Stem;
},
{
place = (371,176);
type = Stem;
},
{
horizontal = 1;
place = (764,173);
type = Stem;
},
{
place = (164,190);
type = Stem;
}
);
shapes = (
{
closed = 1;
nodes = (
(55,0,l),
(456,0,l),
(486,160,l),
(250,160,l),
(250,290,l),
(407,290,l),
(437,450,l),
(250,450,l),
(250,510,l),
(55,510,l)
);
},
{
closed = 1;
nodes = (
(449,560,l),
(479,720,l),
(0,720,l),
(64,560,l)
);
},
{
closed = 1;
nodes = (
(164,777,l),
(354,777,l),
(354,913,l),
(164,913,l)
);
}
);
};
hints = (
{
horizontal = 1;
place = (0,160);
type = Stem;
},
{
horizontal = 1;
place = (290,160);
type = Stem;
},
{
horizontal = 1;
place = (560,160);
type = Stem;
},
{
horizontal = 1;
place = (753,165);
type = Stem;
},
{
place = (55,195);
type = Stem;
},
{
place = (164,176);
type = Stem;
}
);
layerId = "58D608FC-F2A7-4C81-9CF8-8074D1767F25";
shapes = (
{
ref = E;
},
{
pos = (259,0);
ref = dotaccentcomb.case;
}
);
width = 501;
}
);
note = Edotaccent;
unicode = 278;
},
{
color = 4;
glyphname = Edotbelow;
lastChange = "2023-11-24 14:51:42 +0000";
layers = (
{
background = {
anchors = (
{
name = bottom;
pos = (276,-35);
},
{
name = ogonek;
pos = (384,10);
},
{
name = top.case;
pos = (259,740);
}
);
hints = (
{
horizontal = 1;
place = (0,160);
type = Stem;
},
{
horizontal = 1;
place = (290,160);
type = Stem;
},
{
horizontal = 1;
place = (560,160);
type = Stem;
},
{
place = (55,195);
type = Stem;
},
{
horizontal = 1;
place = (-195,173);
type = Stem;
},
{
place = (181,190);
type = Stem;
}
);
shapes = (
{
closed = 1;
nodes = (
(55,0,l),
(456,0,l),
(486,160,l),
(250,160,l),
(250,290,l),
(407,290,l),
(437,450,l),
(250,450,l),
(250,510,l),
(55,510,l)
);
},
{
closed = 1;
nodes = (
(449,560,l),
(479,720,l),
(0,720,l),
(64,560,l)
);
},
{
closed = 1;
nodes = (
(181,-182,l),
(371,-182,l),
(371,-46,l),
(181,-46,l)
);
}
);
};
layerId = "58D608FC-F2A7-4C81-9CF8-8074D1767F25";
shapes = (
{
ref = E;
},
{
pos = (276,0);
ref = dotbelowcomb;
}
);
width = 501;
}
);
unicode = 7864;
},
{
color = 4;
glyphname = Egrave;
kernLeft = B;
kernRight = E;
lastChange = "2023-11-24 14:51:42 +0000";
layers = (
{
background = {
anchors = (
{
name = bottom;
pos = (276,-35);
},
{
name = ogonek;
pos = (384,10);
},
{
name = top.case;
pos = (259,740);
}
);
hints = (
{
horizontal = 1;
place = (0,160);
type = Stem;
},
{
horizontal = 1;
place = (290,160);
type = Stem;
},
{
horizontal = 1;
place = (560,160);
type = Stem;
},
{
place = (55,195);
type = Stem;
},
{
horizontal = 1;
place = (761,120);
type = Stem;
}
);
shapes = (
{
closed = 1;
nodes = (
(55,0,l),
(456,0,l),
(486,160,l),
(250,160,l),
(250,290,l),
(407,290,l),
(437,450,l),
(250,450,l),
(250,510,l),
(55,510,l)
);
},
{
closed = 1;
nodes = (
(449,560,l),
(479,720,l),
(0,720,l),
(64,560,l)
);
},
{
closed = 1;
nodes = (
(111,891,l),
(191,771,l),
(342,771,l),
(297,891,l)
);
}
);
};
hints = (
{
horizontal = 1;
place = (0,160);
type = Stem;
},
{
horizontal = 1;
place = (290,160);
type = Stem;
},
{
horizontal = 1;
place = (560,160);
type = Stem;
},
{
horizontal = 1;
place = (761,120);
type = Stem;
},
{
place = (55,195);
type = Stem;
}
);
layerId = "58D608FC-F2A7-4C81-9CF8-8074D1767F25";
shapes = (
{
ref = E;
},
{
pos = (226,0);
ref = gravecomb.case;
}
);
width = 501;
}
);
note = Egrave;
unicode = 200;
},
{
color = 4;
glyphname = Ehookabove;
lastChange = "2023-11-24 14:51:42 +0000";
layers = (
{
background = {
anchors = (
{
name = bottom;
pos = (276,-35);
},
{
name = ogonek;
pos = (384,10);
},
{
name = top.case;
pos = (259,740);
}
);
hints = (
{
horizontal = 1;
place = (0,160);
type = Stem;
},
{
horizontal = 1;
place = (290,160);
type = Stem;
},
{
horizontal = 1;
place = (560,160);
type = Stem;
},
{
place = (55,195);
type = Stem;
}
);
shapes = (
{
closed = 1;
nodes = (
(55,0,l),
(456,0,l),
(486,160,l),
(250,160,l),
(250,290,l),
(407,290,l),
(437,450,l),
(250,450,l),
(250,510,l),
(55,510,l)
);
},
{
closed = 1;
nodes = (
(449,560,l),
(479,720,l),
(0,720,l),
(64,560,l)
);
},
{
closed = 1;
nodes = (
(255,831,o),
(211,809,c),
(254,757,l),
(400,795,o),
(399,974,o),
(243,974,cs),
(217,974,o),
(187,969,o),
(164,961,c),
(157,875,l),
(167,879,o),
(189,883,o),
(209,883,cs),
(263,883,o)
);
}
);
};
layerId = "58D608FC-F2A7-4C81-9CF8-8074D1767F25";
shapes = (
{
ref = E;
},
{
pos = (259,0);
ref = hookabovecomb.case;
}
);
width = 501;
}
);
unicode = 7866;
},
{
color = 4;
glyphname = Einvertedbreve;
lastChange = "2023-11-24 14:51:42 +0000";
layers = (
{
background = {
anchors = (
{
name = bottom;
pos = (276,-35);
},
{
name = ogonek;
pos = (384,10);
},
{
name = top.case;
pos = (259,740);
}
);
hints = (
{
horizontal = 1;
place = (0,160);
type = Stem;
},
{
horizontal = 1;
place = (290,160);
type = Stem;
},
{
horizontal = 1;
place = (560,160);
type = Stem;
},
{
place = (55,195);
type = Stem;
},
{
horizontal = 1;
place = (746,104);
type = Stem;
},
{
horizontal = 1;
place = (746,142);
type = Stem;
},
{
horizontal = 1;
origin = (0,9);
place = (510,-104);
type = Stem;
},
{
horizontal = 1;
origin = (0,9);
place = (510,-142);
type = Stem;
}
);
shapes = (
{
closed = 1;
nodes = (
(55,0,l),
(456,0,l),
(486,160,l),
(250,160,l),
(250,290,l),
(407,290,l),
(437,450,l),
(250,450,l),
(250,510,l),
(55,510,l)
);
},
{
closed = 1;
nodes = (
(449,560,l),
(479,720,l),
(0,720,l),
(64,560,l)
);
},
{
closed = 1;
nodes = (
(157,912,o),
(116,869,o),
(106,772,c),
(192,772,l),
(203,800,o),
(223,813,o),
(259,813,cs),
(295,813,o),
(315,800,o),
(326,772,c),
(412,772,l),
(402,869,o),
(361,912,o),
(259,912,cs)
);
}
);
};
layerId = "58D608FC-F2A7-4C81-9CF8-8074D1767F25";
shapes = (
{
ref = E;
},
{
pos = (259,0);
ref = breveinvertedcomb.case;
}
);
width = 501;
}
);
unicode = 518;
},
{
color = 4;
glyphname = Emacron;
kernLeft = B;
kernRight = E;
lastChange = "2023-11-24 14:51:42 +0000";
layers = (
{
background = {
anchors = (
{
name = bottom;
pos = (276,-35);
},
{
name = ogonek;
pos = (384,10);
},
{
name = top.case;
pos = (259,740);
}
);
hints = (
{
horizontal = 1;
place = (0,160);
type = Stem;
},
{
horizontal = 1;
place = (290,160);
type = Stem;
},
{
horizontal = 1;
place = (560,160);
type = Stem;
},
{
place = (55,195);
type = Stem;
},
{
horizontal = 1;
place = (778,103);
type = Stem;
},
{
horizontal = 1;
place = (786.589,110.885);
type = Stem;
}
);
shapes = (
{
closed = 1;
nodes = (
(55,0,l),
(456,0,l),
(486,160,l),
(250,160,l),
(250,290,l),
(407,290,l),
(437,450,l),
(250,450,l),
(250,510,l),
(55,510,l)
);
},
{
closed = 1;
nodes = (
(449,560,l),
(479,720,l),
(0,720,l),
(64,560,l)
);
},
{
closed = 1;
nodes = (
(111,787,l),
(407,787,l),
(407,897,l),
(111,897,l)
);
}
);
};
hints = (
{
horizontal = 1;
place = (0,160);
type = Stem;
},
{
horizontal = 1;
place = (290,160);
type = Stem;
},
{
horizontal = 1;
place = (560,160);
type = Stem;
},
{
horizontal = 1;
place = (778,103);
type = Stem;
},
{
place = (55,195);
type = Stem;
}
);
layerId = "58D608FC-F2A7-4C81-9CF8-8074D1767F25";
shapes = (
{
ref = E;
},
{
pos = (259,0);
ref = macroncomb.case;
}
);
width = 501;
}
);
note = Emacron;
unicode = 274;
},
{
color = 4;
glyphname = Eogonek;
kernLeft = B;
kernRight = E;
lastChange = "2023-11-24 14:51:42 +0000";
layers = (
{
background = {
anchors = (
{
name = bottom;
pos = (276,-35);
},
{
name = ogonek;
pos = (384,10);
},
{
name = top.case;
pos = (259,740);
}
);
hints = (
{
horizontal = 1;
place = (0,160);
type = Stem;
},
{
horizontal = 1;
place = (290,160);
type = Stem;
},
{
horizontal = 1;
place = (560,160);
type = Stem;
},
{
place = (55,195);
type = Stem;
},
{
horizontal = 1;
place = (-160,68);
type = Stem;
},
{
horizontal = 1;
place = (55,-20);
target = down;
type = TopGhost;
},
{
place = (302,197);
type = Stem;
}
);
shapes = (
{
closed = 1;
nodes = (
(55,0,l),
(456,0,l),
(486,160,l),
(250,160,l),
(250,290,l),
(407,290,l),
(437,450,l),
(250,450,l),
(250,510,l),
(55,510,l)
);
},
{
closed = 1;
nodes = (
(449,560,l),
(479,720,l),
(0,720,l),
(64,560,l)
);
},
{
closed = 1;
nodes = (
(305,-109,o),
(341,-160,o),
(431,-160,cs),
(457,-160,o),
(487,-154,o),
(512,-146,c),
(486,-181,l),
(486,-46,l),
(501,-72,l),
(461,-83,o),
(439,-76,o),
(433,-51,c),
(317,-51,l)
);
}
);
};
hints = (
{
horizontal = 1;
place = (-160,68);
type = Stem;
},
{
horizontal = 1;
place = (55,-20);
target = down;
type = TopGhost;
},
{
horizontal = 1;
place = (290,160);
type = Stem;
},
{
horizontal = 1;
place = (560,160);
type = Stem;
},
{
place = (55,195);
type = Stem;
},
{
place = (269,197);
type = Stem;
},
{
place = (269,111);
type = Stem;
},
{
horizontal = 1;
place = (0,160);
type = Stem;
}
);
layerId = "58D608FC-F2A7-4C81-9CF8-8074D1767F25";
shapes = (
{
ref = E;
},
{
pos = (400,0);
ref = ogonekcomb;
}
);
width = 501;
}
);
note = Eogonek;
unicode = 280;
},
{
color = 4;
glyphname = Etilde;
lastChange = "2023-11-24 14:51:42 +0000";
layers = (
{
background = {
anchors = (
{
name = bottom;
pos = (276,-35);
},
{
name = ogonek;
pos = (384,10);
},
{
name = top.case;
pos = (259,895);
}
);
hints = (
{
horizontal = 1;
place = (0,160);
type = Stem;
},
{
horizontal = 1;
place = (290,160);
type = Stem;
},
{
horizontal = 1;
place = (560,160);
type = Stem;
},
{
place = (55,195);
type = Stem;
},
{
horizontal = 1;
place = (774,41);
type = Stem;
},
{
horizontal = 1;
place = (815,94);
type = Stem;
}
);
shapes = (
{
closed = 1;
nodes = (
(55,0,l),
(456,0,l),
(486,160,l),
(250,160,l),
(250,290,l),
(407,290,l),
(437,450,l),
(250,450,l),
(250,510,l),
(55,510,l)
);
},
{
closed = 1;
nodes = (
(449,560,l),
(479,720,l),
(0,720,l),
(64,560,l)
);
},
{
closed = 1;
nodes = (
(327,909,l),
(327,894,o),
(322,882,o),
(304,882,cs),
(284,882,o),
(250,917,o),
(209,917,cs),
(145,917,o),
(114,873,o),
(114,815,cs),
(114,802,o),
(116,788,o),
(119,774,c),
(190,774,l),
(190,789,o),
(195,801,o),
(213,801,cs),
(233,801,o),
(267,766,o),
(308,766,cs),
(372,766,o),
(403,810,o),
(403,868,cs),
(403,881,o),
(401,895,o),
(398,909,c)
);
}
);
};
layerId = "58D608FC-F2A7-4C81-9CF8-8074D1767F25";
shapes = (
{
ref = E;
},
{
pos = (259,0);
ref = tildecomb.case;
}
);
width = 501;
}
);
unicode = 7868;
},
{
color = 4;
glyphname = Schwa;
lastChange = "2023-11-24 14:51:38 +0000";
layers = (
{
background = {
shapes = (
{
closed = 1;
nodes = (
(479,4,o),
(553,115,o),
(553,357,cs),
(553,587,o),
(441,728,o),
(225,728,cs),
(168,728,o),
(111,721,o),
(38,707,c),
(65,457,l),
(11,536,l),
(74,550,o),
(131,557,o),
(179,557,cs),
(290,557,o),
(348,522,o),
(348,353,cs),
(348,237,o),
(336,171,o),
(304,150,c),
(304,-9,l)
);
},
{
closed = 1;
nodes = (
(222,169,o),
(213,227,o),
(213,275,cs),
(213,304,o),
(212,330,o),
(212,340,c),
(114,289,l),
(297,289,l),
(297,310,o),
(298,331,o),
(298,352,cs),
(298,377,o),
(297,402,o),
(293,427,c),
(23,427,l),
(18,385,o),
(15,345,o),
(15,307,cs),
(15,126,o),
(81,-4,o),
(254,-10,c),
(254,149,l)
);
}
);
};
hints = (
{
horizontal = 1;
place = (707,-336);
type = Stem;
},
{
place = (454,-330);
type = Stem;
},
{
horizontal = 1;
place = (488,-206);
type = Stem;
},
{
place = (135,0);
type = Stem;
}
);
layerId = "58D608FC-F2A7-4C81-9CF8-8074D1767F25";
shapes = (
{
closed = 1;
nodes = (
(479,4,o),
(553,115,o),
(553,357,cs),
(553,587,o),
(441,728,o),
(225,728,cs),
(168,728,o),
(111,721,o),
(38,707,c),
(65,457,l),
(11,536,l),
(74,550,o),
(131,557,o),
(179,557,cs),
(290,557,o),
(348,522,o),
(348,353,cs),
(348,237,o),
(336,171,o),
(304,150,c),
(304,-9,l)
);
},
{
closed = 1;
nodes = (
(222,169,o),
(213,227,o),
(213,275,cs),
(213,304,o),
(212,330,o),
(212,340,c),
(114,289,l),
(297,289,l),
(297,310,o),
(298,331,o),
(298,352,cs),
(298,377,o),
(297,402,o),
(293,427,c),
(23,427,l),
(18,385,o),
(15,345,o),
(15,307,cs),
(15,126,o),
(81,-4,o),
(254,-10,c),
(254,149,l)
);
}
);
width = 573;
}
);
metricRight = O;
unicode = 399;
},
{
color = 4;
glyphname = F;
kernLeft = B;
lastChange = "2023-11-24 14:51:38 +0000";
layers = (
{
background = {
shapes = (
{
closed = 1;
nodes = (
(55,0,l),
(250,0,l),
(250,264,l),
(386,264,l),
(416,424,l),
(250,424,l),
(250,510,l),
(55,510,l)
);
},
{
closed = 1;
nodes = (
(434,560,l),
(464,720,l),
(0,720,l),
(64,560,l)
);
}
);
};
guides = (
{
pos = (186,510);
}
);
hints = (
{
horizontal = 1;
place = (0,21);
target = up;
type = BottomGhost;
},
{
horizontal = 1;
place = (264,160);
type = Stem;
},
{
horizontal = 1;
place = (560,160);
type = Stem;
},
{
place = (55,195);
type = Stem;
}
);
layerId = "58D608FC-F2A7-4C81-9CF8-8074D1767F25";
shapes = (
{
closed = 1;
nodes = (
(55,0,l),
(250,0,l),
(250,264,l),
(386,264,l),
(416,424,l),
(250,424,l),
(250,510,l),
(55,510,l)
);
},
{
closed = 1;
nodes = (
(434,560,l),
(464,720,l),
(0,720,l),
(64,560,l)
);
}
);
width = 474;
}
);
note = F;
unicode = 70;
},
{
color = 4;
glyphname = G;
kernLeft = C;
kernRight = G;
lastChange = "2023-11-24 14:51:38 +0000";
layers = (
{
anchors = (
{
name = bottom;
pos = (332,-35);
},
{
name = top.case;
pos = (336,740);
}
);
background = {
anchors = (
{
name = bottom;
pos = (332,-35);
},
{
name = top.case;
pos = (336,740);
}
);
shapes = (
{
closed = 1;
nodes = (
(422,-8,o),
(489,6,o),
(532,34,c),
(532,356,l),
(297,356,l),
(352,219,l),
(352,-10,l)
);
},
{
closed = 1;
nodes = (
(235,520,o),
(278,557,o),
(377,557,cs),
(409,557,o),
(437,552,o),
(481,544,c),
(499,708,l),
(446,719,o),
(395,728,o),
(348,728,cs),
(159,728,o),
(29,627,o),
(20,382,c),
(230,382,l)
);
},
{
closed = 1;
nodes = (
(251,181,o),
(232,230,o),
(230,332,c),
(20,332,l),
(27,98,o),
(133,1,o),
(302,-9,c),
(302,161,l)
);
}
);
};
hints = (
{
horizontal = 1;
place = (-10,160);
type = Stem;
},
{
horizontal = 1;
place = (560,168);
type = Stem;
},
{
place = (20,210);
type = Stem;
},
{
place = (352,180);
type = Stem;
}
);
layerId = "58D608FC-F2A7-4C81-9CF8-8074D1767F25";
shapes = (
{
closed = 1;
nodes = (
(422,-8,o),
(489,6,o),
(532,34,c),
(532,356,l),
(297,356,l),
(352,219,l),
(352,-10,l)
);
},
{
closed = 1;
nodes = (
(235,520,o),
(278,557,o),
(377,557,cs),
(409,557,o),
(437,552,o),
(481,544,c),
(499,708,l),
(446,719,o),
(395,728,o),
(348,728,cs),
(159,728,o),
(29,627,o),
(20,382,c),
(230,382,l)
);
},
{
closed = 1;
nodes = (
(251,181,o),
(232,230,o),
(230,332,c),
(20,332,l),
(27,98,o),
(133,1,o),
(302,-9,c),
(302,161,l)
);
}
);
width = 547;
}
);
note = G;
unicode = 71;
},
{
color = 4;
glyphname = Gbreve;
kernLeft = C;
kernRight = G;
lastChange = "2023-11-24 14:51:42 +0000";
layers = (
{
background = {
anchors = (
{
name = bottom;
pos = (332,-35);
},
{
name = top.case;
pos = (336,906);
}
);
hints = (
{
horizontal = 1;
place = (-10,160);
type = Stem;
},
{
horizontal = 1;
place = (560,168);
type = Stem;
},
{
place = (20,210);
type = Stem;
},
{
place = (352,180);
type = Stem;
},
{
horizontal = 1;
place = (746,104);
type = Stem;
},
{
horizontal = 1;
place = (746,142);
type = Stem;
}
);
shapes = (
{
closed = 1;
nodes = (
(422,-8,o),
(489,6,o),
(532,34,c),
(532,356,l),
(297,356,l),
(352,219,l),
(352,-10,l)
);
},
{
closed = 1;
nodes = (
(235,520,o),
(278,557,o),
(377,557,cs),
(409,557,o),
(437,552,o),
(481,544,c),
(499,708,l),
(446,719,o),
(395,728,o),
(348,728,cs),
(159,728,o),
(29,627,o),
(20,382,c),
(230,382,l)
);
},
{
closed = 1;
nodes = (
(251,181,o),
(232,230,o),
(230,332,c),
(20,332,l),
(27,98,o),
(133,1,o),
(302,-9,c),
(302,161,l)
);
},
{
closed = 1;
nodes = (
(438,771,o),
(479,814,o),
(489,911,c),
(403,911,l),
(392,883,o),
(372,870,o),
(336,870,cs),
(300,870,o),
(280,883,o),
(269,911,c),
(183,911,l),
(193,814,o),
(234,771,o),
(336,771,cs)
);
}
);
};
hints = (
{
horizontal = 1;
place = (-10,160);
type = Stem;
},
{
horizontal = 1;
place = (560,168);
type = Stem;
},
{
horizontal = 1;
place = (746,104);
type = Stem;
},
{
horizontal = 1;
place = (746,142);
type = Stem;
},
{
place = (20,210);
type = Stem;
},
{
place = (352,180);
type = Stem;
}
);
layerId = "58D608FC-F2A7-4C81-9CF8-8074D1767F25";
shapes = (
{
ref = G;
},
{
pos = (336,0);
ref = brevecomb.case;
}
);
width = 547;
}
);
note = Gbreve;
unicode = 286;
},
{
color = 4;
glyphname = Gcaron;
lastChange = "2023-11-24 14:51:42 +0000";
layers = (
{
background = {
anchors = (
{
name = bottom;
pos = (332,-35);
},
{
name = top.case;
pos = (336,740);
}
);
hints = (
{
horizontal = 1;
place = (-10,160);
type = Stem;
},
{
horizontal = 1;
place = (560,168);
type = Stem;
},
{
place = (20,210);
type = Stem;
},
{
place = (352,180);
type = Stem;
},
{
horizontal = 1;
place = (746,120);
type = Stem;
},
{
horizontal = 1;
origin = (0,6);
place = (-10,-120);
type = Stem;
}
);
shapes = (
{
closed = 1;
nodes = (
(422,-8,o),
(489,6,o),
(532,34,c),
(532,356,l),
(297,356,l),
(352,219,l),
(352,-10,l)
);
},
{
closed = 1;
nodes = (
(235,520,o),
(278,557,o),
(377,557,cs),
(409,557,o),
(437,552,o),
(481,544,c),
(499,708,l),
(446,719,o),
(395,728,o),
(348,728,cs),
(159,728,o),
(29,627,o),
(20,382,c),
(230,382,l)
);
},
{
closed = 1;
nodes = (
(251,181,o),
(232,230,o),
(230,332,c),
(20,332,l),
(27,98,o),
(133,1,o),
(302,-9,c),
(302,161,l)
);
},
{
closed = 1;
nodes = (
(315,868,l),
(291,891,l),
(167,891,l),
(253,796,l)
);
},
{
closed = 1;
nodes = (
(397,771,l),
(505,891,l),
(386,891,l),
(286,771,l)
);
}
);
};
layerId = "58D608FC-F2A7-4C81-9CF8-8074D1767F25";
shapes = (
{
ref = G;
},
{
pos = (336,0);
ref = caroncomb.case;
}
);
width = 547;
}
);
unicode = 486;
},
{
color = 4;
glyphname = Gcircumflex;
kernLeft = C;
kernRight = G;
lastChange = "2023-11-24 14:51:42 +0000";
layers = (
{
background = {
anchors = (
{
name = bottom;
pos = (332,-35);
},
{
name = top.case;
pos = (336,889);
}
);
hints = (
{
horizontal = 1;
place = (-10,160);
type = Stem;
},
{
horizontal = 1;
place = (560,168);
type = Stem;
},
{
place = (20,210);
type = Stem;
},
{
place = (352,180);
type = Stem;
},
{
horizontal = 1;
place = (761,120);
type = Stem;
}
);
shapes = (
{
closed = 1;
nodes = (
(422,-8,o),
(489,6,o),
(532,34,c),
(532,356,l),
(297,356,l),
(352,219,l),
(352,-10,l)
);
},
{
closed = 1;
nodes = (
(235,520,o),
(278,557,o),
(377,557,cs),
(409,557,o),
(437,552,o),
(481,544,c),
(499,708,l),
(446,719,o),
(395,728,o),
(348,728,cs),
(159,728,o),
(29,627,o),
(20,382,c),
(230,382,l)
);
},
{
closed = 1;
nodes = (
(251,181,o),
(232,230,o),
(230,332,c),
(20,332,l),
(27,98,o),
(133,1,o),
(302,-9,c),
(302,161,l)
);
},
{
closed = 1;
nodes = (
(167,771,l),
(291,771,l),
(315,794,l),
(253,866,l)
);
},
{
closed = 1;
nodes = (
(386,771,l),
(505,771,l),
(397,891,l),
(286,891,l)
);
}
);
};
hints = (
{
horizontal = 1;
place = (-10,160);
type = Stem;
},
{
horizontal = 1;
place = (560,168);
type = Stem;
},
{
horizontal = 1;
place = (761,120);
type = Stem;
},
{
place = (20,210);
type = Stem;
},
{
place = (352,180);
type = Stem;
}
);
layerId = "58D608FC-F2A7-4C81-9CF8-8074D1767F25";
shapes = (
{
ref = G;
},
{
pos = (336,0);
ref = circumflexcomb.case;
}
);
width = 547;
}
);
note = Gcircumflex;
unicode = 284;
},
{
color = 4;
glyphname = Gcommaaccent;
kernLeft = C;
kernRight = G;
lastChange = "2023-11-24 14:51:42 +0000";
layers = (
{
background = {
anchors = (
{
name = bottom;
pos = (332,-35);
},
{
name = top.case;
pos = (336,740);
}
);
hints = (
{
horizontal = 1;
place = (-10,160);
type = Stem;
},
{
horizontal = 1;
place = (560,168);
type = Stem;
},
{
place = (20,210);
type = Stem;
},
{
place = (352,180);
type = Stem;
},
{
horizontal = 1;
place = (-150,113);
type = Stem;
}
);
shapes = (
{
closed = 1;
nodes = (
(422,-8,o),
(489,6,o),
(532,34,c),
(532,356,l),
(297,356,l),
(352,219,l),
(352,-10,l)
);
},
{
closed = 1;
nodes = (
(235,520,o),
(278,557,o),
(377,557,cs),
(409,557,o),
(437,552,o),
(481,544,c),
(499,708,l),
(446,719,o),
(395,728,o),
(348,728,cs),
(159,728,o),
(29,627,o),
(20,382,c),
(230,382,l)
);
},
{
closed = 1;
nodes = (
(251,181,o),
(232,230,o),
(230,332,c),
(20,332,l),
(27,98,o),
(133,1,o),
(302,-9,c),
(302,161,l)
);
},
{
closed = 1;
nodes = (
(364,-150,l),
(425,-37,l),
(254,-37,l),
(226,-150,l)
);
}
);
};
hints = (
{
horizontal = 1;
place = (-150,113);
type = Stem;
},
{
horizontal = 1;
place = (-10,160);
type = Stem;
},
{
horizontal = 1;
place = (560,168);
type = Stem;
},
{
place = (20,210);
type = Stem;
},
{
place = (352,180);
type = Stem;
}
);
layerId = "58D608FC-F2A7-4C81-9CF8-8074D1767F25";
shapes = (
{
ref = G;
},
{
pos = (325,0);
ref = commaaccentcomb;
}
);
width = 547;
}
);
note = Gcommaaccent;
unicode = 290;
},
{
color = 4;
glyphname = Gdotaccent;
kernLeft = C;
kernRight = G;
lastChange = "2023-11-24 14:51:42 +0000";
layers = (
{
background = {
anchors = (
{
name = bottom;
pos = (332,-35);
},
{
name = top.case;
pos = (336,895);
}
);
hints = (
{
horizontal = 1;
place = (-10,160);
type = Stem;
},
{
horizontal = 1;
place = (560,168);
type = Stem;
},
{
place = (20,210);
type = Stem;
},
{
place = (352,180);
type = Stem;
},
{
horizontal = 1;
place = (753,165);
type = Stem;
},
{
place = (448,176);
type = Stem;
},
{
horizontal = 1;
place = (764,173);
type = Stem;
},
{
place = (241,190);
type = Stem;
}
);
shapes = (
{
closed = 1;
nodes = (
(422,-8,o),
(489,6,o),
(532,34,c),
(532,356,l),
(297,356,l),
(352,219,l),
(352,-10,l)
);
},
{
closed = 1;
nodes = (
(235,520,o),
(278,557,o),
(377,557,cs),
(409,557,o),
(437,552,o),
(481,544,c),
(499,708,l),
(446,719,o),
(395,728,o),
(348,728,cs),
(159,728,o),
(29,627,o),
(20,382,c),
(230,382,l)
);
},
{
closed = 1;
nodes = (
(251,181,o),
(232,230,o),
(230,332,c),
(20,332,l),
(27,98,o),
(133,1,o),
(302,-9,c),
(302,161,l)
);
},
{
closed = 1;
nodes = (
(241,777,l),
(431,777,l),
(431,913,l),
(241,913,l)
);
}
);
};
hints = (
{
horizontal = 1;
place = (-10,160);
type = Stem;
},
{
horizontal = 1;
place = (560,168);
type = Stem;
},
{
horizontal = 1;
place = (753,165);
type = Stem;
},
{
place = (20,210);
type = Stem;
},
{
place = (237,176);
type = Stem;
},
{
place = (352,180);
type = Stem;
}
);
layerId = "58D608FC-F2A7-4C81-9CF8-8074D1767F25";
shapes = (
{
ref = G;
},
{
pos = (336,0);
ref = dotaccentcomb.case;
}
);
width = 547;
}
);
note = Gdotaccent;
unicode = 288;
},
{
color = 4;
glyphname = H;
kernLeft = H;
lastChange = "2023-11-24 14:51:38 +0000";
layers = (
{
anchors = (
{
name = top.case;
pos = (290,740);
}
);
background = {
anchors = (
{
name = top.case;
pos = (290,740);
}
);
shapes = (
{
closed = 1;
nodes = (
(340,233,l),
(340,0,l),
(535,0,l),
(535,233,l)
);
},
{
closed = 1;
nodes = (
(535,492,l),
(535,720,l),
(340,720,l),
(340,492,l)
);
},
{
closed = 1;
nodes = (
(240,245,l),
(240,720,l),
(45,720,l),
(45,245,l)
);
},
{
closed = 1;
nodes = (
(45,299,l),
(45,0,l),
(240,0,l),
(240,299,l)
);
},
{
closed = 1;
nodes = (
(535,284,l),
(535,443,l),
(45,443,l),
(45,284,l)
);
}
);
};
hints = (
{
horizontal = 1;
place = (0,21);
target = up;
type = BottomGhost;
},
{
horizontal = 1;
place = (720,-20);
target = down;
type = TopGhost;
},
{
place = (45,195);
type = Stem;
},
{
place = (340,195);
type = Stem;
}
);
layerId = "58D608FC-F2A7-4C81-9CF8-8074D1767F25";
shapes = (
{
closed = 1;
nodes = (
(340,233,l),
(340,0,l),
(535,0,l),
(535,233,l)
);
},
{
closed = 1;
nodes = (
(535,492,l),
(535,720,l),
(340,720,l),
(340,492,l)
);
},
{
closed = 1;
nodes = (
(240,245,l),
(240,720,l),
(45,720,l),
(45,245,l)
);
},
{
closed = 1;
nodes = (
(45,299,l),
(45,0,l),
(240,0,l),
(240,299,l)
);
},
{
closed = 1;
nodes = (
(535,284,l),
(535,443,l),
(45,443,l),
(45,284,l)
);
}
);
width = 580;
}
);
note = H;
unicode = 72;
},
{
color = 4;
glyphname = Hbar;
kernLeft = H;
lastChange = "2023-11-24 14:51:38 +0000";
layers = (
{
background = {
shapes = (
{
closed = 1;
nodes = (
(340,443,l),
(240,443,l),
(240,475,l),
(45,475,l),
(45,0,l),
(240,0,l),
(240,283,l),
(340,283,l),
(340,0,l),
(535,0,l),
(535,475,l),
(340,475,l)
);
},
{
closed = 1;
nodes = (
(240,720,l),
(45,720,l),
(45,658,l),
(240,658,l)
);
},
{
closed = 1;
nodes = (
(535,720,l),
(340,720,l),
(340,658,l),
(535,658,l)
);
},
{
closed = 1;
nodes = (
(565,525,l),
(565,608,l),
(15,608,l),
(15,525,l)
);
}
);
};
hints = (
{
horizontal = 1;
place = (0,21);
target = up;
type = BottomGhost;
},
{
horizontal = 1;
place = (525,83);
type = Stem;
},
{
horizontal = 1;
place = (720,-20);
target = down;
type = TopGhost;
},
{
place = (45,195);
type = Stem;
},
{
place = (340,195);
type = Stem;
}
);
layerId = "58D608FC-F2A7-4C81-9CF8-8074D1767F25";
shapes = (
{
closed = 1;
nodes = (
(340,443,l),
(240,443,l),
(240,475,l),
(45,475,l),
(45,0,l),
(240,0,l),
(240,283,l),
(340,283,l),
(340,0,l),
(535,0,l),
(535,475,l),
(340,475,l)
);
},
{
closed = 1;
nodes = (
(240,720,l),
(45,720,l),
(45,658,l),
(240,658,l)
);
},
{
closed = 1;
nodes = (
(535,720,l),
(340,720,l),
(340,658,l),
(535,658,l)
);
},
{
closed = 1;
nodes = (
(565,525,l),
(565,608,l),
(15,608,l),
(15,525,l)
);
}
);
width = 580;
}
);
note = Hbar;
unicode = 294;
},
{
color = 4;
glyphname = Hcircumflex;
kernLeft = H;
lastChange = "2023-11-24 14:51:42 +0000";
layers = (
{
background = {
anchors = (
{
name = top.case;
pos = (290,889);
}
);
hints = (
{
horizontal = 1;
place = (0,21);
target = up;
type = BottomGhost;
},
{
horizontal = 1;
place = (720,-20);
target = down;
type = TopGhost;
},
{
place = (45,195);
type = Stem;
},
{
place = (340,195);
type = Stem;
},
{
horizontal = 1;
place = (761,120);
type = Stem;
}
);
shapes = (
{
closed = 1;
nodes = (
(340,233,l),
(340,0,l),
(535,0,l),
(535,233,l)
);
},
{
closed = 1;
nodes = (
(535,492,l),
(535,720,l),
(340,720,l),
(340,492,l)
);
},
{
closed = 1;
nodes = (
(240,245,l),
(240,720,l),
(45,720,l),
(45,245,l)
);
},
{
closed = 1;
nodes = (
(45,299,l),
(45,0,l),
(240,0,l),
(240,299,l)
);
},
{
closed = 1;
nodes = (
(535,284,l),
(535,443,l),
(45,443,l),
(45,284,l)
);
},
{
closed = 1;
nodes = (
(121,771,l),
(245,771,l),
(269,794,l),
(207,866,l)
);
},
{
closed = 1;
nodes = (
(340,771,l),
(459,771,l),
(351,891,l),
(240,891,l)
);
}
);
};
hints = (
{
horizontal = 1;
place = (0,21);
target = up;
type = BottomGhost;
},
{
horizontal = 1;
place = (720,-20);
target = down;
type = TopGhost;
},
{
horizontal = 1;
place = (761,120);
type = Stem;
},
{
place = (45,195);
type = Stem;
},
{
place = (340,195);
type = Stem;
}
);
layerId = "58D608FC-F2A7-4C81-9CF8-8074D1767F25";
shapes = (
{
ref = H;
},
{
pos = (290,0);
ref = circumflexcomb.case;
}
);
width = 580;
}
);
note = Hcircumflex;
unicode = 292;
},
{
color = 4;
glyphname = I;
kernLeft = H;
lastChange = "2023-11-24 14:51:38 +0000";
layers = (
{
anchors = (
{
name = bottom;
pos = (142,-35);
},
{
name = ogonek;
pos = (135,10);
},
{
name = top.case;
pos = (142,740);
}
);
background = {
anchors = (
{
name = bottom;
pos = (142,-35);
},
{
name = ogonek;
pos = (135,10);
},
{
name = top.case;
pos = (142,740);
}
);
shapes = (
{
closed = 1;
nodes = (
(45,0,l),
(240,0,l),
(240,720,l),
(45,720,l)
);
}
);
};
hints = (
{
horizontal = 1;
place = (0,21);
target = up;
type = BottomGhost;
},
{
horizontal = 1;
place = (720,-20);
target = down;
type = TopGhost;
},
{
place = (45,195);
type = Stem;
}
);
layerId = "58D608FC-F2A7-4C81-9CF8-8074D1767F25";
shapes = (
{
closed = 1;
nodes = (
(45,0,l),
(240,0,l),
(240,720,l),
(45,720,l)
);
}
);
width = 285;
}
);
note = I;
unicode = 73;
},
{
color = 4;
glyphname = IJ;
lastChange = "2023-11-24 14:51:42 +0000";
layers = (
{
background = {
anchors = (
{
name = bottom;
pos = (142,-35);
},
{
name = ogonek;
pos = (135,10);
},
{
name = top.case;
pos = (565,740);
}
);
hints = (
{
horizontal = 1;
place = (0,21);
target = up;
type = BottomGhost;
},
{
horizontal = 1;
place = (720,-20);
target = down;
type = TopGhost;
},
{
place = (45,195);
type = Stem;
},
{
horizontal = 1;
place = (-10,168);
type = Stem;
},
{
horizontal = 1;
place = (720,-20);
target = down;
type = TopGhost;
},
{
place = (473,195);
type = Stem;
}
);
shapes = (
{
closed = 1;
nodes = (
(45,0,l),
(240,0,l),
(240,720,l),
(45,720,l)
);
},
{
closed = 1;
nodes = (
(473,281,ls),
(473,183,o),
(461,158,o),
(383,158,cs),
(360,158,o),
(335,163,o),
(314,169,c),
(295,10,l),
(330,-1,o),
(409,-10,o),
(447,-10,cs),
(612,-10,o),
(668,24,o),
(668,215,cs),
(668,720,l),
(418,720,l),
(473,583,l)
);
}
);
};
layerId = "58D608FC-F2A7-4C81-9CF8-8074D1767F25";
shapes = (
{
ref = I;
},
{
pos = (285,0);
ref = J;
}
);
width = 708;
}
);
unicode = 306;
},
{
color = 4;
glyphname = Iacute;
kernLeft = H;
lastChange = "2023-11-24 14:51:42 +0000";
layers = (
{
background = {
anchors = (
{
name = bottom;
pos = (142,-35);
},
{
name = ogonek;
pos = (135,10);
},
{
name = top.case;
pos = (142,740);
}
);
hints = (
{
horizontal = 1;
place = (0,21);
target = up;
type = BottomGhost;
},
{
horizontal = 1;
place = (720,-20);
target = down;
type = TopGhost;
},
{
place = (45,195);
type = Stem;
},
{
horizontal = 1;
origin = (0,3);
place = (720,120);
type = Stem;
}
);
shapes = (
{
closed = 1;
nodes = (
(45,0,l),
(240,0,l),
(240,720,l),
(45,720,l)
);
},
{
closed = 1;
nodes = (
(64,771,l),
(215,771,l),
(295,891,l),
(109,891,l)
);
}
);
};
hints = (
{
horizontal = 1;
place = (0,21);
target = up;
type = BottomGhost;
},
{
horizontal = 1;
place = (720,-20);
target = down;
type = TopGhost;
},
{
horizontal = 1;
place = (761,120);
type = Stem;
},
{
place = (45,195);
type = Stem;
}
);
layerId = "58D608FC-F2A7-4C81-9CF8-8074D1767F25";
shapes = (
{
ref = I;
},
{
pos = (180,0);
ref = acutecomb.case;
}
);
width = 285;
}
);
note = Iacute;
unicode = 205;
},
{
color = 4;
glyphname = Ibreve;
kernLeft = H;
lastChange = "2023-11-24 14:51:42 +0000";
layers = (
{
background = {
anchors = (
{
name = bottom;
pos = (142,-35);
},
{
name = ogonek;
pos = (135,10);
},
{
name = top.case;
pos = (142,906);
}
);
hints = (
{
horizontal = 1;
place = (0,21);
target = up;
type = BottomGhost;
},
{
horizontal = 1;
place = (720,-20);
target = down;
type = TopGhost;
},
{
place = (45,195);
type = Stem;
},
{
horizontal = 1;
place = (746,104);
type = Stem;
},
{
horizontal = 1;
place = (746,142);
type = Stem;
}
);
shapes = (
{
closed = 1;
nodes = (
(45,0,l),
(240,0,l),
(240,720,l),
(45,720,l)
);
},
{
closed = 1;
nodes = (
(244,771,o),
(285,814,o),
(295,911,c),
(209,911,l),
(198,883,o),
(178,870,o),
(142,870,cs),
(106,870,o),
(86,883,o),
(75,911,c),
(-11,911,l),
(-1,814,o),
(40,771,o),
(142,771,cs)
);
}
);
};
hints = (
{
horizontal = 1;
place = (0,21);
target = up;
type = BottomGhost;
},
{
horizontal = 1;
place = (720,-20);
target = down;
type = TopGhost;
},
{
horizontal = 1;
place = (746,104);
type = Stem;
},
{
horizontal = 1;
place = (746,142);
type = Stem;
},
{
place = (45,195);
type = Stem;
}
);
layerId = "58D608FC-F2A7-4C81-9CF8-8074D1767F25";
shapes = (
{
ref = I;
},
{
pos = (142,0);
ref = brevecomb.case;
}
);
width = 285;
}
);
note = Ibreve;
unicode = 300;
},
{
color = 4;
glyphname = Icircumflex;
kernLeft = H;
lastChange = "2023-11-24 14:51:42 +0000";
layers = (
{
background = {
anchors = (
{
name = bottom;
pos = (142,-35);
},
{
name = ogonek;
pos = (135,10);
},
{
name = top.case;
pos = (142,889);
}
);
hints = (
{
horizontal = 1;
place = (0,21);
target = up;
type = BottomGhost;
},
{
horizontal = 1;
place = (720,-20);
target = down;
type = TopGhost;
},
{
place = (45,195);
type = Stem;
},
{
horizontal = 1;
place = (761,120);
type = Stem;
}
);
shapes = (
{
closed = 1;
nodes = (
(45,0,l),
(240,0,l),
(240,720,l),
(45,720,l)
);
},
{
closed = 1;
nodes = (
(-27,771,l),
(97,771,l),
(121,794,l),
(59,866,l)
);
},
{
closed = 1;
nodes = (
(192,771,l),
(311,771,l),
(203,891,l),
(92,891,l)
);
}
);
};
hints = (
{
horizontal = 1;
place = (0,21);
target = up;
type = BottomGhost;
},
{
horizontal = 1;
place = (720,-20);
target = down;
type = TopGhost;
},
{
horizontal = 1;
place = (761,120);
type = Stem;
},
{
place = (45,195);
type = Stem;
}
);
layerId = "58D608FC-F2A7-4C81-9CF8-8074D1767F25";
shapes = (
{
ref = I;
},
{
pos = (142,0);
ref = circumflexcomb.case;
}
);
width = 285;
}
);
note = Icircumflex;
unicode = 206;
},
{
color = 4;
glyphname = Idblgrave;
lastChange = "2023-11-24 14:51:42 +0000";
layers = (
{
background = {
anchors = (
{
name = bottom;
pos = (142,-35);
},
{
name = ogonek;
pos = (135,10);
},
{
name = top.case;
pos = (142,740);
}
);
hints = (
{
horizontal = 1;
place = (0,21);
target = up;
type = BottomGhost;
},
{
horizontal = 1;
place = (720,-20);
target = down;
type = TopGhost;
},
{
place = (45,195);
type = Stem;
}
);
shapes = (
{
closed = 1;
nodes = (
(45,0,l),
(240,0,l),
(240,720,l),
(45,720,l)
);
},
{
closed = 1;
nodes = (
(106,891,l),
(170,771,l),
(321,771,l),
(276,891,l)
);
},
{
closed = 1;
nodes = (
(-118,891,l),
(-34,771,l),
(117,771,l),
(52,891,l)
);
}
);
};
layerId = "58D608FC-F2A7-4C81-9CF8-8074D1767F25";
shapes = (
{
ref = I;
},
{
pos = (104,0);
ref = dblgravecomb.case;
}
);
width = 285;
}
);
unicode = 520;
},
{
color = 4;
glyphname = Idieresis;
kernLeft = H;
lastChange = "2023-11-24 14:51:42 +0000";
layers = (
{
background = {
anchors = (
{
name = bottom;
pos = (142,-35);
},
{
name = ogonek;
pos = (135,10);
},
{
name = top.case;
pos = (142,895);
}
);
hints = (
{
horizontal = 1;
place = (0,21);
target = up;
type = BottomGhost;
},
{
horizontal = 1;
place = (720,-20);
target = down;
type = TopGhost;
},
{
place = (45,195);
type = Stem;
},
{
horizontal = 1;
place = (753,165);
type = Stem;
},
{
place = (160,160);
type = Stem;
},
{
place = (359,180);
type = Stem;
},
{
place = (145,180);
type = Stem;
},
{
place = (364,160);
type = Stem;
},
{
horizontal = 1;
place = (768,165);
type = Stem;
},
{
place = (-40,160);
type = Stem;
},
{
place = (164,160);
type = Stem;
}
);
shapes = (
{
closed = 1;
nodes = (
(45,0,l),
(240,0,l),
(240,720,l),
(45,720,l)
);
},
{
closed = 1;
nodes = (
(-40,777,l),
(120,777,l),
(120,913,l),
(-40,913,l)
);
},
{
closed = 1;
nodes = (
(164,777,l),
(324,777,l),
(324,913,l),
(164,913,l)
);
}
);
};
hints = (
{
horizontal = 1;
place = (0,21);
target = up;
type = BottomGhost;
},
{
horizontal = 1;
place = (720,-20);
target = down;
type = TopGhost;
},
{
place = (45,195);
type = Stem;
}
);
layerId = "58D608FC-F2A7-4C81-9CF8-8074D1767F25";
shapes = (
{
ref = I;
},
{
pos = (142,0);
ref = dieresiscomb.case;
}
);
width = 285;
}
);
note = Idieresis;
unicode = 207;
},
{
color = 4;
glyphname = Idotaccent;
kernLeft = H;
lastChange = "2023-11-24 14:51:42 +0000";
layers = (
{
background = {
anchors = (
{
name = bottom;
pos = (142,-35);
},
{
name = ogonek;
pos = (135,10);
},
{
name = top.case;
pos = (142,895);
}
);
hints = (
{
horizontal = 1;
place = (0,21);
target = up;
type = BottomGhost;
},
{
horizontal = 1;
place = (720,-20);
target = down;
type = TopGhost;
},
{
place = (45,195);
type = Stem;
},
{
horizontal = 1;
place = (753,165);
type = Stem;
},
{
place = (254,176);
type = Stem;
},
{
horizontal = 1;
place = (764,173);
type = Stem;
},
{
place = (47,190);
type = Stem;
}
);
shapes = (
{
closed = 1;
nodes = (
(45,0,l),
(240,0,l),
(240,720,l),
(45,720,l)
);
},
{
closed = 1;
nodes = (
(47,777,l),
(237,777,l),
(237,913,l),
(47,913,l)
);
}
);
};
hints = (
{
horizontal = 1;
place = (0,21);
target = up;
type = BottomGhost;
},
{
horizontal = 1;
place = (720,-20);
target = down;
type = TopGhost;
},
{
horizontal = 1;
place = (753,165);
type = Stem;
},
{
place = (45,195);
type = Stem;
},
{
place = (55,176);
type = Stem;
}
);
layerId = "58D608FC-F2A7-4C81-9CF8-8074D1767F25";
shapes = (
{
ref = I;
},
{
pos = (142,0);
ref = dotaccentcomb.case;
}
);
width = 285;
}
);
note = Idotaccent;
unicode = 304;
},
{
color = 4;
glyphname = Idotbelow;
lastChange = "2023-11-24 14:51:42 +0000";
layers = (
{
background = {
anchors = (
{
name = bottom;
pos = (142,-35);
},
{
name = ogonek;
pos = (135,10);
},
{
name = top.case;
pos = (142,740);
}
);
hints = (
{
horizontal = 1;
place = (0,21);
target = up;
type = BottomGhost;
},
{
horizontal = 1;
place = (720,-20);
target = down;
type = TopGhost;
},
{
place = (45,195);
type = Stem;
},
{
horizontal = 1;
place = (-195,173);
type = Stem;
},
{
place = (47,190);
type = Stem;
}
);
shapes = (
{
closed = 1;
nodes = (
(45,0,l),
(240,0,l),
(240,720,l),
(45,720,l)
);
},
{
closed = 1;
nodes = (
(47,-182,l),
(237,-182,l),
(237,-46,l),
(47,-46,l)
);
}
);
};
layerId = "58D608FC-F2A7-4C81-9CF8-8074D1767F25";
shapes = (
{
ref = I;
},
{
pos = (142,0);
ref = dotbelowcomb;
}
);
width = 285;
}
);
unicode = 7882;
},
{
color = 4;
glyphname = Igrave;
kernLeft = H;
lastChange = "2023-11-24 14:51:42 +0000";
layers = (
{
background = {
anchors = (
{
name = bottom;
pos = (142,-35);
},
{
name = ogonek;
pos = (135,10);
},
{
name = top.case;
pos = (142,740);
}
);
hints = (
{
horizontal = 1;
place = (0,21);
target = up;
type = BottomGhost;
},
{
horizontal = 1;
place = (720,-20);
target = down;
type = TopGhost;
},
{
place = (45,195);
type = Stem;
},
{
horizontal = 1;
place = (761,120);
type = Stem;
}
);
shapes = (
{
closed = 1;
nodes = (
(45,0,l),
(240,0,l),
(240,720,l),
(45,720,l)
);
},
{
closed = 1;
nodes = (
(-6,891,l),
(74,771,l),
(225,771,l),
(180,891,l)
);
}
);
};
hints = (
{
horizontal = 1;
place = (0,21);
target = up;
type = BottomGhost;
},
{
horizontal = 1;
place = (720,-20);
target = down;
type = TopGhost;
},
{
horizontal = 1;
place = (761,120);
type = Stem;
},
{
place = (45,195);
type = Stem;
}
);
layerId = "58D608FC-F2A7-4C81-9CF8-8074D1767F25";
shapes = (
{
ref = I;
},
{
pos = (109,0);
ref = gravecomb.case;
}
);
width = 285;
}
);
note = Igrave;
unicode = 204;
},
{
color = 4;
glyphname = Ihookabove;
lastChange = "2023-11-24 14:51:42 +0000";
layers = (
{
background = {
anchors = (
{
name = bottom;
pos = (142,-35);
},
{
name = ogonek;
pos = (135,10);
},
{
name = top.case;
pos = (142,740);
}
);
hints = (
{
horizontal = 1;
place = (0,21);
target = up;
type = BottomGhost;
},
{
horizontal = 1;
place = (720,-20);
target = down;
type = TopGhost;
},
{
place = (45,195);
type = Stem;
}
);
shapes = (
{
closed = 1;
nodes = (
(45,0,l),
(240,0,l),
(240,720,l),
(45,720,l)
);
},
{
closed = 1;
nodes = (
(138,831,o),
(94,809,c),
(137,757,l),
(283,795,o),
(282,974,o),
(126,974,cs),
(100,974,o),
(70,969,o),
(47,961,c),
(40,875,l),
(50,879,o),
(72,883,o),
(92,883,cs),
(146,883,o)
);
}
);
};
layerId = "58D608FC-F2A7-4C81-9CF8-8074D1767F25";
shapes = (
{
ref = I;
},
{
pos = (142,0);
ref = hookabovecomb.case;
}
);
width = 285;
}
);
unicode = 7880;
},
{
color = 4;
glyphname = Iinvertedbreve;
lastChange = "2023-11-24 14:51:42 +0000";
layers = (
{
background = {
anchors = (
{
name = bottom;
pos = (142,-35);
},
{
name = ogonek;
pos = (135,10);
},
{
name = top.case;
pos = (142,740);
}
);
hints = (
{
horizontal = 1;
place = (0,21);
target = up;
type = BottomGhost;
},
{
horizontal = 1;
place = (720,-20);
target = down;
type = TopGhost;
},
{
place = (45,195);
type = Stem;
},
{
horizontal = 1;
place = (746,104);
type = Stem;
},
{
horizontal = 1;
place = (746,142);
type = Stem;
},
{
horizontal = 1;
origin = (0,3);
place = (720,-104);
type = Stem;
},
{
horizontal = 1;
origin = (0,3);
place = (720,-142);
type = Stem;
}
);
shapes = (
{
closed = 1;
nodes = (
(45,0,l),
(240,0,l),
(240,720,l),
(45,720,l)
);
},
{
closed = 1;
nodes = (
(40,912,o),
(-1,869,o),
(-11,772,c),
(75,772,l),
(86,800,o),
(106,813,o),
(142,813,cs),
(178,813,o),
(198,800,o),
(209,772,c),
(295,772,l),
(285,869,o),
(244,912,o),
(142,912,cs)
);
}
);
};
layerId = "58D608FC-F2A7-4C81-9CF8-8074D1767F25";
shapes = (
{
ref = I;
},
{
pos = (142,0);
ref = breveinvertedcomb.case;
}
);
width = 285;
}
);
unicode = 522;
},
{
color = 4;
glyphname = Imacron;
kernLeft = H;
lastChange = "2023-11-24 14:51:42 +0000";
layers = (
{
background = {
anchors = (
{
name = bottom;
pos = (142,-35);
},
{
name = ogonek;
pos = (135,10);
},
{
name = top.case;
pos = (142,740);
}
);
hints = (
{
horizontal = 1;
place = (0,21);
target = up;
type = BottomGhost;
},
{
horizontal = 1;
place = (720,-20);
target = down;
type = TopGhost;
},
{
place = (45,195);
type = Stem;
},
{
horizontal = 1;
place = (778,103);
type = Stem;
},
{
horizontal = 1;
place = (786.589,110.885);
type = Stem;
}
);
shapes = (
{
closed = 1;
nodes = (
(45,0,l),
(240,0,l),
(240,720,l),
(45,720,l)
);
},
{
closed = 1;
nodes = (
(-6,787,l),
(290,787,l),
(290,897,l),
(-6,897,l)
);
}
);
};
hints = (
{
horizontal = 1;
place = (0,21);
target = up;
type = BottomGhost;
},
{
horizontal = 1;
place = (720,-20);
target = down;
type = TopGhost;
},
{
horizontal = 1;
place = (778,103);
type = Stem;
},
{
place = (45,195);
type = Stem;
}
);
layerId = "58D608FC-F2A7-4C81-9CF8-8074D1767F25";
shapes = (
{
ref = I;
},
{
pos = (142,0);
ref = macroncomb.case;
}
);
width = 285;
}
);
note = Imacron;
unicode = 298;
},
{
color = 4;
glyphname = Iogonek;
kernLeft = H;
lastChange = "2023-11-24 14:51:42 +0000";
layers = (
{
background = {
anchors = (
{
name = bottom;
pos = (142,-35);
},
{
name = ogonek;
pos = (135,10);
},
{
name = top.case;
pos = (142,740);
}
);
hints = (
{
horizontal = 1;
place = (0,21);
target = up;
type = BottomGhost;
},
{
horizontal = 1;
place = (720,-20);
target = down;
type = TopGhost;
},
{
place = (45,195);
type = Stem;
},
{
horizontal = 1;
place = (-160,68);
type = Stem;
},
{
horizontal = 1;
place = (55,-20);
target = down;
type = TopGhost;
},
{
place = (53,197);
type = Stem;
}
);
shapes = (
{
closed = 1;
nodes = (
(45,0,l),
(240,0,l),
(240,720,l),
(45,720,l)
);
},
{
closed = 1;
nodes = (
(56,-109,o),
(92,-160,o),
(182,-160,cs),
(208,-160,o),
(238,-154,o),
(263,-146,c),
(237,-181,l),
(237,-46,l),
(252,-72,l),
(212,-83,o),
(190,-76,o),
(184,-51,c),
(68,-51,l)
);
}
);
};
hints = (
{
horizontal = 1;
place = (-160,68);
type = Stem;
},
{
horizontal = 1;
place = (0,21);
target = up;
type = BottomGhost;
},
{
horizontal = 1;
place = (55,-20);
target = down;
type = TopGhost;
},
{
horizontal = 1;
place = (720,-20);
target = down;
type = TopGhost;
},
{
place = (45,195);
type = Stem;
},
{
place = (43,197);
type = Stem;
},
{
place = (43,111);
type = Stem;
}
);
layerId = "58D608FC-F2A7-4C81-9CF8-8074D1767F25";
shapes = (
{
ref = I;
},
{
pos = (151,0);
ref = ogonekcomb;
}
);
width = 285;
}
);
note = Iogonek;
unicode = 302;
},
{
color = 4;
glyphname = Itilde;
kernLeft = H;
lastChange = "2023-11-24 14:51:42 +0000";
layers = (
{
background = {
anchors = (
{
name = bottom;
pos = (142,-35);
},
{
name = ogonek;
pos = (135,10);
},
{
name = top.case;
pos = (142,895);
}
);
hints = (
{
horizontal = 1;
place = (0,21);
target = up;
type = BottomGhost;
},
{
horizontal = 1;
place = (720,-20);
target = down;
type = TopGhost;
},
{
place = (45,195);
type = Stem;
},
{
horizontal = 1;
place = (774,41);
type = Stem;
},
{
horizontal = 1;
place = (815,94);
type = Stem;
}
);
shapes = (
{
closed = 1;
nodes = (
(45,0,l),
(240,0,l),
(240,720,l),
(45,720,l)
);
},
{
closed = 1;
nodes = (
(210,909,l),
(210,894,o),
(205,882,o),
(187,882,cs),
(167,882,o),
(133,917,o),
(92,917,cs),
(28,917,o),
(-3,873,o),
(-3,815,cs),
(-3,802,o),
(-1,788,o),
(2,774,c),
(73,774,l),
(73,789,o),
(78,801,o),
(96,801,cs),
(116,801,o),
(150,766,o),
(191,766,cs),
(255,766,o),
(286,810,o),
(286,868,cs),
(286,881,o),
(284,895,o),
(281,909,c)
);
}
);
};
hints = (
{
horizontal = 1;
place = (0,21);
target = up;
type = BottomGhost;
},
{
horizontal = 1;
place = (720,-20);
target = down;
type = TopGhost;
},
{
horizontal = 1;
place = (738,116);
type = Stem;
},
{
horizontal = 1;
place = (773,81);
type = Stem;
},
{
horizontal = 1;
place = (773,116);
type = Stem;
},
{
place = (45,195);
type = Stem;
}
);
layerId = "58D608FC-F2A7-4C81-9CF8-8074D1767F25";
shapes = (
{
ref = I;
},
{
pos = (142,0);
ref = tildecomb.case;
}
);
width = 285;
}
);
note = Itilde;
unicode = 296;
},
{
color = 4;
glyphname = J;
kernLeft = J;
kernRight = J;
lastChange = "2023-11-24 14:51:38 +0000";
layers = (
{
anchors = (
{
name = top.case;
pos = (280,740);
}
);
background = {
anchors = (
{
name = top.case;
pos = (280,740);
}
);
shapes = (
{
closed = 1;
nodes = (
(188,281,ls),
(188,183,o),
(176,158,o),
(98,158,cs),
(75,158,o),
(50,163,o),
(29,169,c),
(10,10,l),
(45,-1,o),
(124,-10,o),
(162,-10,cs),
(327,-10,o),
(383,24,o),
(383,215,cs),
(383,720,l),
(133,720,l),
(188,583,l)
);
}
);
};
hints = (
{
horizontal = 1;
place = (-10,168);
type = Stem;
},
{
horizontal = 1;
place = (720,-20);
target = down;
type = TopGhost;
},
{
place = (188,195);
type = Stem;
}
);
layerId = "58D608FC-F2A7-4C81-9CF8-8074D1767F25";
shapes = (
{
closed = 1;
nodes = (
(188,281,ls),
(188,183,o),
(176,158,o),
(98,158,cs),
(75,158,o),
(50,163,o),
(29,169,c),
(10,10,l),
(45,-1,o),
(124,-10,o),
(162,-10,cs),
(327,-10,o),
(383,24,o),
(383,215,cs),
(383,720,l),
(133,720,l),
(188,583,l)
);
}
);
width = 423;
}
);
note = J;
unicode = 74;
},
{
color = 4;
glyphname = Jcircumflex;
kernLeft = J;
kernRight = J;
lastChange = "2023-11-24 14:51:42 +0000";
layers = (
{
background = {
anchors = (
{
name = top.case;
pos = (280,889);
}
);
hints = (
{
horizontal = 1;
place = (-10,168);
type = Stem;
},
{
horizontal = 1;
place = (720,-20);
target = down;
type = TopGhost;
},
{
place = (188,195);
type = Stem;
},
{
horizontal = 1;
place = (761,120);
type = Stem;
}
);
shapes = (
{
closed = 1;
nodes = (
(188,281,ls),
(188,183,o),
(176,158,o),
(98,158,cs),
(75,158,o),
(50,163,o),
(29,169,c),
(10,10,l),
(45,-1,o),
(124,-10,o),
(162,-10,cs),
(327,-10,o),
(383,24,o),
(383,215,cs),
(383,720,l),
(133,720,l),
(188,583,l)
);
},
{
closed = 1;
nodes = (
(111,771,l),
(235,771,l),
(259,794,l),
(197,866,l)
);
},
{
closed = 1;
nodes = (
(330,771,l),
(449,771,l),
(341,891,l),
(230,891,l)
);
}
);
};
hints = (
{
horizontal = 1;
place = (-10,168);
type = Stem;
},
{
horizontal = 1;
place = (720,-20);
target = down;
type = TopGhost;
},
{
horizontal = 1;
place = (761,120);
type = Stem;
},
{
place = (188,195);
type = Stem;
}
);
layerId = "58D608FC-F2A7-4C81-9CF8-8074D1767F25";
shapes = (
{
ref = J;
},
{
pos = (280,0);
ref = circumflexcomb.case;
}
);
width = 423;
}
);
note = Jcircumflex;
unicode = 308;
},
{
color = 4;
glyphname = K;
kernLeft = H;
kernRight = K;
lastChange = "2023-11-24 14:51:38 +0000";
layers = (
{
anchors = (
{
name = bottom;
pos = (280,-35);
},
{
name = top;
pos = (290,740);
}
);
background = {
anchors = (
{
name = bottom;
pos = (280,-35);
},
{
name = top;
pos = (290,740);
}
);
shapes = (
{
closed = 1;
nodes = (
(340,0,l),
(550,0,l),
(436,324,l),
(322,57,l)
);
},
{
closed = 1;
nodes = (
(240,720,l),
(45,720,l),
(45,130,l),
(240,588,l)
);
},
{
closed = 1;
nodes = (
(547,720,l),
(347,720,l),
(45,0,l),
(244,0,l)
);
}
);
};
hints = (
{
horizontal = 1;
place = (0,21);
target = up;
type = BottomGhost;
},
{
horizontal = 1;
place = (720,-20);
target = down;
type = TopGhost;
},
{
place = (45,195);
type = Stem;
}
);
layerId = "58D608FC-F2A7-4C81-9CF8-8074D1767F25";
shapes = (
{
closed = 1;
nodes = (
(340,0,l),
(550,0,l),
(436,324,l),
(322,57,l)
);
},
{
closed = 1;
nodes = (
(240,720,l),
(45,720,l),
(45,130,l),
(240,588,l)
);
},
{
closed = 1;
nodes = (
(547,720,l),
(347,720,l),
(45,0,l),
(244,0,l)
);
}
);
width = 565;
}
);
note = K;
unicode = 75;
},
{
color = 4;
glyphname = Kcommaaccent;
kernLeft = H;
kernRight = K;
lastChange = "2023-11-24 14:51:42 +0000";
layers = (
{
background = {
anchors = (
{
name = bottom;
pos = (280,-35);
},
{
name = top;
pos = (290,740);
}
);
hints = (
{
horizontal = 1;
place = (0,21);
target = up;
type = BottomGhost;
},
{
horizontal = 1;
place = (720,-20);
target = down;
type = TopGhost;
},
{
place = (45,195);
type = Stem;
},
{
horizontal = 1;
place = (-150,113);
type = Stem;
}
);
shapes = (
{
closed = 1;
nodes = (
(340,0,l),
(550,0,l),
(436,324,l),
(322,57,l)
);
},
{
closed = 1;
nodes = (
(240,720,l),
(45,720,l),
(45,130,l),
(240,588,l)
);
},
{
closed = 1;
nodes = (
(547,720,l),
(347,720,l),
(45,0,l),
(244,0,l)
);
},
{
closed = 1;
nodes = (
(312,-150,l),
(373,-37,l),
(202,-37,l),
(174,-150,l)
);
}
);
};
hints = (
{
horizontal = 1;
place = (-150,113);
type = Stem;
},
{
horizontal = 1;
place = (0,21);
target = up;
type = BottomGhost;
},
{
horizontal = 1;
place = (720,-20);
target = down;
type = TopGhost;
},
{
place = (45,195);
type = Stem;
}
);
layerId = "58D608FC-F2A7-4C81-9CF8-8074D1767F25";
shapes = (
{
ref = K;
},
{
pos = (273,0);
ref = commaaccentcomb;
}
);
width = 565;
}
);
note = Kcommaaccent;
unicode = 310;
},
{
color = 4;
glyphname = L;
kernLeft = H;
kernRight = L;
lastChange = "2023-11-24 14:51:38 +0000";
layers = (
{
anchors = (
{
name = bottom;
pos = (231,-35);
},
{
name = caron;
pos = (342,560);
},
{
name = top.case;
pos = (145,740);
}
);
background = {
anchors = (
{
name = bottom;
pos = (231,-35);
},
{
name = caron;
pos = (342,560);
},
{
name = top.case;
pos = (145,740);
}
);
shapes = (
{
closed = 1;
nodes = (
(45,0,l),
(430,0,l),
(461,170,l),
(45,170,l)
);
},
{
closed = 1;
nodes = (
(240,720,l),
(45,720,l),
(45,220,l),
(240,220,l)
);
}
);
};
hints = (
{
horizontal = 1;
place = (0,170);
type = Stem;
},
{
horizontal = 1;
place = (720,-20);
target = down;
type = TopGhost;
},
{
place = (45,195);
type = Stem;
}
);
layerId = "58D608FC-F2A7-4C81-9CF8-8074D1767F25";
shapes = (
{
closed = 1;
nodes = (
(45,0,l),
(430,0,l),
(461,170,l),
(45,170,l)
);
},
{
closed = 1;
nodes = (
(240,720,l),
(45,720,l),
(45,220,l),
(240,220,l)
);
}
);
width = 466;
}
);
note = L;
unicode = 76;
},
{
color = 4;
glyphname = LJ;
lastChange = "2023-11-24 14:51:42 +0000";
layers = (
{
background = {
anchors = (
{
name = bottom;
pos = (231,-35);
},
{
name = caron;
pos = (342,560);
},
{
name = top.case;
pos = (741,740);
}
);
hints = (
{
horizontal = 1;
place = (0,170);
type = Stem;
},
{
horizontal = 1;
place = (720,-20);
target = down;
type = TopGhost;
},
{
place = (45,195);
type = Stem;
},
{
horizontal = 1;
place = (-10,168);
type = Stem;
},
{
horizontal = 1;
place = (720,-20);
target = down;
type = TopGhost;
},
{
place = (649,195);
type = Stem;
}
);
shapes = (
{
closed = 1;
nodes = (
(45,0,l),
(430,0,l),
(461,170,l),
(45,170,l)
);
},
{
closed = 1;
nodes = (
(240,720,l),
(45,720,l),
(45,220,l),
(240,220,l)
);
},
{
closed = 1;
nodes = (
(649,281,ls),
(649,183,o),
(637,158,o),
(559,158,cs),
(536,158,o),
(511,163,o),
(490,169,c),
(471,10,l),
(506,-1,o),
(585,-10,o),
(623,-10,cs),
(788,-10,o),
(844,24,o),
(844,215,cs),
(844,720,l),
(594,720,l),
(649,583,l)
);
}
);
};
layerId = "58D608FC-F2A7-4C81-9CF8-8074D1767F25";
shapes = (
{
ref = L;
},
{
pos = (461,0);
ref = J;
}
);
width = 884;
}
);
unicode = 455;
},
{
color = 4;
glyphname = Lacute;
kernLeft = H;
kernRight = L;
lastChange = "2023-11-24 14:51:42 +0000";
layers = (
{
background = {
anchors = (
{
name = bottom;
pos = (231,-35);
},
{
name = caron;
pos = (342,560);
},
{
name = top.case;
pos = (145,740);
}
);
hints = (
{
horizontal = 1;
place = (0,170);
type = Stem;
},
{
horizontal = 1;
place = (720,-20);
target = down;
type = TopGhost;
},
{
place = (45,195);
type = Stem;
},
{
horizontal = 1;
origin = (0,3);
place = (170,120);
type = Stem;
}
);
shapes = (
{
closed = 1;
nodes = (
(45,0,l),
(430,0,l),
(461,170,l),
(45,170,l)
);
},
{
closed = 1;
nodes = (
(240,720,l),
(45,720,l),
(45,220,l),
(240,220,l)
);
},
{
closed = 1;
nodes = (
(67,771,l),
(218,771,l),
(298,891,l),
(112,891,l)
);
}
);
};
hints = (
{
horizontal = 1;
place = (0,170);
type = Stem;
},
{
horizontal = 1;
place = (720,-20);
target = down;
type = TopGhost;
},
{
horizontal = 1;
place = (761,120);
type = Stem;
},
{
place = (45,195);
type = Stem;
}
);
layerId = "58D608FC-F2A7-4C81-9CF8-8074D1767F25";
shapes = (
{
ref = L;
},
{
pos = (183,0);
ref = acutecomb.case;
}
);
width = 466;
}
);
note = Lacute;
unicode = 313;
},
{
color = 4;
glyphname = Lcaron;
kernLeft = H;
kernRight = L;
lastChange = "2023-11-24 14:51:42 +0000";
layers = (
{
background = {
anchors = (
{
name = bottom;
pos = (231,-35);
},
{
name = caron;
pos = (342,560);
},
{
name = top.case;
pos = (145,740);
}
);
hints = (
{
horizontal = 1;
place = (0,170);
type = Stem;
},
{
horizontal = 1;
place = (720,-20);
target = down;
type = TopGhost;
},
{
place = (45,195);
type = Stem;
},
{
horizontal = 1;
place = (600,155);
type = Stem;
}
);
shapes = (
{
closed = 1;
nodes = (
(45,0,l),
(430,0,l),
(461,170,l),
(45,170,l)
);
},
{
closed = 1;
nodes = (
(240,720,l),
(45,720,l),
(45,220,l),
(240,220,l)
);
},
{
closed = 1;
nodes = (
(269,600,l),
(405,600,l),
(465,755,l),
(300,755,l)
);
}
);
};
hints = (
{
horizontal = 1;
place = (0,170);
type = Stem;
},
{
horizontal = 1;
place = (720,-20);
target = down;
type = TopGhost;
},
{
place = (45,195);
type = Stem;
},
{
horizontal = 1;
place = (600,155);
type = Stem;
}
);
layerId = "58D608FC-F2A7-4C81-9CF8-8074D1767F25";
shapes = (
{
ref = L;
},
{
pos = (367,0);
ref = caroncomb.alt;
}
);
width = 466;
}
);
note = Lcaron;
unicode = 317;
},
{
color = 4;
glyphname = Lcommaaccent;
kernLeft = H;
kernRight = L;
lastChange = "2023-11-24 14:51:42 +0000";
layers = (
{
background = {
anchors = (
{
name = bottom;
pos = (231,-35);
},
{
name = caron;
pos = (342,560);
},
{
name = top.case;
pos = (145,740);
}
);
hints = (
{
horizontal = 1;
place = (0,170);
type = Stem;
},
{
horizontal = 1;
place = (720,-20);
target = down;
type = TopGhost;
},
{
place = (45,195);
type = Stem;
},
{
horizontal = 1;
place = (-150,113);
type = Stem;
}
);
shapes = (
{
closed = 1;
nodes = (
(45,0,l),
(430,0,l),
(461,170,l),
(45,170,l)
);
},
{
closed = 1;
nodes = (
(240,720,l),
(45,720,l),
(45,220,l),
(240,220,l)
);
},
{
closed = 1;
nodes = (
(263,-150,l),
(324,-37,l),
(153,-37,l),
(125,-150,l)
);
}
);
};
hints = (
{
horizontal = 1;
place = (-150,113);
type = Stem;
},
{
horizontal = 1;
place = (0,170);
type = Stem;
},
{
horizontal = 1;
place = (720,-20);
target = down;
type = TopGhost;
},
{
place = (45,195);
type = Stem;
}
);
layerId = "58D608FC-F2A7-4C81-9CF8-8074D1767F25";
shapes = (
{
ref = L;
},
{
pos = (224,0);
ref = commaaccentcomb;
}
);
width = 466;
}
);
note = Lcommaaccent;
unicode = 315;
},
{
color = 4;
glyphname = Ldot;
lastChange = "2023-11-24 14:51:42 +0000";
layers = (
{
background = {
anchors = (
{
name = bottom;
pos = (231,-35);
},
{
name = caron;
pos = (342,560);
},
{
name = top.case;
pos = (145,740);
}
);
hints = (
{
horizontal = 1;
place = (0,170);
type = Stem;
},
{
horizontal = 1;
place = (720,-20);
target = down;
type = TopGhost;
},
{
place = (45,195);
type = Stem;
},
{
horizontal = 1;
place = (224,190);
type = Stem;
},
{
place = (358,204);
type = Stem;
},
{
horizontal = 1;
place = (228,183);
type = Stem;
},
{
place = (370,178);
type = Stem;
}
);
shapes = (
{
closed = 1;
nodes = (
(45,0,l),
(430,0,l),
(461,170,l),
(45,170,l)
);
},
{
closed = 1;
nodes = (
(240,720,l),
(45,720,l),
(45,220,l),
(240,220,l)
);
},
{
closed = 1;
nodes = (
(372,238,l),
(548,238,l),
(548,403,l),
(372,403,l)
);
}
);
};
hints = (
{
horizontal = 1;
place = (0,170);
type = Stem;
},
{
horizontal = 1;
place = (224,190);
type = Stem;
},
{
horizontal = 1;
place = (720,-20);
target = down;
type = TopGhost;
},
{
place = (45,195);
type = Stem;
},
{
place = (352,204);
type = Stem;
}
);
layerId = "58D608FC-F2A7-4C81-9CF8-8074D1767F25";
shapes = (
{
alignment = -1;
ref = L;
},
{
alignment = -1;
pos = (310,0);
ref = periodcentered;
}
);
width = 573;
}
);
metricLeft = L;
note = Ldot;
unicode = 319;
},
{
color = 4;
glyphname = Lj;
lastChange = "2023-11-24 14:51:42 +0000";
layers = (
{
background = {
anchors = (
{
name = bottom;
pos = (231,-35);
},
{
name = caron;
pos = (342,560);
},
{
name = top;
pos = (596,774);
},
{
name = top.case;
pos = (145,740);
}
);
hints = (
{
horizontal = 1;
place = (0,170);
type = Stem;
},
{
horizontal = 1;
place = (720,-20);
target = down;
type = TopGhost;
},
{
place = (45,195);
type = Stem;
},
{
horizontal = 1;
place = (-150,21);
target = up;
type = BottomGhost;
},
{
horizontal = 1;
place = (606,173);
type = Stem;
},
{
place = (506,180);
type = Stem;
},
{
horizontal = 1;
place = (575,31);
type = Stem;
},
{
horizontal = 1;
place = (606,173);
type = Stem;
},
{
place = (501,190);
type = Stem;
}
);
shapes = (
{
closed = 1;
nodes = (
(45,0,l),
(430,0,l),
(461,170,l),
(45,170,l)
);
},
{
closed = 1;
nodes = (
(240,720,l),
(45,720,l),
(45,220,l),
(240,220,l)
);
},
{
closed = 1;
nodes = (
(506,-150,l),
(686,-125,l),
(686,575,l),
(506,575,l)
);
},
{
closed = 1;
nodes = (
(501,619,l),
(691,619,l),
(691,755,l),
(501,755,l)
);
}
);
};
layerId = "58D608FC-F2A7-4C81-9CF8-8074D1767F25";
shapes = (
{
ref = L;
},
{
pos = (466,0);
ref = j;
}
);
width = 726;
}
);
unicode = 456;
},
{
color = 4;
glyphname = Lslash;
kernLeft = Dcroat;
kernRight = L;
lastChange = "2023-11-24 14:51:38 +0000";
layers = (
{
background = {
shapes = (
{
closed = 1;
nodes = (
(-18,298,l),
(331,435,l),
(331,537,l),
(-18,401,l)
);
},
{
closed = 1;
nodes = (
(45,0,l),
(430,0,l),
(461,170,l),
(240,170,l),
(240,346,l),
(45,269,l)
);
},
{
closed = 1;
nodes = (
(240,720,l),
(45,720,l),
(45,477,l),
(240,554,l)
);
}
);
};
hints = (
{
horizontal = 1;
place = (0,170);
type = Stem;
},
{
horizontal = 1;
place = (308,21);
target = up;
type = BottomGhost;
},
{
horizontal = 1;
place = (546,-20);
target = down;
type = TopGhost;
},
{
horizontal = 1;
place = (720,-20);
target = down;
type = TopGhost;
},
{
place = (44,195);
type = Stem;
}
);
layerId = "58D608FC-F2A7-4C81-9CF8-8074D1767F25";
shapes = (
{
closed = 1;
nodes = (
(-18,298,l),
(331,435,l),
(331,537,l),
(-18,401,l)
);
},
{
closed = 1;
nodes = (
(45,0,l),
(430,0,l),
(461,170,l),
(240,170,l),
(240,346,l),
(45,269,l)
);
},
{
closed = 1;
nodes = (
(240,720,l),
(45,720,l),
(45,477,l),
(240,554,l)
);
}
);
width = 466;
}
);
metricRight = L;
note = Lslash;
unicode = 321;
},
{
color = 4;
glyphname = M;
kernLeft = B;
lastChange = "2023-11-24 14:51:38 +0000";
layers = (
{
background = {
shapes = (
{
closed = 1;
nodes = (
(45,0,l),
(235,0,l),
(235,180,l),
(45,516,l)
);
},
{
closed = 1;
nodes = (
(502,0,l),
(692,0,l),
(692,594,l),
(502,216,l)
);
},
{
closed = 1;
nodes = (
(703,720,l),
(508,720,l),
(355,391,l),
(381,391,l),
(228,720,l),
(-20,720,l),
(313,148,l),
(414,148,l)
);
}
);
};
guides = (
{
angle = 90;
pos = (323,296);
},
{
angle = 90;
pos = (413,290);
}
);
hints = (
{
horizontal = 1;
place = (0,21);
target = up;
type = BottomGhost;
},
{
horizontal = 1;
place = (720,-20);
target = down;
type = TopGhost;
},
{
place = (55,190);
type = Stem;
},
{
place = (492,180);
type = Stem;
}
);
layerId = "58D608FC-F2A7-4C81-9CF8-8074D1767F25";
shapes = (
{
closed = 1;
nodes = (
(45,0,l),
(235,0,l),
(235,180,l),
(45,516,l)
);
},
{
closed = 1;
nodes = (
(502,0,l),
(692,0,l),
(692,594,l),
(502,216,l)
);
},
{
closed = 1;
nodes = (
(703,720,l),
(508,720,l),
(355,391,l),
(381,391,l),
(228,720,l),
(-20,720,l),
(313,148,l),
(414,148,l)
);
}
);
width = 737;
}
);
note = M;
unicode = 77;
},
{
color = 4;
glyphname = N;
kernLeft = B;
lastChange = "2023-11-24 14:51:38 +0000";
layers = (
{
anchors = (
{
name = bottom;
pos = (342,-35);
},
{
name = top.case;
pos = (339,740);
}
);
background = {
anchors = (
{
name = bottom;
pos = (342,-35);
},
{
name = top.case;
pos = (339,740);
}
);
shapes = (
{
closed = 1;
nodes = (
(41,0,l),
(231,0,l),
(231,149,l),
(41,533,l)
);
},
{
closed = 1;
nodes = (
(232,720,l),
(0,720,l),
(359,0,l),
(593,0,l)
);
},
{
closed = 1;
nodes = (
(593,720,l),
(403,720,l),
(403,481,l),
(593,112,l)
);
}
);
};
hints = (
{
horizontal = 1;
place = (0,21);
target = up;
type = BottomGhost;
},
{
horizontal = 1;
place = (720,-20);
target = down;
type = TopGhost;
},
{
place = (61,190);
type = Stem;
},
{
place = (383,190);
type = Stem;
}
);
layerId = "58D608FC-F2A7-4C81-9CF8-8074D1767F25";
shapes = (
{
closed = 1;
nodes = (
(41,0,l),
(231,0,l),
(231,149,l),
(41,533,l)
);
},
{
closed = 1;
nodes = (
(232,720,l),
(0,720,l),
(359,0,l),
(593,0,l)
);
},
{
closed = 1;
nodes = (
(593,720,l),
(403,720,l),
(403,481,l),
(593,112,l)
);
}
);
width = 638;
}
);
note = N;
unicode = 78;
},
{
color = 4;
glyphname = NJ;
lastChange = "2023-11-24 14:51:42 +0000";
layers = (
{
background = {
anchors = (
{
name = bottom;
pos = (342,-35);
},
{
name = top.case;
pos = (918,740);
}
);
hints = (
{
horizontal = 1;
place = (0,21);
target = up;
type = BottomGhost;
},
{
horizontal = 1;
place = (720,-20);
target = down;
type = TopGhost;
},
{
place = (61,190);
type = Stem;
},
{
place = (383,190);
type = Stem;
},
{
horizontal = 1;
place = (-10,168);
type = Stem;
},
{
horizontal = 1;
place = (720,-20);
target = down;
type = TopGhost;
},
{
place = (826,195);
type = Stem;
}
);
shapes = (
{
closed = 1;
nodes = (
(41,0,l),
(231,0,l),
(231,149,l),
(41,533,l)
);
},
{
closed = 1;
nodes = (
(232,720,l),
(0,720,l),
(359,0,l),
(593,0,l)
);
},
{
closed = 1;
nodes = (
(593,720,l),
(403,720,l),
(403,481,l),
(593,112,l)
);
},
{
closed = 1;
nodes = (
(826,281,ls),
(826,183,o),
(814,158,o),
(736,158,cs),
(713,158,o),
(688,163,o),
(667,169,c),
(648,10,l),
(683,-1,o),
(762,-10,o),
(800,-10,cs),
(965,-10,o),
(1021,24,o),
(1021,215,cs),
(1021,720,l),
(771,720,l),
(826,583,l)
);
}
);
};
layerId = "58D608FC-F2A7-4C81-9CF8-8074D1767F25";
shapes = (
{
ref = N;
},
{
pos = (638,0);
ref = J;
}
);
width = 1061;
}
);
unicode = 458;
},
{
color = 4;
glyphname = Nacute;
kernLeft = B;
lastChange = "2023-11-24 14:51:42 +0000";
layers = (
{
background = {
anchors = (
{
name = bottom;
pos = (342,-35);
},
{
name = top.case;
pos = (339,740);
}
);
hints = (
{
horizontal = 1;
place = (0,21);
target = up;
type = BottomGhost;
},
{
horizontal = 1;
place = (720,-20);
target = down;
type = TopGhost;
},
{
place = (61,190);
type = Stem;
},
{
place = (383,190);
type = Stem;
},
{
horizontal = 1;
origin = (0,3);
place = (533,120);
type = Stem;
}
);
shapes = (
{
closed = 1;
nodes = (
(41,0,l),
(231,0,l),
(231,149,l),
(41,533,l)
);
},
{
closed = 1;
nodes = (
(232,720,l),
(0,720,l),
(359,0,l),
(593,0,l)
);
},
{
closed = 1;
nodes = (
(593,720,l),
(403,720,l),
(403,481,l),
(593,112,l)
);
},
{
closed = 1;
nodes = (
(261,771,l),
(412,771,l),
(492,891,l),
(306,891,l)
);
}
);
};
hints = (
{
horizontal = 1;
place = (0,21);
target = up;
type = BottomGhost;
},
{
horizontal = 1;
place = (720,-20);
target = down;
type = TopGhost;
},
{
horizontal = 1;
place = (761,120);
type = Stem;
},
{
place = (61,190);
type = Stem;
},
{
place = (383,190);
type = Stem;
}
);
layerId = "58D608FC-F2A7-4C81-9CF8-8074D1767F25";
shapes = (
{
ref = N;
},
{
pos = (377,0);
ref = acutecomb.case;
}
);
width = 638;
}
);
note = Nacute;
unicode = 323;
},
{
color = 4;
glyphname = Ncaron;
kernLeft = B;
lastChange = "2023-11-24 14:51:42 +0000";
layers = (
{
background = {
anchors = (
{
name = bottom;
pos = (342,-35);
},
{
name = top.case;
pos = (339,740);
}
);
hints = (
{
horizontal = 1;
place = (0,21);
target = up;
type = BottomGhost;
},
{
horizontal = 1;
place = (720,-20);
target = down;
type = TopGhost;
},
{
place = (61,190);
type = Stem;
},
{
place = (383,190);
type = Stem;
},
{
horizontal = 1;
place = (746,120);
type = Stem;
},
{
horizontal = 1;
origin = (0,3);
place = (533,-120);
type = Stem;
}
);
shapes = (
{
closed = 1;
nodes = (
(41,0,l),
(231,0,l),
(231,149,l),
(41,533,l)
);
},
{
closed = 1;
nodes = (
(232,720,l),
(0,720,l),
(359,0,l),
(593,0,l)
);
},
{
closed = 1;
nodes = (
(593,720,l),
(403,720,l),
(403,481,l),
(593,112,l)
);
},
{
closed = 1;
nodes = (
(318,868,l),
(294,891,l),
(170,891,l),
(256,796,l)
);
},
{
closed = 1;
nodes = (
(400,771,l),
(508,891,l),
(389,891,l),
(289,771,l)
);
}
);
};
hints = (
{
horizontal = 1;
place = (0,21);
target = up;
type = BottomGhost;
},
{
horizontal = 1;
place = (720,-20);
target = down;
type = TopGhost;
},
{
horizontal = 1;
place = (746,120);
type = Stem;
},
{
place = (61,190);
type = Stem;
},
{
place = (383,190);
type = Stem;
}
);
layerId = "58D608FC-F2A7-4C81-9CF8-8074D1767F25";
shapes = (
{
ref = N;
},
{
pos = (339,0);
ref = caroncomb.case;
}
);
width = 638;
}
);
note = Ncaron;
unicode = 327;
},
{
color = 4;
glyphname = Ncommaaccent;
kernLeft = B;
lastChange = "2023-11-24 14:51:42 +0000";
layers = (
{
background = {
anchors = (
{
name = bottom;
pos = (342,-35);
},
{
name = top.case;
pos = (339,740);
}
);
hints = (
{
horizontal = 1;
place = (0,21);
target = up;
type = BottomGhost;
},
{
horizontal = 1;
place = (720,-20);
target = down;
type = TopGhost;
},
{
place = (61,190);
type = Stem;
},
{
place = (383,190);
type = Stem;
},
{
horizontal = 1;
place = (-150,113);
type = Stem;
}
);
shapes = (
{
closed = 1;
nodes = (
(41,0,l),
(231,0,l),
(231,149,l),
(41,533,l)
);
},
{
closed = 1;
nodes = (
(232,720,l),
(0,720,l),
(359,0,l),
(593,0,l)
);
},
{
closed = 1;
nodes = (
(593,720,l),
(403,720,l),
(403,481,l),
(593,112,l)
);
},
{
closed = 1;
nodes = (
(374,-150,l),
(435,-37,l),
(264,-37,l),
(236,-150,l)
);
}
);
};
hints = (
{
horizontal = 1;
place = (-150,113);
type = Stem;
},
{
horizontal = 1;
place = (0,21);
target = up;
type = BottomGhost;
},
{
horizontal = 1;
place = (720,-20);
target = down;
type = TopGhost;
},
{
place = (61,190);
type = Stem;
},
{
place = (383,190);
type = Stem;
}
);
layerId = "58D608FC-F2A7-4C81-9CF8-8074D1767F25";
shapes = (
{
ref = N;
},
{
pos = (335,0);
ref = commaaccentcomb;
}
);
width = 638;
}
);
note = Ncommaaccent;
unicode = 325;
},
{
color = 4;
glyphname = Nj;
lastChange = "2023-11-24 14:51:42 +0000";
layers = (
{
background = {
anchors = (
{
name = bottom;
pos = (342,-35);
},
{
name = top;
pos = (768,774);
},
{
name = top.case;
pos = (339,740);
}
);
hints = (
{
horizontal = 1;
place = (0,21);
target = up;
type = BottomGhost;
},
{
horizontal = 1;
place = (720,-20);
target = down;
type = TopGhost;
},
{
place = (61,190);
type = Stem;
},
{
place = (383,190);
type = Stem;
},
{
horizontal = 1;
place = (-150,21);
target = up;
type = BottomGhost;
},
{
horizontal = 1;
place = (606,173);
type = Stem;
},
{
place = (678,180);
type = Stem;
},
{
horizontal = 1;
place = (575,31);
type = Stem;
},
{
horizontal = 1;
place = (606,173);
type = Stem;
},
{
place = (673,190);
type = Stem;
}
);
shapes = (
{
closed = 1;
nodes = (
(41,0,l),
(231,0,l),
(231,149,l),
(41,533,l)
);
},
{
closed = 1;
nodes = (
(232,720,l),
(0,720,l),
(359,0,l),
(593,0,l)
);
},
{
closed = 1;
nodes = (
(593,720,l),
(403,720,l),
(403,481,l),
(593,112,l)
);
},
{
closed = 1;
nodes = (
(678,-150,l),
(858,-125,l),
(858,575,l),
(678,575,l)
);
},
{
closed = 1;
nodes = (
(673,619,l),
(863,619,l),
(863,755,l),
(673,755,l)
);
}
);
};
layerId = "58D608FC-F2A7-4C81-9CF8-8074D1767F25";
shapes = (
{
ref = N;
},
{
pos = (638,0);
ref = j;
}
);
width = 898;
}
);
unicode = 459;
},
{
color = 4;
glyphname = Ntilde;
kernLeft = B;
lastChange = "2023-11-24 14:51:42 +0000";
layers = (
{
background = {
anchors = (
{
name = bottom;
pos = (342,-35);
},
{
name = top.case;
pos = (339,895);
}
);
hints = (
{
horizontal = 1;
place = (0,21);
target = up;
type = BottomGhost;
},
{
horizontal = 1;
place = (720,-20);
target = down;
type = TopGhost;
},
{
place = (61,190);
type = Stem;
},
{
place = (383,190);
type = Stem;
},
{
horizontal = 1;
place = (774,41);
type = Stem;
},
{
horizontal = 1;
place = (815,94);
type = Stem;
}
);
shapes = (
{
closed = 1;
nodes = (
(41,0,l),
(231,0,l),
(231,149,l),
(41,533,l)
);
},
{
closed = 1;
nodes = (
(232,720,l),
(0,720,l),
(359,0,l),
(593,0,l)
);
},
{
closed = 1;
nodes = (
(593,720,l),
(403,720,l),
(403,481,l),
(593,112,l)
);
},
{
closed = 1;
nodes = (
(407,909,l),
(407,894,o),
(402,882,o),
(384,882,cs),
(364,882,o),
(330,917,o),
(289,917,cs),
(225,917,o),
(194,873,o),
(194,815,cs),
(194,802,o),
(196,788,o),
(199,774,c),
(270,774,l),
(270,789,o),
(275,801,o),
(293,801,cs),
(313,801,o),
(347,766,o),
(388,766,cs),
(452,766,o),
(483,810,o),
(483,868,cs),
(483,881,o),
(481,895,o),
(478,909,c)
);
}
);
};
hints = (
{
horizontal = 1;
place = (0,21);
target = up;
type = BottomGhost;
},
{
horizontal = 1;
place = (720,-20);
target = down;
type = TopGhost;
},
{
horizontal = 1;
place = (738,116);
type = Stem;
},
{
horizontal = 1;
place = (773,81);
type = Stem;
},
{
horizontal = 1;
place = (773,116);
type = Stem;
},
{
place = (61,190);
type = Stem;
},
{
place = (383,190);
type = Stem;
}
);
layerId = "58D608FC-F2A7-4C81-9CF8-8074D1767F25";
shapes = (
{
ref = N;
},
{
pos = (339,0);
ref = tildecomb.case;
}
);
width = 638;
}
);
note = Ntilde;
unicode = 209;
},
{
color = 4;
glyphname = Eng;
kernLeft = B;
lastChange = "2023-11-24 14:51:38 +0000";
layers = (
{
background = {
shapes = (
{
closed = 1;
nodes = (
(41,0,l),
(231,0,l),
(231,152,l),
(41,522,l)
);
},
{
closed = 1;
nodes = (
(447,-133,l),
(424,113,l),
(424,54,ls),
(424,-28,o),
(412,-49,o),
(346,-49,cs),
(326,-49,o),
(305,-45,o),
(287,-43,c),
(276,-145,l),
(305,-154,o),
(373,-162,o),
(405,-162,cs),
(546,-162,o),
(593,-133,o),
(593,30,c),
(232,720,l),
(0,720,l)
);
},
{
closed = 1;
nodes = (
(593,720,l),
(403,720,l),
(403,502,l),
(593,140,l)
);
}
);
};
hints = (
{
horizontal = 1;
place = (-162,113);
type = Stem;
},
{
horizontal = 1;
place = (0,21);
target = up;
type = BottomGhost;
},
{
horizontal = 1;
place = (720,-20);
target = down;
type = TopGhost;
},
{
place = (36,170);
type = Stem;
},
{
place = (327,171);
type = Stem;
}
);
layerId = "58D608FC-F2A7-4C81-9CF8-8074D1767F25";
shapes = (
{
closed = 1;
nodes = (
(41,0,l),
(231,0,l),
(231,152,l),
(41,522,l)
);
},
{
closed = 1;
nodes = (
(447,-133,l),
(424,113,l),
(424,54,ls),
(424,-28,o),
(412,-49,o),
(346,-49,cs),
(326,-49,o),
(305,-45,o),
(287,-43,c),
(276,-145,l),
(305,-154,o),
(373,-162,o),
(405,-162,cs),
(546,-162,o),
(593,-133,o),
(593,30,c),
(232,720,l),
(0,720,l)
);
},
{
closed = 1;
nodes = (
(593,720,l),
(403,720,l),
(403,502,l),
(593,140,l)
);
}
);
width = 638;
}
);
metricLeft = N;
metricRight = N;
note = Eng;
unicode = 330;
},
{
color = 4;
glyphname = O;
kernLeft = C;
kernRight = D;
lastChange = "2023-11-24 14:51:38 +0000";
layers = (
{
anchors = (
{
name = bottom;
pos = (293,-35);
},
{
name = horn;
pos = (445,728);
},
{
name = ogonek;
pos = (353,10);
},
{
name = top.case;
pos = (293,740);
}
);
background = {
anchors = (
{
name = bottom;
pos = (293,-35);
},
{
name = horn;
pos = (445,728);
},
{
name = ogonek;
pos = (353,10);
},
{
name = top.case;
pos = (293,740);
}
);
shapes = (
{
closed = 1;
nodes = (
(496,-2,o),
(566,90,o),
(566,359,cs),
(566,628,o),
(496,720,o),
(318,727,c),
(318,568,l),
(347,552,o),
(356,499,o),
(356,361,cs),
(356,224,o),
(347,168,o),
(318,151,c),
(318,-9,l)
);
},
{
closed = 1;
nodes = (
(239,167,o),
(230,223,o),
(230,361,cs),
(230,498,o),
(239,552,o),
(268,568,c),
(268,727,l),
(90,720,o),
(20,628,o),
(20,359,cs),
(20,90,o),
(91,-2,o),
(268,-10,c),
(268,151,l)
);
}
);
};
hints = (
{
horizontal = 1;
place = (-10,155);
type = Stem;
},
{
horizontal = 1;
place = (573,155);
type = Stem;
},
{
place = (20,210);
type = Stem;
},
{
place = (356,210);
type = Stem;
}
);
layerId = "58D608FC-F2A7-4C81-9CF8-8074D1767F25";
shapes = (
{
closed = 1;
nodes = (
(496,-2,o),
(566,90,o),
(566,359,cs),
(566,628,o),
(496,720,o),
(318,727,c),
(318,568,l),
(347,552,o),
(356,499,o),
(356,361,cs),
(356,224,o),
(347,168,o),
(318,151,c),
(318,-9,l)
);
},
{
closed = 1;
nodes = (
(239,167,o),
(230,223,o),
(230,361,cs),
(230,498,o),
(239,552,o),
(268,568,c),
(268,727,l),
(90,720,o),
(20,628,o),
(20,359,cs),
(20,90,o),
(91,-2,o),
(268,-10,c),
(268,151,l)
);
}
);
width = 586;
}
);
note = O;
unicode = 79;
},
{
color = 4;
glyphname = Oacute;
kernLeft = C;
kernRight = D;
lastChange = "2023-11-24 14:51:42 +0000";
layers = (
{
background = {
anchors = (
{
name = bottom;
pos = (293,-35);
},
{
name = horn;
pos = (445,728);
},
{
name = ogonek;
pos = (353,10);
},
{
name = top.case;
pos = (293,740);
}
);
hints = (
{
horizontal = 1;
place = (-10,155);
type = Stem;
},
{
horizontal = 1;
place = (573,155);
type = Stem;
},
{
place = (20,210);
type = Stem;
},
{
place = (356,210);
type = Stem;
},
{
horizontal = 1;
origin = (0,13);
place = (-9,120);
type = Stem;
}
);
shapes = (
{
closed = 1;
nodes = (
(496,-2,o),
(566,90,o),
(566,359,cs),
(566,628,o),
(496,720,o),
(318,727,c),
(318,568,l),
(347,552,o),
(356,499,o),
(356,361,cs),
(356,224,o),
(347,168,o),
(318,151,c),
(318,-9,l)
);
},
{
closed = 1;
nodes = (
(239,167,o),
(230,223,o),
(230,361,cs),
(230,498,o),
(239,552,o),
(268,568,c),
(268,727,l),
(90,720,o),
(20,628,o),
(20,359,cs),
(20,90,o),
(91,-2,o),
(268,-10,c),
(268,151,l)
);
},
{
closed = 1;
nodes = (
(215,771,l),
(366,771,l),
(446,891,l),
(260,891,l)
);
}
);
};
hints = (
{
horizontal = 1;
place = (-10,155);
type = Stem;
},
{
horizontal = 1;
place = (573,155);
type = Stem;
},
{
horizontal = 1;
place = (761,120);
type = Stem;
},
{
place = (20,210);
type = Stem;
},
{
place = (356,210);
type = Stem;
}
);
layerId = "58D608FC-F2A7-4C81-9CF8-8074D1767F25";
shapes = (
{
ref = O;
},
{
pos = (331,0);
ref = acutecomb.case;
}
);
width = 586;
}
);
note = Oacute;
unicode = 211;
},
{
color = 4;
glyphname = Obreve;
kernLeft = C;
kernRight = D;
lastChange = "2023-11-24 14:51:42 +0000";
layers = (
{
background = {
anchors = (
{
name = bottom;
pos = (293,-35);
},
{
name = horn;
pos = (445,728);
},
{
name = ogonek;
pos = (353,10);
},
{
name = top.case;
pos = (293,906);
}
);
hints = (
{
horizontal = 1;
place = (-10,155);
type = Stem;
},
{
horizontal = 1;
place = (573,155);
type = Stem;
},
{
place = (20,210);
type = Stem;
},
{
place = (356,210);
type = Stem;
},
{
horizontal = 1;
place = (746,104);
type = Stem;
},
{
horizontal = 1;
place = (746,142);
type = Stem;
}
);
shapes = (
{
closed = 1;
nodes = (
(496,-2,o),
(566,90,o),
(566,359,cs),
(566,628,o),
(496,720,o),
(318,727,c),
(318,568,l),
(347,552,o),
(356,499,o),
(356,361,cs),
(356,224,o),
(347,168,o),
(318,151,c),
(318,-9,l)
);
},
{
closed = 1;
nodes = (
(239,167,o),
(230,223,o),
(230,361,cs),
(230,498,o),
(239,552,o),
(268,568,c),
(268,727,l),
(90,720,o),
(20,628,o),
(20,359,cs),
(20,90,o),
(91,-2,o),
(268,-10,c),
(268,151,l)
);
},
{
closed = 1;
nodes = (
(395,771,o),
(436,814,o),
(446,911,c),
(360,911,l),
(349,883,o),
(329,870,o),
(293,870,cs),
(257,870,o),
(237,883,o),
(226,911,c),
(140,911,l),
(150,814,o),
(191,771,o),
(293,771,cs)
);
}
);
};
hints = (
{
horizontal = 1;
place = (-10,155);
type = Stem;
},
{
horizontal = 1;
place = (573,155);
type = Stem;
},
{
horizontal = 1;
place = (746,104);
type = Stem;
},
{
horizontal = 1;
place = (746,142);
type = Stem;
},
{
place = (20,210);
type = Stem;
},
{
place = (356,210);
type = Stem;
}
);
layerId = "58D608FC-F2A7-4C81-9CF8-8074D1767F25";
shapes = (
{
ref = O;
},
{
pos = (293,0);
ref = brevecomb.case;
}
);
width = 586;
}
);
note = Obreve;
unicode = 334;
},
{
color = 4;
glyphname = Ocircumflex;
kernLeft = C;
kernRight = D;
lastChange = "2023-11-24 14:51:42 +0000";
layers = (
{
background = {
anchors = (
{
name = bottom;
pos = (293,-35);
},
{
name = horn;
pos = (445,728);
},
{
name = ogonek;
pos = (353,10);
},
{
name = top.case;
pos = (293,889);
}
);
hints = (
{
horizontal = 1;
place = (-10,155);
type = Stem;
},
{
horizontal = 1;
place = (573,155);
type = Stem;
},
{
place = (20,210);
type = Stem;
},
{
place = (356,210);
type = Stem;
},
{
horizontal = 1;
place = (761,120);
type = Stem;
}
);
shapes = (
{
closed = 1;
nodes = (
(496,-2,o),
(566,90,o),
(566,359,cs),
(566,628,o),
(496,720,o),
(318,727,c),
(318,568,l),
(347,552,o),
(356,499,o),
(356,361,cs),
(356,224,o),
(347,168,o),
(318,151,c),
(318,-9,l)
);
},
{
closed = 1;
nodes = (
(239,167,o),
(230,223,o),
(230,361,cs),
(230,498,o),
(239,552,o),
(268,568,c),
(268,727,l),
(90,720,o),
(20,628,o),
(20,359,cs),
(20,90,o),
(91,-2,o),
(268,-10,c),
(268,151,l)
);
},
{
closed = 1;
nodes = (
(124,771,l),
(248,771,l),
(272,794,l),
(210,866,l)
);
},
{
closed = 1;
nodes = (
(343,771,l),
(462,771,l),
(354,891,l),
(243,891,l)
);
}
);
};
hints = (
{
horizontal = 1;
place = (-10,155);
type = Stem;
},
{
horizontal = 1;
place = (573,155);
type = Stem;
},
{
horizontal = 1;
place = (761,120);
type = Stem;
},
{
place = (20,210);
type = Stem;
},
{
place = (356,210);
type = Stem;
}
);
layerId = "58D608FC-F2A7-4C81-9CF8-8074D1767F25";
shapes = (
{
ref = O;
},
{
pos = (293,0);
ref = circumflexcomb.case;
}
);
width = 586;
}
);
note = Ocircumflex;
unicode = 212;
},
{
color = 4;
glyphname = Ocircumflexacute;
lastChange = "2023-11-24 14:51:42 +0000";
layers = (
{
background = {
anchors = (
{
name = bottom;
pos = (293,-35);
},
{
name = horn;
pos = (445,728);
},
{
name = ogonek;
pos = (353,10);
},
{
name = top.case;
pos = (293,889);
}
);
hints = (
{
horizontal = 1;
place = (-10,155);
type = Stem;
},
{
horizontal = 1;
place = (573,155);
type = Stem;
},
{
place = (20,210);
type = Stem;
},
{
place = (356,210);
type = Stem;
},
{
horizontal = 1;
place = (761,120);
type = Stem;
},
{
horizontal = 1;
origin = (0,13);
place = (-9,120);
type = Stem;
}
);
shapes = (
{
closed = 1;
nodes = (
(496,-2,o),
(566,90,o),
(566,359,cs),
(566,628,o),
(496,720,o),
(318,727,c),
(318,568,l),
(347,552,o),
(356,499,o),
(356,361,cs),
(356,224,o),
(347,168,o),
(318,151,c),
(318,-9,l)
);
},
{
closed = 1;
nodes = (
(239,167,o),
(230,223,o),
(230,361,cs),
(230,498,o),
(239,552,o),
(268,568,c),
(268,727,l),
(90,720,o),
(20,628,o),
(20,359,cs),
(20,90,o),
(91,-2,o),
(268,-10,c),
(268,151,l)
);
},
{
closed = 1;
nodes = (
(124,771,l),
(248,771,l),
(272,794,l),
(210,866,l)
);
},
{
closed = 1;
nodes = (
(343,771,l),
(462,771,l),
(354,891,l),
(243,891,l)
);
},
{
closed = 1;
nodes = (
(215,920,l),
(366,920,l),
(446,1040,l),
(260,1040,l)
);
}
);
};
layerId = "58D608FC-F2A7-4C81-9CF8-8074D1767F25";
shapes = (
{
ref = O;
},
{
pos = (293,0);
ref = circumflexcomb.case;
},
{
pos = (331,149);
ref = acutecomb.case;
}
);
width = 586;
}
);
unicode = 7888;
},
{
color = 4;
glyphname = Ocircumflexdotbelow;
lastChange = "2023-11-24 14:51:42 +0000";
layers = (
{
background = {
anchors = (
{
name = bottom;
pos = (293,-35);
},
{
name = horn;
pos = (445,728);
},
{
name = ogonek;
pos = (353,10);
},
{
name = top.case;
pos = (293,889);
}
);
hints = (
{
horizontal = 1;
place = (-10,155);
type = Stem;
},
{
horizontal = 1;
place = (573,155);
type = Stem;
},
{
place = (20,210);
type = Stem;
},
{
place = (356,210);
type = Stem;
},
{
horizontal = 1;
place = (-195,173);
type = Stem;
},
{
place = (198,190);
type = Stem;
},
{
horizontal = 1;
place = (761,120);
type = Stem;
}
);
shapes = (
{
closed = 1;
nodes = (
(496,-2,o),
(566,90,o),
(566,359,cs),
(566,628,o),
(496,720,o),
(318,727,c),
(318,568,l),
(347,552,o),
(356,499,o),
(356,361,cs),
(356,224,o),
(347,168,o),
(318,151,c),
(318,-9,l)
);
},
{
closed = 1;
nodes = (
(239,167,o),
(230,223,o),
(230,361,cs),
(230,498,o),
(239,552,o),
(268,568,c),
(268,727,l),
(90,720,o),
(20,628,o),
(20,359,cs),
(20,90,o),
(91,-2,o),
(268,-10,c),
(268,151,l)
);
},
{
closed = 1;
nodes = (
(198,-182,l),
(388,-182,l),
(388,-46,l),
(198,-46,l)
);
},
{
closed = 1;
nodes = (
(124,771,l),
(248,771,l),
(272,794,l),
(210,866,l)
);
},
{
closed = 1;
nodes = (
(343,771,l),
(462,771,l),
(354,891,l),
(243,891,l)
);
}
);
};
layerId = "58D608FC-F2A7-4C81-9CF8-8074D1767F25";
shapes = (
{
ref = O;
},
{
pos = (293,0);
ref = dotbelowcomb;
},
{
pos = (293,0);
ref = circumflexcomb.case;
}
);
width = 586;
}
);
unicode = 7896;
},
{
color = 4;
glyphname = Ocircumflexgrave;
lastChange = "2023-11-24 14:51:42 +0000";
layers = (
{
background = {
anchors = (
{
name = bottom;
pos = (293,-35);
},
{
name = horn;
pos = (445,728);
},
{
name = ogonek;
pos = (353,10);
},
{
name = top.case;
pos = (293,889);
}
);
hints = (
{
horizontal = 1;
place = (-10,155);
type = Stem;
},
{
horizontal = 1;
place = (573,155);
type = Stem;
},
{
place = (20,210);
type = Stem;
},
{
place = (356,210);
type = Stem;
},
{
horizontal = 1;
place = (761,120);
type = Stem;
},
{
horizontal = 1;
place = (910,120);
type = Stem;
}
);
shapes = (
{
closed = 1;
nodes = (
(496,-2,o),
(566,90,o),
(566,359,cs),
(566,628,o),
(496,720,o),
(318,727,c),
(318,568,l),
(347,552,o),
(356,499,o),
(356,361,cs),
(356,224,o),
(347,168,o),
(318,151,c),
(318,-9,l)
);
},
{
closed = 1;
nodes = (
(239,167,o),
(230,223,o),
(230,361,cs),
(230,498,o),
(239,552,o),
(268,568,c),
(268,727,l),
(90,720,o),
(20,628,o),
(20,359,cs),
(20,90,o),
(91,-2,o),
(268,-10,c),
(268,151,l)
);
},
{
closed = 1;
nodes = (
(124,771,l),
(248,771,l),
(272,794,l),
(210,866,l)
);
},
{
closed = 1;
nodes = (
(343,771,l),
(462,771,l),
(354,891,l),
(243,891,l)
);
},
{
closed = 1;
nodes = (
(145,1040,l),
(225,920,l),
(376,920,l),
(331,1040,l)
);
}
);
};
layerId = "58D608FC-F2A7-4C81-9CF8-8074D1767F25";
shapes = (
{
ref = O;
},
{
pos = (293,0);
ref = circumflexcomb.case;
},
{
pos = (260,149);
ref = gravecomb.case;
}
);
width = 586;
}
);
unicode = 7890;
},
{
color = 4;
glyphname = Ocircumflexhookabove;
lastChange = "2023-11-24 14:51:42 +0000";
layers = (
{
background = {
anchors = (
{
name = bottom;
pos = (293,-35);
},
{
name = horn;
pos = (445,728);
},
{
name = ogonek;
pos = (353,10);
},
{
name = top.case;
pos = (293,889);
}
);
hints = (
{
horizontal = 1;
place = (-10,155);
type = Stem;
},
{
horizontal = 1;
place = (573,155);
type = Stem;
},
{
place = (20,210);
type = Stem;
},
{
place = (356,210);
type = Stem;
},
{
horizontal = 1;
place = (761,120);
type = Stem;
}
);
shapes = (
{
closed = 1;
nodes = (
(496,-2,o),
(566,90,o),
(566,359,cs),
(566,628,o),
(496,720,o),
(318,727,c),
(318,568,l),
(347,552,o),
(356,499,o),
(356,361,cs),
(356,224,o),
(347,168,o),
(318,151,c),
(318,-9,l)
);
},
{
closed = 1;
nodes = (
(239,167,o),
(230,223,o),
(230,361,cs),
(230,498,o),
(239,552,o),
(268,568,c),
(268,727,l),
(90,720,o),
(20,628,o),
(20,359,cs),
(20,90,o),
(91,-2,o),
(268,-10,c),
(268,151,l)
);
},
{
closed = 1;
nodes = (
(124,771,l),
(248,771,l),
(272,794,l),
(210,866,l)
);
},
{
closed = 1;
nodes = (
(343,771,l),
(462,771,l),
(354,891,l),
(243,891,l)
);
},
{
closed = 1;
nodes = (
(456,901,o),
(412,879,c),
(455,827,l),
(601,865,o),
(600,1044,o),
(444,1044,cs),
(418,1044,o),
(388,1039,o),
(365,1031,c),
(358,945,l),
(368,949,o),
(390,953,o),
(410,953,cs),
(464,953,o)
);
}
);
};
layerId = "58D608FC-F2A7-4C81-9CF8-8074D1767F25";
shapes = (
{
ref = O;
},
{
pos = (293,0);
ref = circumflexcomb.case;
},
{
alignment = -1;
pos = (460,70);
ref = hookabovecomb.case;
}
);
width = 586;
}
);
unicode = 7892;
},
{
color = 4;
glyphname = Ocircumflextilde;
lastChange = "2023-11-24 14:51:42 +0000";
layers = (
{
background = {
anchors = (
{
name = bottom;
pos = (293,-35);
},
{
name = horn;
pos = (445,728);
},
{
name = ogonek;
pos = (353,10);
},
{
name = top.case;
pos = (293,1044);
}
);
hints = (
{
horizontal = 1;
place = (-10,155);
type = Stem;
},
{
horizontal = 1;
place = (573,155);
type = Stem;
},
{
place = (20,210);
type = Stem;
},
{
place = (356,210);
type = Stem;
},
{
horizontal = 1;
place = (761,120);
type = Stem;
},
{
horizontal = 1;
place = (923,41);
type = Stem;
},
{
horizontal = 1;
place = (964,94);
type = Stem;
}
);
shapes = (
{
closed = 1;
nodes = (
(496,-2,o),
(566,90,o),
(566,359,cs),
(566,628,o),
(496,720,o),
(318,727,c),
(318,568,l),
(347,552,o),
(356,499,o),
(356,361,cs),
(356,224,o),
(347,168,o),
(318,151,c),
(318,-9,l)
);
},
{
closed = 1;
nodes = (
(239,167,o),
(230,223,o),
(230,361,cs),
(230,498,o),
(239,552,o),
(268,568,c),
(268,727,l),
(90,720,o),
(20,628,o),
(20,359,cs),
(20,90,o),
(91,-2,o),
(268,-10,c),
(268,151,l)
);
},
{
closed = 1;
nodes = (
(124,771,l),
(248,771,l),
(272,794,l),
(210,866,l)
);
},
{
closed = 1;
nodes = (
(343,771,l),
(462,771,l),
(354,891,l),
(243,891,l)
);
},
{
closed = 1;
nodes = (
(361,1058,l),
(361,1043,o),
(356,1031,o),
(338,1031,cs),
(318,1031,o),
(284,1066,o),
(243,1066,cs),
(179,1066,o),
(148,1022,o),
(148,964,cs),
(148,951,o),
(150,937,o),
(153,923,c),
(224,923,l),
(224,938,o),
(229,950,o),
(247,950,cs),
(267,950,o),
(301,915,o),
(342,915,cs),
(406,915,o),
(437,959,o),
(437,1017,cs),
(437,1030,o),
(435,1044,o),
(432,1058,c)
);
}
);
};
layerId = "58D608FC-F2A7-4C81-9CF8-8074D1767F25";
shapes = (
{
ref = O;
},
{
pos = (293,0);
ref = circumflexcomb.case;
},
{
pos = (293,149);
ref = tildecomb.case;
}
);
width = 586;
}
);
unicode = 7894;
},
{
color = 4;
glyphname = Odblgrave;
lastChange = "2023-11-24 14:51:42 +0000";
layers = (
{
background = {
anchors = (
{
name = bottom;
pos = (293,-35);
},
{
name = horn;
pos = (445,728);
},
{
name = ogonek;
pos = (353,10);
},
{
name = top.case;
pos = (293,740);
}
);
hints = (
{
horizontal = 1;
place = (-10,155);
type = Stem;
},
{
horizontal = 1;
place = (573,155);
type = Stem;
},
{
place = (20,210);
type = Stem;
},
{
place = (356,210);
type = Stem;
}
);
shapes = (
{
closed = 1;
nodes = (
(496,-2,o),
(566,90,o),
(566,359,cs),
(566,628,o),
(496,720,o),
(318,727,c),
(318,568,l),
(347,552,o),
(356,499,o),
(356,361,cs),
(356,224,o),
(347,168,o),
(318,151,c),
(318,-9,l)
);
},
{
closed = 1;
nodes = (
(239,167,o),
(230,223,o),
(230,361,cs),
(230,498,o),
(239,552,o),
(268,568,c),
(268,727,l),
(90,720,o),
(20,628,o),
(20,359,cs),
(20,90,o),
(91,-2,o),
(268,-10,c),
(268,151,l)
);
},
{
closed = 1;
nodes = (
(257,891,l),
(321,771,l),
(472,771,l),
(427,891,l)
);
},
{
closed = 1;
nodes = (
(33,891,l),
(117,771,l),
(268,771,l),
(203,891,l)
);
}
);
};
layerId = "58D608FC-F2A7-4C81-9CF8-8074D1767F25";
shapes = (
{
ref = O;
},
{
pos = (255,0);
ref = dblgravecomb.case;
}
);
width = 586;
}
);
unicode = 524;
},
{
color = 4;
glyphname = Odieresis;
kernLeft = C;
kernRight = D;
lastChange = "2023-11-24 14:51:42 +0000";
layers = (
{
background = {
anchors = (
{
name = bottom;
pos = (293,-35);
},
{
name = horn;
pos = (445,728);
},
{
name = ogonek;
pos = (353,10);
},
{
name = top.case;
pos = (293,895);
}
);
hints = (
{
horizontal = 1;
place = (-10,155);
type = Stem;
},
{
horizontal = 1;
place = (573,155);
type = Stem;
},
{
place = (20,210);
type = Stem;
},
{
place = (356,210);
type = Stem;
},
{
horizontal = 1;
place = (753,165);
type = Stem;
},
{
place = (311,160);
type = Stem;
},
{
place = (510,180);
type = Stem;
},
{
place = (296,180);
type = Stem;
},
{
place = (515,160);
type = Stem;
},
{
horizontal = 1;
place = (768,165);
type = Stem;
},
{
place = (111,160);
type = Stem;
},
{
place = (315,160);
type = Stem;
}
);
shapes = (
{
closed = 1;
nodes = (
(496,-2,o),
(566,90,o),
(566,359,cs),
(566,628,o),
(496,720,o),
(318,727,c),
(318,568,l),
(347,552,o),
(356,499,o),
(356,361,cs),
(356,224,o),
(347,168,o),
(318,151,c),
(318,-9,l)
);
},
{
closed = 1;
nodes = (
(239,167,o),
(230,223,o),
(230,361,cs),
(230,498,o),
(239,552,o),
(268,568,c),
(268,727,l),
(90,720,o),
(20,628,o),
(20,359,cs),
(20,90,o),
(91,-2,o),
(268,-10,c),
(268,151,l)
);
},
{
closed = 1;
nodes = (
(111,777,l),
(271,777,l),
(271,913,l),
(111,913,l)
);
},
{
closed = 1;
nodes = (
(315,777,l),
(475,777,l),
(475,913,l),
(315,913,l)
);
}
);
};
hints = (
{
horizontal = 1;
place = (-10,155);
type = Stem;
},
{
horizontal = 1;
place = (573,155);
type = Stem;
},
{
horizontal = 1;
place = (758,165);
type = Stem;
},
{
place = (20,210);
type = Stem;
},
{
place = (356,210);
type = Stem;
},
{
place = (112,160);
type = Stem;
},
{
place = (316,160);
type = Stem;
}
);
layerId = "58D608FC-F2A7-4C81-9CF8-8074D1767F25";
shapes = (
{
ref = O;
},
{
pos = (293,0);
ref = dieresiscomb.case;
}
);
width = 586;
}
);
note = Odieresis;
unicode = 214;
},
{
color = 4;
glyphname = Odieresismacron;
lastChange = "2023-11-24 14:51:42 +0000";
layers = (
{
background = {
anchors = (
{
name = bottom;
pos = (293,-35);
},
{
name = horn;
pos = (445,728);
},
{
name = ogonek;
pos = (353,10);
},
{
name = top.case;
pos = (293,895);
}
);
hints = (
{
horizontal = 1;
place = (-10,155);
type = Stem;
},
{
horizontal = 1;
place = (573,155);
type = Stem;
},
{
place = (20,210);
type = Stem;
},
{
place = (356,210);
type = Stem;
},
{
horizontal = 1;
place = (753,165);
type = Stem;
},
{
place = (311,160);
type = Stem;
},
{
place = (510,180);
type = Stem;
},
{
place = (296,180);
type = Stem;
},
{
place = (515,160);
type = Stem;
},
{
horizontal = 1;
place = (768,165);
type = Stem;
},
{
place = (111,160);
type = Stem;
},
{
place = (315,160);
type = Stem;
},
{
horizontal = 1;
place = (933,103);
type = Stem;
},
{
horizontal = 1;
place = (941.589,110.885);
type = Stem;
}
);
shapes = (
{
closed = 1;
nodes = (
(496,-2,o),
(566,90,o),
(566,359,cs),
(566,628,o),
(496,720,o),
(318,727,c),
(318,568,l),
(347,552,o),
(356,499,o),
(356,361,cs),
(356,224,o),
(347,168,o),
(318,151,c),
(318,-9,l)
);
},
{
closed = 1;
nodes = (
(239,167,o),
(230,223,o),
(230,361,cs),
(230,498,o),
(239,552,o),
(268,568,c),
(268,727,l),
(90,720,o),
(20,628,o),
(20,359,cs),
(20,90,o),
(91,-2,o),
(268,-10,c),
(268,151,l)
);
},
{
closed = 1;
nodes = (
(111,777,l),
(271,777,l),
(271,913,l),
(111,913,l)
);
},
{
closed = 1;
nodes = (
(315,777,l),
(475,777,l),
(475,913,l),
(315,913,l)
);
},
{
closed = 1;
nodes = (
(145,942,l),
(441,942,l),
(441,1052,l),
(145,1052,l)
);
}
);
};
layerId = "58D608FC-F2A7-4C81-9CF8-8074D1767F25";
shapes = (
{
ref = O;
},
{
pos = (293,0);
ref = dieresiscomb.case;
},
{
pos = (293,155);
ref = macroncomb.case;
}
);
width = 586;
}
);
unicode = 554;
},
{
color = 4;
glyphname = Odotaccentmacron;
lastChange = "2023-11-24 14:51:42 +0000";
layers = (
{
background = {
anchors = (
{
name = bottom;
pos = (293,-35);
},
{
name = horn;
pos = (445,728);
},
{
name = ogonek;
pos = (353,10);
},
{
name = top.case;
pos = (293,895);
}
);
hints = (
{
horizontal = 1;
place = (-10,155);
type = Stem;
},
{
horizontal = 1;
place = (573,155);
type = Stem;
},
{
place = (20,210);
type = Stem;
},
{
place = (356,210);
type = Stem;
},
{
horizontal = 1;
place = (753,165);
type = Stem;
},
{
place = (405,176);
type = Stem;
},
{
horizontal = 1;
place = (764,173);
type = Stem;
},
{
place = (198,190);
type = Stem;
},
{
horizontal = 1;
place = (933,103);
type = Stem;
},
{
horizontal = 1;
place = (941.589,110.885);
type = Stem;
}
);
shapes = (
{
closed = 1;
nodes = (
(496,-2,o),
(566,90,o),
(566,359,cs),
(566,628,o),
(496,720,o),
(318,727,c),
(318,568,l),
(347,552,o),
(356,499,o),
(356,361,cs),
(356,224,o),
(347,168,o),
(318,151,c),
(318,-9,l)
);
},
{
closed = 1;
nodes = (
(239,167,o),
(230,223,o),
(230,361,cs),
(230,498,o),
(239,552,o),
(268,568,c),
(268,727,l),
(90,720,o),
(20,628,o),
(20,359,cs),
(20,90,o),
(91,-2,o),
(268,-10,c),
(268,151,l)
);
},
{
closed = 1;
nodes = (
(198,777,l),
(388,777,l),
(388,913,l),
(198,913,l)
);
},
{
closed = 1;
nodes = (
(145,942,l),
(441,942,l),
(441,1052,l),
(145,1052,l)
);
}
);
};
layerId = "58D608FC-F2A7-4C81-9CF8-8074D1767F25";
shapes = (
{
ref = O;
},
{
pos = (293,0);
ref = dotaccentcomb.case;
},
{
pos = (293,155);
ref = macroncomb.case;
}
);
width = 586;
}
);
unicode = 560;
},
{
color = 4;
glyphname = Odotbelow;
lastChange = "2023-11-24 14:51:42 +0000";
layers = (
{
background = {
anchors = (
{
name = bottom;
pos = (293,-35);
},
{
name = horn;
pos = (445,728);
},
{
name = ogonek;
pos = (353,10);
},
{
name = top.case;
pos = (293,740);
}
);
hints = (
{
horizontal = 1;
place = (-10,155);
type = Stem;
},
{
horizontal = 1;
place = (573,155);
type = Stem;
},
{
place = (20,210);
type = Stem;
},
{
place = (356,210);
type = Stem;
},
{
horizontal = 1;
place = (-195,173);
type = Stem;
},
{
place = (198,190);
type = Stem;
}
);
shapes = (
{
closed = 1;
nodes = (
(496,-2,o),
(566,90,o),
(566,359,cs),
(566,628,o),
(496,720,o),
(318,727,c),
(318,568,l),
(347,552,o),
(356,499,o),
(356,361,cs),
(356,224,o),
(347,168,o),
(318,151,c),
(318,-9,l)
);
},
{
closed = 1;
nodes = (
(239,167,o),
(230,223,o),
(230,361,cs),
(230,498,o),
(239,552,o),
(268,568,c),
(268,727,l),
(90,720,o),
(20,628,o),
(20,359,cs),
(20,90,o),
(91,-2,o),
(268,-10,c),
(268,151,l)
);
},
{
closed = 1;
nodes = (
(198,-182,l),
(388,-182,l),
(388,-46,l),
(198,-46,l)
);
}
);
};
layerId = "58D608FC-F2A7-4C81-9CF8-8074D1767F25";
shapes = (
{
ref = O;
},
{
pos = (293,0);
ref = dotbelowcomb;
}
);
width = 586;
}
);
unicode = 7884;
},
{
color = 4;
glyphname = Ograve;
kernLeft = C;
kernRight = D;
lastChange = "2023-11-24 14:51:42 +0000";
layers = (
{
background = {
anchors = (
{
name = bottom;
pos = (293,-35);
},
{
name = horn;
pos = (445,728);
},
{
name = ogonek;
pos = (353,10);
},
{
name = top.case;
pos = (293,740);
}
);
hints = (
{
horizontal = 1;
place = (-10,155);
type = Stem;
},
{
horizontal = 1;
place = (573,155);
type = Stem;
},
{
place = (20,210);
type = Stem;
},
{
place = (356,210);
type = Stem;
},
{
horizontal = 1;
place = (761,120);
type = Stem;
}
);
shapes = (
{
closed = 1;
nodes = (
(496,-2,o),
(566,90,o),
(566,359,cs),
(566,628,o),
(496,720,o),
(318,727,c),
(318,568,l),
(347,552,o),
(356,499,o),
(356,361,cs),
(356,224,o),
(347,168,o),
(318,151,c),
(318,-9,l)
);
},
{
closed = 1;
nodes = (
(239,167,o),
(230,223,o),
(230,361,cs),
(230,498,o),
(239,552,o),
(268,568,c),
(268,727,l),
(90,720,o),
(20,628,o),
(20,359,cs),
(20,90,o),
(91,-2,o),
(268,-10,c),
(268,151,l)
);
},
{
closed = 1;
nodes = (
(145,891,l),
(225,771,l),
(376,771,l),
(331,891,l)
);
}
);
};
hints = (
{
horizontal = 1;
place = (-10,155);
type = Stem;
},
{
horizontal = 1;
place = (573,155);
type = Stem;
},
{
horizontal = 1;
place = (761,120);
type = Stem;
},
{
place = (20,210);
type = Stem;
},
{
place = (356,210);
type = Stem;
}
);
layerId = "58D608FC-F2A7-4C81-9CF8-8074D1767F25";
shapes = (
{
ref = O;
},
{
pos = (260,0);
ref = gravecomb.case;
}
);
width = 586;
}
);
note = Ograve;
unicode = 210;
},
{
color = 4;
glyphname = Ohookabove;
lastChange = "2023-11-24 14:51:42 +0000";
layers = (
{
background = {
anchors = (
{
name = bottom;
pos = (293,-35);
},
{
name = horn;
pos = (445,728);
},
{
name = ogonek;
pos = (353,10);
},
{
name = top.case;
pos = (293,740);
}
);
hints = (
{
horizontal = 1;
place = (-10,155);
type = Stem;
},
{
horizontal = 1;
place = (573,155);
type = Stem;
},
{
place = (20,210);
type = Stem;
},
{
place = (356,210);
type = Stem;
}
);
shapes = (
{
closed = 1;
nodes = (
(496,-2,o),
(566,90,o),
(566,359,cs),
(566,628,o),
(496,720,o),
(318,727,c),
(318,568,l),
(347,552,o),
(356,499,o),
(356,361,cs),
(356,224,o),
(347,168,o),
(318,151,c),
(318,-9,l)
);
},
{
closed = 1;
nodes = (
(239,167,o),
(230,223,o),
(230,361,cs),
(230,498,o),
(239,552,o),
(268,568,c),
(268,727,l),
(90,720,o),
(20,628,o),
(20,359,cs),
(20,90,o),
(91,-2,o),
(268,-10,c),
(268,151,l)
);
},
{
closed = 1;
nodes = (
(289,831,o),
(245,809,c),
(288,757,l),
(434,795,o),
(433,974,o),
(277,974,cs),
(251,974,o),
(221,969,o),
(198,961,c),
(191,875,l),
(201,879,o),
(223,883,o),
(243,883,cs),
(297,883,o)
);
}
);
};
layerId = "58D608FC-F2A7-4C81-9CF8-8074D1767F25";
shapes = (
{
ref = O;
},
{
pos = (293,0);
ref = hookabovecomb.case;
}
);
width = 586;
}
);
unicode = 7886;
},
{
color = 4;
glyphname = Ohorn;
lastChange = "2023-11-24 14:51:38 +0000";
layers = (
{
anchors = (
{
name = bottom;
pos = (293,-35);
},
{
name = ogonek;
pos = (353,10);
},
{
name = top.case;
pos = (293,740);
}
);
background = {
anchors = (
{
name = bottom;
pos = (293,-35);
},
{
name = ogonek;
pos = (353,10);
},
{
name = top.case;
pos = (293,740);
}
);
shapes = (
{
closed = 1;
nodes = (
(496,-2,o),
(566,90,o),
(566,359,cs),
(566,489,o),
(550,578,o),
(512,636,c),
(463,612,l),
(614,578,o),
(661,620,o),
(661,792,cs),
(661,861,l),
(509,861,l),
(509,789,ls),
(509,749,o),
(494,728,o),
(460,728,cs),
(318,728,l),
(318,568,l),
(347,552,o),
(356,499,o),
(356,361,cs),
(356,224,o),
(347,168,o),
(318,151,c),
(318,-9,l)
);
},
{
closed = 1;
nodes = (
(268,151,l),
(239,167,o),
(230,223,o),
(230,361,cs),
(230,498,o),
(239,552,o),
(268,568,c),
(268,727,l),
(90,720,o),
(20,628,o),
(20,359,cs),
(20,90,o),
(91,-2,o),
(268,-10,c)
);
}
);
};
hints = (
{
horizontal = 1;
place = (-10,155);
type = Stem;
},
{
horizontal = 1;
place = (573,155);
type = Stem;
},
{
place = (20,210);
type = Stem;
},
{
place = (356,210);
type = Stem;
}
);
layerId = "58D608FC-F2A7-4C81-9CF8-8074D1767F25";
shapes = (
{
closed = 1;
nodes = (
(496,-2,o),
(566,90,o),
(566,359,cs),
(566,489,o),
(550,578,o),
(512,636,c),
(463,612,l),
(614,578,o),
(661,620,o),
(661,792,cs),
(661,861,l),
(509,861,l),
(509,789,ls),
(509,749,o),
(494,728,o),
(460,728,cs),
(318,728,l),
(318,568,l),
(347,552,o),
(356,499,o),
(356,361,cs),
(356,224,o),
(347,168,o),
(318,151,c),
(318,-9,l)
);
},
{
closed = 1;
nodes = (
(268,151,l),
(239,167,o),
(230,223,o),
(230,361,cs),
(230,498,o),
(239,552,o),
(268,568,c),
(268,727,l),
(90,720,o),
(20,628,o),
(20,359,cs),
(20,90,o),
(91,-2,o),
(268,-10,c)
);
}
);
width = 586;
}
);
unicode = 416;
},
{
color = 4;
glyphname = Ohornacute;
lastChange = "2023-11-24 14:51:42 +0000";
layers = (
{
background = {
anchors = (
{
name = bottom;
pos = (293,-35);
},
{
name = ogonek;
pos = (353,10);
},
{
name = top.case;
pos = (293,740);
}
);
hints = (
{
horizontal = 1;
place = (-10,155);
type = Stem;
},
{
horizontal = 1;
place = (573,155);
type = Stem;
},
{
place = (20,210);
type = Stem;
},
{
place = (356,210);
type = Stem;
},
{
horizontal = 1;
origin = (0,24);
place = (-9,120);
type = Stem;
}
);
shapes = (
{
closed = 1;
nodes = (
(496,-2,o),
(566,90,o),
(566,359,cs),
(566,489,o),
(550,578,o),
(512,636,c),
(463,612,l),
(614,578,o),
(661,620,o),
(661,792,cs),
(661,861,l),
(509,861,l),
(509,789,ls),
(509,749,o),
(494,728,o),
(460,728,cs),
(318,728,l),
(318,568,l),
(347,552,o),
(356,499,o),
(356,361,cs),
(356,224,o),
(347,168,o),
(318,151,c),
(318,-9,l)
);
},
{
closed = 1;
nodes = (
(268,151,l),
(239,167,o),
(230,223,o),
(230,361,cs),
(230,498,o),
(239,552,o),
(268,568,c),
(268,727,l),
(90,720,o),
(20,628,o),
(20,359,cs),
(20,90,o),
(91,-2,o),
(268,-10,c)
);
},
{
closed = 1;
nodes = (
(215,771,l),
(366,771,l),
(446,891,l),
(260,891,l)
);
}
);
};
layerId = "58D608FC-F2A7-4C81-9CF8-8074D1767F25";
shapes = (
{
ref = Ohorn;
},
{
pos = (331,0);
ref = acutecomb.case;
}
);
width = 586;
}
);
unicode = 7898;
},
{
color = 4;
glyphname = Ohorndotbelow;
lastChange = "2023-11-24 14:51:42 +0000";
layers = (
{
background = {
anchors = (
{
name = bottom;
pos = (293,-35);
},
{
name = ogonek;
pos = (353,10);
},
{
name = top.case;
pos = (293,740);
}
);
hints = (
{
horizontal = 1;
place = (-10,155);
type = Stem;
},
{
horizontal = 1;
place = (573,155);
type = Stem;
},
{
place = (20,210);
type = Stem;
},
{
place = (356,210);
type = Stem;
},
{
horizontal = 1;
place = (-195,173);
type = Stem;
},
{
place = (198,190);
type = Stem;
}
);
shapes = (
{
closed = 1;
nodes = (
(496,-2,o),
(566,90,o),
(566,359,cs),
(566,489,o),
(550,578,o),
(512,636,c),
(463,612,l),
(614,578,o),
(661,620,o),
(661,792,cs),
(661,861,l),
(509,861,l),
(509,789,ls),
(509,749,o),
(494,728,o),
(460,728,cs),
(318,728,l),
(318,568,l),
(347,552,o),
(356,499,o),
(356,361,cs),
(356,224,o),
(347,168,o),
(318,151,c),
(318,-9,l)
);
},
{
closed = 1;
nodes = (
(268,151,l),
(239,167,o),
(230,223,o),
(230,361,cs),
(230,498,o),
(239,552,o),
(268,568,c),
(268,727,l),
(90,720,o),
(20,628,o),
(20,359,cs),
(20,90,o),
(91,-2,o),
(268,-10,c)
);
},
{
closed = 1;
nodes = (
(198,-182,l),
(388,-182,l),
(388,-46,l),
(198,-46,l)
);
}
);
};
layerId = "58D608FC-F2A7-4C81-9CF8-8074D1767F25";
shapes = (
{
ref = Ohorn;
},
{
pos = (293,0);
ref = dotbelowcomb;
}
);
width = 586;
}
);
unicode = 7906;
},
{
color = 4;
glyphname = Ohorngrave;
lastChange = "2023-11-24 14:51:42 +0000";
layers = (
{
background = {
anchors = (
{
name = bottom;
pos = (293,-35);
},
{
name = ogonek;
pos = (353,10);
},
{
name = top.case;
pos = (293,740);
}
);
hints = (
{
horizontal = 1;
place = (-10,155);
type = Stem;
},
{
horizontal = 1;
place = (573,155);
type = Stem;
},
{
place = (20,210);
type = Stem;
},
{
place = (356,210);
type = Stem;
},
{
horizontal = 1;
place = (761,120);
type = Stem;
}
);
shapes = (
{
closed = 1;
nodes = (
(496,-2,o),
(566,90,o),
(566,359,cs),
(566,489,o),
(550,578,o),
(512,636,c),
(463,612,l),
(614,578,o),
(661,620,o),
(661,792,cs),
(661,861,l),
(509,861,l),
(509,789,ls),
(509,749,o),
(494,728,o),
(460,728,cs),
(318,728,l),
(318,568,l),
(347,552,o),
(356,499,o),
(356,361,cs),
(356,224,o),
(347,168,o),
(318,151,c),
(318,-9,l)
);
},
{
closed = 1;
nodes = (
(268,151,l),
(239,167,o),
(230,223,o),
(230,361,cs),
(230,498,o),
(239,552,o),
(268,568,c),
(268,727,l),
(90,720,o),
(20,628,o),
(20,359,cs),
(20,90,o),
(91,-2,o),
(268,-10,c)
);
},
{
closed = 1;
nodes = (
(145,891,l),
(225,771,l),
(376,771,l),
(331,891,l)
);
}
);
};
layerId = "58D608FC-F2A7-4C81-9CF8-8074D1767F25";
shapes = (
{
ref = Ohorn;
},
{
pos = (260,0);
ref = gravecomb.case;
}
);
width = 586;
}
);
unicode = 7900;
},
{
color = 4;
glyphname = Ohornhookabove;
lastChange = "2023-11-24 14:51:42 +0000";
layers = (
{
background = {
anchors = (
{
name = bottom;
pos = (293,-35);
},
{
name = ogonek;
pos = (353,10);
},
{
name = top.case;
pos = (293,740);
}
);
hints = (
{
horizontal = 1;
place = (-10,155);
type = Stem;
},
{
horizontal = 1;
place = (573,155);
type = Stem;
},
{
place = (20,210);
type = Stem;
},
{
place = (356,210);
type = Stem;
}
);
shapes = (
{
closed = 1;
nodes = (
(496,-2,o),
(566,90,o),
(566,359,cs),
(566,489,o),
(550,578,o),
(512,636,c),
(463,612,l),
(614,578,o),
(661,620,o),
(661,792,cs),
(661,861,l),
(509,861,l),
(509,789,ls),
(509,749,o),
(494,728,o),
(460,728,cs),
(318,728,l),
(318,568,l),
(347,552,o),
(356,499,o),
(356,361,cs),
(356,224,o),
(347,168,o),
(318,151,c),
(318,-9,l)
);
},
{
closed = 1;
nodes = (
(268,151,l),
(239,167,o),
(230,223,o),
(230,361,cs),
(230,498,o),
(239,552,o),
(268,568,c),
(268,727,l),
(90,720,o),
(20,628,o),
(20,359,cs),
(20,90,o),
(91,-2,o),
(268,-10,c)
);
},
{
closed = 1;
nodes = (
(289,831,o),
(245,809,c),
(288,757,l),
(434,795,o),
(433,974,o),
(277,974,cs),
(251,974,o),
(221,969,o),
(198,961,c),
(191,875,l),
(201,879,o),
(223,883,o),
(243,883,cs),
(297,883,o)
);
}
);
};
layerId = "58D608FC-F2A7-4C81-9CF8-8074D1767F25";
shapes = (
{
ref = Ohorn;
},
{
pos = (293,0);
ref = hookabovecomb.case;
}
);
width = 586;
}
);
unicode = 7902;
},
{
color = 4;
glyphname = Ohorntilde;
lastChange = "2023-11-24 14:51:42 +0000";
layers = (
{
background = {
anchors = (
{
name = bottom;
pos = (293,-35);
},
{
name = ogonek;
pos = (353,10);
},
{
name = top.case;
pos = (293,895);
}
);
hints = (
{
horizontal = 1;
place = (-10,155);
type = Stem;
},
{
horizontal = 1;
place = (573,155);
type = Stem;
},
{
place = (20,210);
type = Stem;
},
{
place = (356,210);
type = Stem;
},
{
horizontal = 1;
place = (774,41);
type = Stem;
},
{
horizontal = 1;
place = (815,94);
type = Stem;
}
);
shapes = (
{
closed = 1;
nodes = (
(496,-2,o),
(566,90,o),
(566,359,cs),
(566,489,o),
(550,578,o),
(512,636,c),
(463,612,l),
(614,578,o),
(661,620,o),
(661,792,cs),
(661,861,l),
(509,861,l),
(509,789,ls),
(509,749,o),
(494,728,o),
(460,728,cs),
(318,728,l),
(318,568,l),
(347,552,o),
(356,499,o),
(356,361,cs),
(356,224,o),
(347,168,o),
(318,151,c),
(318,-9,l)
);
},
{
closed = 1;
nodes = (
(268,151,l),
(239,167,o),
(230,223,o),
(230,361,cs),
(230,498,o),
(239,552,o),
(268,568,c),
(268,727,l),
(90,720,o),
(20,628,o),
(20,359,cs),
(20,90,o),
(91,-2,o),
(268,-10,c)
);
},
{
closed = 1;
nodes = (
(361,909,l),
(361,894,o),
(356,882,o),
(338,882,cs),
(318,882,o),
(284,917,o),
(243,917,cs),
(179,917,o),
(148,873,o),
(148,815,cs),
(148,802,o),
(150,788,o),
(153,774,c),
(224,774,l),
(224,789,o),
(229,801,o),
(247,801,cs),
(267,801,o),
(301,766,o),
(342,766,cs),
(406,766,o),
(437,810,o),
(437,868,cs),
(437,881,o),
(435,895,o),
(432,909,c)
);
}
);
};
layerId = "58D608FC-F2A7-4C81-9CF8-8074D1767F25";
shapes = (
{
ref = Ohorn;
},
{
pos = (293,0);
ref = tildecomb.case;
}
);
width = 586;
}
);
unicode = 7904;
},
{
color = 4;
glyphname = Ohungarumlaut;
kernLeft = C;
kernRight = D;
lastChange = "2023-11-24 14:51:42 +0000";
layers = (
{
background = {
anchors = (
{
name = bottom;
pos = (293,-35);
},
{
name = horn;
pos = (445,728);
},
{
name = ogonek;
pos = (353,10);
},
{
name = top.case;
pos = (293,740);
}
);
hints = (
{
horizontal = 1;
place = (-10,155);
type = Stem;
},
{
horizontal = 1;
place = (573,155);
type = Stem;
},
{
place = (20,210);
type = Stem;
},
{
place = (356,210);
type = Stem;
}
);
shapes = (
{
closed = 1;
nodes = (
(496,-2,o),
(566,90,o),
(566,359,cs),
(566,628,o),
(496,720,o),
(318,727,c),
(318,568,l),
(347,552,o),
(356,499,o),
(356,361,cs),
(356,224,o),
(347,168,o),
(318,151,c),
(318,-9,l)
);
},
{
closed = 1;
nodes = (
(239,167,o),
(230,223,o),
(230,361,cs),
(230,498,o),
(239,552,o),
(268,568,c),
(268,727,l),
(90,720,o),
(20,628,o),
(20,359,cs),
(20,90,o),
(91,-2,o),
(268,-10,c),
(268,151,l)
);
},
{
closed = 1;
nodes = (
(114,771,l),
(265,771,l),
(329,891,l),
(159,891,l)
);
},
{
closed = 1;
nodes = (
(318,771,l),
(469,771,l),
(553,891,l),
(383,891,l)
);
}
);
};
hints = (
{
horizontal = 1;
place = (-10,155);
type = Stem;
},
{
horizontal = 1;
place = (573,155);
type = Stem;
},
{
horizontal = 1;
place = (761,120);
type = Stem;
},
{
place = (20,210);
type = Stem;
},
{
place = (356,210);
type = Stem;
}
);
layerId = "58D608FC-F2A7-4C81-9CF8-8074D1767F25";
shapes = (
{
ref = O;
},
{
pos = (331,0);
ref = hungarumlautcomb.case;
}
);
width = 586;
}
);
note = Ohungarumlaut;
unicode = 336;
},
{
color = 4;
glyphname = Oinvertedbreve;
lastChange = "2023-11-24 14:51:42 +0000";
layers = (
{
background = {
anchors = (
{
name = bottom;
pos = (293,-35);
},
{
name = horn;
pos = (445,728);
},
{
name = ogonek;
pos = (353,10);
},
{
name = top.case;
pos = (293,740);
}
);
hints = (
{
horizontal = 1;
place = (-10,155);
type = Stem;
},
{
horizontal = 1;
place = (573,155);
type = Stem;
},
{
place = (20,210);
type = Stem;
},
{
place = (356,210);
type = Stem;
},
{
horizontal = 1;
place = (746,104);
type = Stem;
},
{
horizontal = 1;
place = (746,142);
type = Stem;
},
{
horizontal = 1;
origin = (0,13);
place = (-9,-104);
type = Stem;
},
{
horizontal = 1;
origin = (0,13);
place = (-9,-142);
type = Stem;
}
);
shapes = (
{
closed = 1;
nodes = (
(496,-2,o),
(566,90,o),
(566,359,cs),
(566,628,o),
(496,720,o),
(318,727,c),
(318,568,l),
(347,552,o),
(356,499,o),
(356,361,cs),
(356,224,o),
(347,168,o),
(318,151,c),
(318,-9,l)
);
},
{
closed = 1;
nodes = (
(239,167,o),
(230,223,o),
(230,361,cs),
(230,498,o),
(239,552,o),
(268,568,c),
(268,727,l),
(90,720,o),
(20,628,o),
(20,359,cs),
(20,90,o),
(91,-2,o),
(268,-10,c),
(268,151,l)
);
},
{
closed = 1;
nodes = (
(191,912,o),
(150,869,o),
(140,772,c),
(226,772,l),
(237,800,o),
(257,813,o),
(293,813,cs),
(329,813,o),
(349,800,o),
(360,772,c),
(446,772,l),
(436,869,o),
(395,912,o),
(293,912,cs)
);
}
);
};
layerId = "58D608FC-F2A7-4C81-9CF8-8074D1767F25";
shapes = (
{
ref = O;
},
{
pos = (293,0);
ref = breveinvertedcomb.case;
}
);
width = 586;
}
);
unicode = 526;
},
{
color = 4;
glyphname = Omacron;
kernLeft = C;
kernRight = D;
lastChange = "2023-11-24 14:51:42 +0000";
layers = (
{
background = {
anchors = (
{
name = bottom;
pos = (293,-35);
},
{
name = horn;
pos = (445,728);
},
{
name = ogonek;
pos = (353,10);
},
{
name = top.case;
pos = (293,740);
}
);
hints = (
{
horizontal = 1;
place = (-10,155);
type = Stem;
},
{
horizontal = 1;
place = (573,155);
type = Stem;
},
{
place = (20,210);
type = Stem;
},
{
place = (356,210);
type = Stem;
},
{
horizontal = 1;
place = (778,103);
type = Stem;
},
{
horizontal = 1;
place = (786.589,110.885);
type = Stem;
}
);
shapes = (
{
closed = 1;
nodes = (
(496,-2,o),
(566,90,o),
(566,359,cs),
(566,628,o),
(496,720,o),
(318,727,c),
(318,568,l),
(347,552,o),
(356,499,o),
(356,361,cs),
(356,224,o),
(347,168,o),
(318,151,c),
(318,-9,l)
);
},
{
closed = 1;
nodes = (
(239,167,o),
(230,223,o),
(230,361,cs),
(230,498,o),
(239,552,o),
(268,568,c),
(268,727,l),
(90,720,o),
(20,628,o),
(20,359,cs),
(20,90,o),
(91,-2,o),
(268,-10,c),
(268,151,l)
);
},
{
closed = 1;
nodes = (
(145,787,l),
(441,787,l),
(441,897,l),
(145,897,l)
);
}
);
};
hints = (
{
horizontal = 1;
place = (-10,155);
type = Stem;
},
{
horizontal = 1;
place = (573,155);
type = Stem;
},
{
horizontal = 1;
place = (778,103);
type = Stem;
},
{
place = (20,210);
type = Stem;
},
{
place = (356,210);
type = Stem;
}
);
layerId = "58D608FC-F2A7-4C81-9CF8-8074D1767F25";
shapes = (
{
ref = O;
},
{
pos = (293,0);
ref = macroncomb.case;
}
);
width = 586;
}
);
note = Omacron;
unicode = 332;
},
{
color = 4;
glyphname = Oogonek;
lastChange = "2023-11-24 14:51:42 +0000";
layers = (
{
background = {
anchors = (
{
name = bottom;
pos = (293,-35);
},
{
name = horn;
pos = (445,728);
},
{
name = ogonek;
pos = (353,10);
},
{
name = top.case;
pos = (293,740);
}
);
hints = (
{
horizontal = 1;
place = (-10,155);
type = Stem;
},
{
horizontal = 1;
place = (573,155);
type = Stem;
},
{
place = (20,210);
type = Stem;
},
{
place = (356,210);
type = Stem;
},
{
horizontal = 1;
place = (-160,68);
type = Stem;
},
{
horizontal = 1;
place = (55,-20);
target = down;
type = TopGhost;
},
{
place = (271,197);
type = Stem;
}
);
shapes = (
{
closed = 1;
nodes = (
(496,-2,o),
(566,90,o),
(566,359,cs),
(566,628,o),
(496,720,o),
(318,727,c),
(318,568,l),
(347,552,o),
(356,499,o),
(356,361,cs),
(356,224,o),
(347,168,o),
(318,151,c),
(318,-9,l)
);
},
{
closed = 1;
nodes = (
(239,167,o),
(230,223,o),
(230,361,cs),
(230,498,o),
(239,552,o),
(268,568,c),
(268,727,l),
(90,720,o),
(20,628,o),
(20,359,cs),
(20,90,o),
(91,-2,o),
(268,-10,c),
(268,151,l)
);
},
{
closed = 1;
nodes = (
(274,-109,o),
(310,-160,o),
(400,-160,cs),
(426,-160,o),
(456,-154,o),
(481,-146,c),
(455,-181,l),
(455,-46,l),
(470,-72,l),
(430,-83,o),
(408,-76,o),
(402,-51,c),
(286,-51,l)
);
}
);
};
layerId = "58D608FC-F2A7-4C81-9CF8-8074D1767F25";
shapes = (
{
ref = O;
},
{
pos = (369,0);
ref = ogonekcomb;
}
);
width = 586;
}
);
unicode = 490;
},
{
color = 4;
glyphname = Oslash;
kernLeft = C;
kernRight = D;
lastChange = "2023-11-24 14:51:38 +0000";
layers = (
{
anchors = (
{
name = top.case;
pos = (293,740);
}
);
background = {
anchors = (
{
name = top.case;
pos = (293,740);
}
);
shapes = (
{
closed = 1;
nodes = (
(103,-48,l),
(559,721,l),
(486,765,l),
(30,-4,l)
);
},
{
closed = 1;
nodes = (
(350,176,o),
(334,145,o),
(293,145,cs),
(286,145,o),
(279,146,o),
(273,148,c),
(185,2,l),
(216,-6,o),
(252,-10,o),
(293,-10,cs),
(489,-10,o),
(566,78,o),
(566,359,cs),
(566,456,o),
(557,530,o),
(537,586,c),
(355,284,l)
);
},
{
closed = 1;
nodes = (
(367,724,o),
(332,728,o),
(293,728,cs),
(97,728,o),
(20,640,o),
(20,359,cs),
(20,261,o),
(29,187,o),
(50,132,c),
(231,437,l),
(236,545,o),
(252,573,o),
(293,573,cs),
(299,573,o),
(305,572,o),
(311,571,c),
(397,716,l)
);
}
);
};
guides = (
{
angle = 90;
pos = (20,652);
},
{
angle = 90;
pos = (566,618);
}
);
hints = (
{
horizontal = 1;
place = (-10,155);
type = Stem;
},
{
horizontal = 1;
place = (558,-20);
target = down;
type = TopGhost;
},
{
horizontal = 1;
place = (573,155);
type = Stem;
},
{
place = (20,210);
type = Stem;
},
{
place = (356,210);
type = Stem;
},
{
horizontal = 1;
place = (38,21);
target = up;
type = BottomGhost;
}
);
layerId = "58D608FC-F2A7-4C81-9CF8-8074D1767F25";
shapes = (
{
closed = 1;
nodes = (
(103,-48,l),
(559,721,l),
(486,765,l),
(30,-4,l)
);
},
{
closed = 1;
nodes = (
(350,176,o),
(334,145,o),
(293,145,cs),
(286,145,o),
(279,146,o),
(273,148,c),
(185,2,l),
(216,-6,o),
(252,-10,o),
(293,-10,cs),
(489,-10,o),
(566,78,o),
(566,359,cs),
(566,456,o),
(557,530,o),
(537,586,c),
(355,284,l)
);
},
{
closed = 1;
nodes = (
(367,724,o),
(332,728,o),
(293,728,cs),
(97,728,o),
(20,640,o),
(20,359,cs),
(20,261,o),
(29,187,o),
(50,132,c),
(231,437,l),
(236,545,o),
(252,573,o),
(293,573,cs),
(299,573,o),
(305,572,o),
(311,571,c),
(397,716,l)
);
}
);
width = 586;
}
);
metricLeft = O;
metricRight = O;
note = Oslash;
unicode = 216;
},
{
color = 4;
glyphname = Oslashacute;
kernLeft = C;
kernRight = D;
lastChange = "2023-11-24 14:51:42 +0000";
layers = (
{
background = {
anchors = (
{
name = top.case;
pos = (293,740);
}
);
hints = (
{
horizontal = 1;
place = (-10,155);
type = Stem;
},
{
horizontal = 1;
place = (558,-20);
target = down;
type = TopGhost;
},
{
horizontal = 1;
place = (573,155);
type = Stem;
},
{
place = (20,210);
type = Stem;
},
{
place = (356,210);
type = Stem;
},
{
horizontal = 1;
place = (38,21);
target = up;
type = BottomGhost;
},
{
horizontal = 1;
origin = (0,3);
place = (-4,120);
type = Stem;
}
);
shapes = (
{
closed = 1;
nodes = (
(103,-48,l),
(559,721,l),
(486,765,l),
(30,-4,l)
);
},
{
closed = 1;
nodes = (
(350,176,o),
(334,145,o),
(293,145,cs),
(286,145,o),
(279,146,o),
(273,148,c),
(185,2,l),
(216,-6,o),
(252,-10,o),
(293,-10,cs),
(489,-10,o),
(566,78,o),
(566,359,cs),
(566,456,o),
(557,530,o),
(537,586,c),
(355,284,l)
);
},
{
closed = 1;
nodes = (
(367,724,o),
(332,728,o),
(293,728,cs),
(97,728,o),
(20,640,o),
(20,359,cs),
(20,261,o),
(29,187,o),
(50,132,c),
(231,437,l),
(236,545,o),
(252,573,o),
(293,573,cs),
(299,573,o),
(305,572,o),
(311,571,c),
(397,716,l)
);
},
{
closed = 1;
nodes = (
(215,771,l),
(366,771,l),
(446,891,l),
(260,891,l)
);
}
);
};
hints = (
{
horizontal = 1;
place = (-76,21);
target = up;
type = BottomGhost;
},
{
horizontal = 1;
place = (-10,155);
type = Stem;
},
{
horizontal = 1;
place = (573,155);
type = Stem;
},
{
horizontal = 1;
place = (772,-20);
target = down;
type = TopGhost;
},
{
place = (20,210);
type = Stem;
},
{
place = (356,210);
type = Stem;
},
{
horizontal = 1;
place = (761,120);
type = Stem;
}
);
layerId = "58D608FC-F2A7-4C81-9CF8-8074D1767F25";
shapes = (
{
ref = Oslash;
},
{
pos = (331,0);
ref = acutecomb.case;
}
);
width = 586;
}
);
note = Oslashacute;
unicode = 510;
},
{
color = 4;
glyphname = Otilde;
kernLeft = C;
kernRight = D;
lastChange = "2023-11-24 14:51:42 +0000";
layers = (
{
background = {
anchors = (
{
name = bottom;
pos = (293,-35);
},
{
name = horn;
pos = (445,728);
},
{
name = ogonek;
pos = (353,10);
},
{
name = top.case;
pos = (293,895);
}
);
hints = (
{
horizontal = 1;
place = (-10,155);
type = Stem;
},
{
horizontal = 1;
place = (573,155);
type = Stem;
},
{
place = (20,210);
type = Stem;
},
{
place = (356,210);
type = Stem;
},
{
horizontal = 1;
place = (774,41);
type = Stem;
},
{
horizontal = 1;
place = (815,94);
type = Stem;
}
);
shapes = (
{
closed = 1;
nodes = (
(496,-2,o),
(566,90,o),
(566,359,cs),
(566,628,o),
(496,720,o),
(318,727,c),
(318,568,l),
(347,552,o),
(356,499,o),
(356,361,cs),
(356,224,o),
(347,168,o),
(318,151,c),
(318,-9,l)
);
},
{
closed = 1;
nodes = (
(239,167,o),
(230,223,o),
(230,361,cs),
(230,498,o),
(239,552,o),
(268,568,c),
(268,727,l),
(90,720,o),
(20,628,o),
(20,359,cs),
(20,90,o),
(91,-2,o),
(268,-10,c),
(268,151,l)
);
},
{
closed = 1;
nodes = (
(361,909,l),
(361,894,o),
(356,882,o),
(338,882,cs),
(318,882,o),
(284,917,o),
(243,917,cs),
(179,917,o),
(148,873,o),
(148,815,cs),
(148,802,o),
(150,788,o),
(153,774,c),
(224,774,l),
(224,789,o),
(229,801,o),
(247,801,cs),
(267,801,o),
(301,766,o),
(342,766,cs),
(406,766,o),
(437,810,o),
(437,868,cs),
(437,881,o),
(435,895,o),
(432,909,c)
);
}
);
};
hints = (
{
horizontal = 1;
place = (-10,155);
type = Stem;
},
{
horizontal = 1;
place = (573,155);
type = Stem;
},
{
horizontal = 1;
place = (738,116);
type = Stem;
},
{
horizontal = 1;
place = (773,81);
type = Stem;
},
{
horizontal = 1;
place = (773,116);
type = Stem;
},
{
place = (20,210);
type = Stem;
},
{
place = (356,210);
type = Stem;
}
);
layerId = "58D608FC-F2A7-4C81-9CF8-8074D1767F25";
shapes = (
{
ref = O;
},
{
pos = (293,0);
ref = tildecomb.case;
}
);
width = 586;
}
);
note = Otilde;
unicode = 213;
},
{
color = 4;
glyphname = Otildemacron;
lastChange = "2023-11-24 14:51:42 +0000";
layers = (
{
background = {
anchors = (
{
name = bottom;
pos = (293,-35);
},
{
name = horn;
pos = (445,728);
},
{
name = ogonek;
pos = (353,10);
},
{
name = top.case;
pos = (293,895);
}
);
hints = (
{
horizontal = 1;
place = (-10,155);
type = Stem;
},
{
horizontal = 1;
place = (573,155);
type = Stem;
},
{
place = (20,210);
type = Stem;
},
{
place = (356,210);
type = Stem;
},
{
horizontal = 1;
place = (774,41);
type = Stem;
},
{
horizontal = 1;
place = (815,94);
type = Stem;
},
{
horizontal = 1;
place = (933,103);
type = Stem;
},
{
horizontal = 1;
place = (941.589,110.885);
type = Stem;
}
);
shapes = (
{
closed = 1;
nodes = (
(496,-2,o),
(566,90,o),
(566,359,cs),
(566,628,o),
(496,720,o),
(318,727,c),
(318,568,l),
(347,552,o),
(356,499,o),
(356,361,cs),
(356,224,o),
(347,168,o),
(318,151,c),
(318,-9,l)
);
},
{
closed = 1;
nodes = (
(239,167,o),
(230,223,o),
(230,361,cs),
(230,498,o),
(239,552,o),
(268,568,c),
(268,727,l),
(90,720,o),
(20,628,o),
(20,359,cs),
(20,90,o),
(91,-2,o),
(268,-10,c),
(268,151,l)
);
},
{
closed = 1;
nodes = (
(361,909,l),
(361,894,o),
(356,882,o),
(338,882,cs),
(318,882,o),
(284,917,o),
(243,917,cs),
(179,917,o),
(148,873,o),
(148,815,cs),
(148,802,o),
(150,788,o),
(153,774,c),
(224,774,l),
(224,789,o),
(229,801,o),
(247,801,cs),
(267,801,o),
(301,766,o),
(342,766,cs),
(406,766,o),
(437,810,o),
(437,868,cs),
(437,881,o),
(435,895,o),
(432,909,c)
);
},
{
closed = 1;
nodes = (
(145,942,l),
(441,942,l),
(441,1052,l),
(145,1052,l)
);
}
);
};
layerId = "58D608FC-F2A7-4C81-9CF8-8074D1767F25";
shapes = (
{
ref = O;
},
{
pos = (293,0);
ref = tildecomb.case;
},
{
pos = (293,155);
ref = macroncomb.case;
}
);
width = 586;
}
);
unicode = 556;
},
{
color = 4;
glyphname = OE;
kernLeft = C;
kernRight = E;
lastChange = "2023-11-24 15:10:39 +0000";
layers = (
{
background = {
shapes = (
{
closed = 1;
nodes = (
(297,-10,o),
(302,-10,o),
(306,-10,c),
(306,146,l),
(302,145,o),
(298,145,o),
(293,145,cs),
(244,145,o),
(230,190,o),
(230,361,cs),
(230,532,o),
(244,573,o),
(293,573,cs),
(307,573,o),
(318,570,o),
(327,561,c),
(755,560,l),
(785,720,l),
(379,720,l),
(354,725,o),
(325,728,o),
(293,728,cs),
(97,728,o),
(20,640,o),
(20,359,cs),
(20,78,o),
(97,-10,o),
(293,-10,cs)
);
},
{
closed = 1;
nodes = (
(762,0,l),
(792,160,l),
(547,160,l),
(547,290,l),
(713,290,l),
(743,450,l),
(547,450,l),
(547,510,l),
(356,510,l),
(356,0,l)
);
}
);
};
hints = (
{
horizontal = 1;
place = (-10,369);
type = Stem;
},
{
horizontal = 1;
place = (560,160);
type = Stem;
},
{
place = (230,63);
type = Stem;
},
{
place = (361,195);
type = Stem;
},
{
horizontal = 1;
place = (0,160);
type = Stem;
},
{
horizontal = 1;
place = (290,160);
type = Stem;
},
{
place = (293,63);
type = Stem;
},
{
place = (392,155);
type = Stem;
},
{
horizontal = 1;
place = (361,212);
type = Stem;
}
);
layerId = "58D608FC-F2A7-4C81-9CF8-8074D1767F25";
shapes = (
{
closed = 1;
nodes = (
(297,-10,o),
(302,-10,o),
(306,-10,c),
(306,146,l),
(302,145,o),
(298,145,o),
(293,145,cs),
(244,145,o),
(230,190,o),
(230,361,cs),
(230,532,o),
(244,573,o),
(293,573,cs),
(307,573,o),
(318,570,o),
(327,561,c),
(755,561,l),
(785,720,l),
(379,720,l),
(354,725,o),
(325,728,o),
(293,728,cs),
(97,728,o),
(20,640,o),
(20,359,cs),
(20,78,o),
(97,-10,o),
(293,-10,cs)
);
},
{
closed = 1;
nodes = (
(762,0,l),
(792,160,l),
(547,160,l),
(547,290,l),
(713,290,l),
(743,450,l),
(547,450,l),
(547,510,l),
(356,510,l),
(356,0,l)
);
}
);
width = 807;
}
);
metricLeft = O;
metricRight = E;
note = OE;
unicode = 338;
},
{
color = 4;
glyphname = P;
kernLeft = B;
lastChange = "2023-11-24 14:51:38 +0000";
layers = (
{
background = {
shapes = (
{
closed = 1;
nodes = (
(55,0,l),
(250,0,l),
(250,529,l),
(55,529,l)
);
},
{
closed = 1;
nodes = (
(250,579,ls),
(324,579,o),
(345,559,o),
(345,457,cs),
(345,395,o),
(330,362,o),
(299,347,c),
(299,195,l),
(471,198,o),
(554,275,o),
(554,455,cs),
(554,655,o),
(467,720,o),
(288,720,cs),
(0,720,l),
(55,579,l)
);
}
);
};
hints = (
{
horizontal = 1;
place = (0,21);
target = up;
type = BottomGhost;
},
{
horizontal = 1;
place = (195,144);
type = Stem;
},
{
horizontal = 1;
place = (577,143);
type = Stem;
},
{
place = (32,205);
type = Stem;
},
{
place = (227,76);
type = Stem;
}
);
layerId = "58D608FC-F2A7-4C81-9CF8-8074D1767F25";
shapes = (
{
closed = 1;
nodes = (
(55,0,l),
(250,0,l),
(250,529,l),
(55,529,l)
);
},
{
closed = 1;
nodes = (
(250,579,ls),
(324,579,o),
(345,559,o),
(345,457,cs),
(345,395,o),
(330,362,o),
(299,347,c),
(299,195,l),
(471,198,o),
(554,275,o),
(554,455,cs),
(554,655,o),
(467,720,o),
(288,720,cs),
(0,720,l),
(55,579,l)
);
}
);
width = 569;
}
);
note = P;
unicode = 80;
},
{
color = 4;
glyphname = Thorn;
kernLeft = H;
lastChange = "2023-11-24 15:10:45 +0000";
layers = (
{
background = {
hints = (
{
horizontal = 1;
place = (-89,21);
target = up;
type = BottomGhost;
},
{
horizontal = 1;
place = (106,144);
type = Stem;
},
{
horizontal = 1;
place = (488,143);
type = Stem;
},
{
place = (22,205);
type = Stem;
},
{
place = (217,76);
type = Stem;
}
);
shapes = (
{
closed = 1;
nodes = (
(462,109,o),
(544,187,o),
(544,367,cs),
(544,567,o),
(458,631,o),
(279,631,cs),
(239,631,l),
(240,720,l),
(45,721,l),
(45,490,l),
(240,490,ls),
(314,490,o),
(335,470,o),
(335,368,cs),
(335,307,o),
(320,274,o),
(291,259,c),
(291,106,l)
);
},
{
closed = 1;
nodes = (
(241,0,l),
(240,440,l),
(45,440,l),
(45,0,l)
);
}
);
};
hints = (
{
horizontal = 1;
place = (0,21);
target = up;
type = BottomGhost;
},
{
horizontal = 1;
place = (195,144);
type = Stem;
},
{
horizontal = 1;
place = (487,145);
type = Stem;
},
{
horizontal = 1;
place = (721,-20);
target = down;
type = TopGhost;
},
{
place = (45,195);
type = Stem;
},
{
place = (321,210);
type = Stem;
},
{
horizontal = 1;
place = (107,146);
type = Stem;
},
{
place = (218,76);
type = Stem;
},
{
horizontal = 1;
place = (577,143);
type = Stem;
}
);
layerId = "58D608FC-F2A7-4C81-9CF8-8074D1767F25";
shapes = (
{
closed = 1;
nodes = (
(462,109,o),
(544,187,o),
(544,367,cs),
(544,567,o),
(458,631,o),
(279,631,cs),
(239,631,l),
(239,721,l),
(45,721,l),
(45,490,l),
(240,490,ls),
(314,490,o),
(335,470,o),
(335,368,cs),
(335,307,o),
(320,274,o),
(291,259,c),
(291,106,l)
);
},
{
closed = 1;
nodes = (
(241,0,l),
(241,440,l),
(45,440,l),
(45,0,l)
);
}
);
width = 559;
}
);
metricLeft = "=H";
metricRight = P;
note = Thorn;
unicode = 222;
},
{
color = 4;
glyphname = Q;
kernLeft = C;
kernRight = D;
lastChange = "2023-11-24 14:51:38 +0000";
layers = (
{
background = {
shapes = (
{
closed = 1;
nodes = (
(354,186,o),
(340,145,o),
(293,145,cs),
(246,145,o),
(232,186,o),
(230,336,c),
(20,336,l),
(24,75,o),
(100,-8,o),
(288,-10,c),
(368,-151,l),
(553,-45,l),
(537,-7,o),
(510,22,o),
(480,44,c),
(537,94,o),
(563,187,o),
(566,336,c),
(356,336,l)
);
},
{
closed = 1;
nodes = (
(561,646,o),
(483,728,o),
(293,728,cs),
(103,728,o),
(25,646,o),
(20,386,c),
(230,386,l),
(231,536,o),
(246,573,o),
(293,573,cs),
(340,573,o),
(355,536,o),
(356,386,c),
(566,386,l)
);
}
);
};
hints = (
{
horizontal = 1;
place = (-151,21);
target = up;
type = BottomGhost;
},
{
horizontal = 1;
place = (73,-20);
target = down;
type = TopGhost;
},
{
horizontal = 1;
place = (573,155);
type = Stem;
},
{
place = (20,210);
type = Stem;
},
{
place = (356,210);
type = Stem;
},
{
horizontal = 1;
place = (-10,155);
type = Stem;
}
);
layerId = "58D608FC-F2A7-4C81-9CF8-8074D1767F25";
shapes = (
{
closed = 1;
nodes = (
(354,186,o),
(340,145,o),
(293,145,cs),
(246,145,o),
(232,186,o),
(230,336,c),
(20,336,l),
(24,75,o),
(100,-8,o),
(288,-10,c),
(368,-151,l),
(553,-45,l),
(537,-7,o),
(510,22,o),
(480,44,c),
(537,94,o),
(563,187,o),
(566,336,c),
(356,336,l)
);
},
{
closed = 1;
nodes = (
(561,646,o),
(483,728,o),
(293,728,cs),
(103,728,o),
(25,646,o),
(20,386,c),
(230,386,l),
(231,536,o),
(246,573,o),
(293,573,cs),
(340,573,o),
(355,536,o),
(356,386,c),
(566,386,l)
);
}
);
width = 586;
}
);
note = Q;
unicode = 81;
},
